P3
#   Imported from XPM image: 
#
56 46
255
247 243 247 247 243 247 247 243 247 247 243 247 
247 243 247 247 243 247 247 243 247 247 243 247 
247 243 247 247 243 247 247 243 247 247 243 247 
247 243 247 247 243 247 247 243 247 247 243 247 
247 243 247 247 243 247 247 243 247 247 243 247 
247 243 247 247 243 247 247 243 247 247 243 247 
247 243 247 247 243 247 247 243 247 247 243 247 
247 243 247 247 243 247 247 243 247 247 243 247 
247 243 247 247 243 247 247 243 247 247 243 247 
247 243 247 247 243 247 247 243 247 247 243 247 
247 243 247 247 243 247 247 243 247 247 243 247 
247 243 247 247 243 247 247 243 247 247 243 247 
247 243 247 247 243 247 247 243 247 247 243 247 
247 243 247 247 243 247 247 243 247 182 182 182 
247 243 247 182 182 182 182 182 182 182 182 182 
182 182 182 182 182 182 182 182 182 182 182 182 
182 182 182 182 182 182 182 182 182 182 182 182 
182 182 182 182 182 182 182 182 182 182 182 182 
182 182 182 182 182 182 182 182 182 182 182 182 
182 182 182 182 182 182 182 182 182 182 182 182 
182 182 182 182 182 182 182 182 182 182 182 182 
182 182 182 182 182 182 182 182 182 182 182 182 
182 182 182 182 182 182 182 182 182 182 182 182 
182 182 182 182 182 182 182 182 182 182 182 182 
182 182 182 182 182 182 182 182 182 182 182 182 
182 182 182 182 182 182 182 182 182 182 182 182 
182 182 182 182 182 182 182 182 182 182 182 182 
182 182 182 182 182 182 182 182 182 0 0 16 
247 243 247 182 182 182 182 182 182 166 162 166 
182 182 182 182 182 182 182 182 182 166 162 166 
182 182 182 182 182 182 182 182 182 166 162 166 
182 182 182 182 182 182 182 182 182 166 162 166 
182 182 182 182 182 182 182 182 182 166 162 166 
182 182 182 182 182 182 182 182 182 166 162 166 
182 182 182 182 182 182 182 182 182 166 162 166 
182 182 182 182 182 182 182 182 182 166 162 166 
182 182 182 182 182 182 182 182 182 166 162 166 
182 182 182 182 182 182 182 182 182 166 162 166 
182 182 182 182 182 182 182 182 182 166 162 166 
182 182 182 182 182 182 182 182 182 166 162 166 
182 182 182 182 182 182 182 182 182 166 162 166 
182 182 182 182 182 182 182 182 182 0 0 16 
247 243 247 182 182 182 182 182 182 182 182 182 
182 182 182 182 182 182 182 182 182 182 182 182 
182 182 182 182 182 182 182 182 182 182 182 182 
182 182 182 182 182 182 182 182 182 182 182 182 
182 182 182 182 182 182 182 182 182 182 182 182 
182 182 182 182 182 182 182 182 182 182 182 182 
182 182 182 182 182 182 182 182 182 182 182 182 
182 182 182 182 182 182 182 182 182 182 182 182 
182 182 182 182 182 182 182 182 182 182 182 182 
182 182 182 182 182 182 182 182 182 182 182 182 
182 182 182 182 182 182 182 182 182 182 182 182 
182 182 182 182 182 182 182 182 182 182 182 182 
182 182 182 182 182 182 182 182 182 182 182 182 
182 182 182 166 162 166 182 182 182 0 0 16 
247 243 247 166 162 166 182 182 182 166 162 166 
182 182 182 166 162 166 166 162 166 182 182 182 
182 182 182 150 146 150 182 182 182 182 182 182 
166 162 166 166 162 166 182 182 182 166 162 166 
182 182 182 166 162 166 166 162 166 182 182 182 
182 182 182 150 146 150 182 182 182 182 182 182 
166 162 166 166 162 166 182 182 182 166 162 166 
182 182 182 166 162 166 166 162 166 182 182 182 
182 182 182 150 146 150 182 182 182 182 182 182 
166 162 166 166 162 166 182 182 182 166 162 166 
182 182 182 166 162 166 166 162 166 182 182 182 
182 182 182 150 146 150 182 182 182 182 182 182 
166 162 166 166 162 166 182 182 182 182 182 182 
182 182 182 166 162 166 182 182 182 0 0 16 
247 243 247 182 182 182 182 182 182 182 182 182 
182 182 182 182 182 182 182 182 182 182 182 182 
182 182 182 182 182 182 166 162 166 182 182 182 
182 182 182 182 182 182 182 182 182 182 182 182 
182 182 182 182 182 182 182 182 182 182 182 182 
182 182 182 182 182 182 166 162 166 182 182 182 
182 182 182 182 182 182 182 182 182 182 182 182 
182 182 182 182 182 182 182 182 182 182 182 182 
182 182 182 182 182 182 166 162 166 182 182 182 
182 182 182 182 182 182 182 182 182 182 182 182 
182 182 182 182 182 182 182 182 182 182 182 182 
182 182 182 182 182 182 166 162 166 182 182 182 
182 182 182 182 182 182 182 182 182 166 162 166 
182 182 182 182 182 182 182 182 182 0 0 16 
247 243 247 166 162 166 166 162 166 166 162 166 
182 182 182 166 162 166 166 162 166 166 162 166 
182 182 182 166 162 166 182 182 182 166 162 166 
182 182 182 166 162 166 166 162 166 166 162 166 
182 182 182 166 162 166 166 162 166 166 162 166 
182 182 182 166 162 166 182 182 182 166 162 166 
182 182 182 166 162 166 166 162 166 166 162 166 
182 182 182 166 162 166 166 162 166 166 162 166 
182 182 182 166 162 166 182 182 182 166 162 166 
182 182 182 166 162 166 166 162 166 166 162 166 
182 182 182 166 162 166 166 162 166 166 162 166 
182 182 182 166 162 166 182 182 182 166 162 166 
182 182 182 166 162 166 182 182 182 166 162 166 
182 182 182 166 162 166 182 182 182 0 0 16 
247 243 247 182 182 182 182 182 182 182 182 182 
182 182 182 182 182 182 166 162 166 182 182 182 
182 182 182 182 182 182 182 182 182 182 182 182 
182 182 182 182 182 182 166 162 166 182 182 182 
182 182 182 182 182 182 182 182 182 182 182 182 
182 182 182 182 182 182 166 162 166 182 182 182 
182 182 182 182 182 182 182 182 182 182 182 182 
182 182 182 182 182 182 166 162 166 182 182 182 
182 182 182 182 182 182 182 182 182 182 182 182 
182 182 182 182 182 182 166 162 166 182 182 182 
182 182 182 182 182 182 182 182 182 182 182 182 
182 182 182 182 182 182 166 162 166 182 182 182 
182 182 182 166 162 166 182 182 182 182 182 182 
166 162 166 182 182 182 166 162 166 0 0 16 
247 243 247 166 162 166 182 182 182 166 162 166 
166 162 166 166 162 166 182 182 182 166 162 166 
182 182 182 166 162 166 166 162 166 166 162 166 
182 182 182 166 162 166 182 182 182 166 162 166 
166 162 166 166 162 166 182 182 182 166 162 166 
182 182 182 166 162 166 182 182 182 166 162 166 
166 162 166 166 162 166 182 182 182 166 162 166 
166 162 166 166 162 166 182 182 182 166 162 166 
182 182 182 166 162 166 166 162 166 166 162 166 
182 182 182 166 162 166 182 182 182 166 162 166 
166 162 166 166 162 166 182 182 182 166 162 166 
182 182 182 166 162 166 182 182 182 166 162 166 
182 182 182 166 162 166 182 182 182 166 162 166 
182 182 182 166 162 166 182 182 182 0 0 16 
247 243 247 166 162 166 182 182 182 182 182 182 
166 162 166 182 182 182 182 182 182 182 182 182 
166 162 166 182 182 182 182 182 182 182 182 182 
166 162 166 182 182 182 0 0 0 0 0 0 
0 0 0 0 0 0 0 0 0 0 0 0 
0 0 0 0 0 0 0 0 0 0 0 0 
0 0 0 0 0 0 0 0 0 0 0 0 
0 0 0 0 0 0 0 0 0 0 0 0 
0 0 0 0 0 0 0 0 0 0 0 0 
0 0 0 0 0 0 0 0 0 182 182 182 
166 162 166 182 182 182 182 182 182 182 182 182 
166 162 166 182 182 182 166 162 166 182 182 182 
166 162 166 182 182 182 182 182 182 182 182 182 
166 162 166 182 182 182 182 182 182 0 0 16 
247 243 247 166 162 166 182 182 182 166 162 166 
182 182 182 166 162 166 166 162 166 166 162 166 
182 182 182 166 162 166 182 182 182 166 162 166 
166 162 166 0 0 0 182 182 182 182 182 182 
182 182 182 182 182 182 0 0 0 0 0 0 
0 0 0 0 0 0 0 0 0 0 0 0 
0 0 0 0 0 0 0 0 0 0 0 0 
0 0 0 0 0 0 0 0 0 0 0 0 
0 0 0 0 0 0 0 0 0 182 182 182 
182 182 182 182 182 182 182 182 182 0 0 0 
182 182 182 166 162 166 182 182 182 150 146 150 
182 182 182 166 162 166 182 182 182 166 162 166 
182 182 182 166 162 166 166 162 166 166 162 166 
182 182 182 166 162 166 182 182 182 0 0 16 
247 243 247 182 182 182 166 162 166 182 182 182 
182 182 182 182 182 182 166 162 166 182 182 182 
166 162 166 166 162 166 166 162 166 182 182 182 
182 182 182 0 0 16 182 182 182 182 182 182 
182 182 182 182 182 182 0 0 0 0 0 0 
0 0 0 0 0 0 0 0 0 0 0 0 
0 0 0 0 0 0 0 0 0 0 0 0 
113 130 150 113 130 150 113 130 150 0 0 0 
0 0 0 0 0 0 0 0 16 182 182 182 
182 182 182 182 182 182 182 182 182 182 182 182 
0 0 0 182 182 182 166 162 166 182 182 182 
182 182 182 182 182 182 166 162 166 182 182 182 
166 162 166 182 182 182 166 162 166 182 182 182 
166 162 166 182 182 182 166 162 166 0 0 16 
247 243 247 166 162 166 182 182 182 166 162 166 
166 162 166 166 162 166 182 182 182 166 162 166 
182 182 182 166 162 166 182 182 182 166 162 166 
182 182 182 0 0 0 182 182 182 182 182 182 
182 182 182 182 182 182 0 0 16 0 0 0 
0 0 0 0 0 0 0 0 0 0 0 0 
0 0 0 0 0 0 0 0 0 113 130 150 
113 130 150 113 130 150 113 130 150 113 130 150 
0 0 0 0 0 0 0 0 0 182 182 182 
182 182 182 182 182 182 182 182 182 182 182 182 
182 182 182 0 0 0 182 182 182 166 162 166 
182 182 182 150 146 150 182 182 182 166 162 166 
182 182 182 166 162 166 182 182 182 166 162 166 
182 182 182 166 162 166 182 182 182 0 0 16 
247 243 247 182 182 182 166 162 166 182 182 182 
166 162 166 182 182 182 166 162 166 182 182 182 
166 162 166 182 182 182 166 162 166 182 182 182 
166 162 166 0 0 16 182 182 182 182 182 182 
247 243 247 182 182 182 0 0 0 0 0 0 
0 0 0 0 0 0 0 0 0 0 0 0 
0 0 0 0 0 0 0 0 0 113 130 150 
113 130 150 113 130 150 113 130 150 113 130 150 
0 0 0 0 0 0 0 0 16 182 182 182 
182 182 182 182 182 182 247 243 247 182 182 182 
182 182 182 0 0 0 166 162 166 182 182 182 
166 162 166 182 182 182 166 162 166 182 182 182 
150 146 150 182 182 182 166 162 166 182 182 182 
166 162 166 182 182 182 166 162 166 0 0 16 
247 243 247 166 162 166 182 182 182 166 162 166 
182 182 182 166 162 166 182 182 182 166 162 166 
182 182 182 166 162 166 182 182 182 166 162 166 
182 182 182 0 0 0 182 182 182 182 182 182 
182 182 182 182 182 182 0 0 0 0 0 0 
0 0 0 0 0 0 0 0 0 0 0 0 
0 0 0 0 0 0 0 0 0 113 130 150 
113 130 150 113 130 150 113 130 150 113 130 150 
0 0 0 0 0 0 0 0 0 182 182 182 
182 182 182 182 182 182 182 182 182 182 182 182 
182 182 182 0 0 16 182 182 182 166 162 166 
182 182 182 166 162 166 182 182 182 166 162 166 
182 182 182 166 162 166 182 182 182 166 162 166 
182 182 182 166 162 166 182 182 182 0 0 16 
247 243 247 166 162 166 166 162 166 182 182 182 
166 162 166 166 162 166 166 162 166 166 162 166 
166 162 166 166 162 166 166 162 166 182 182 182 
166 162 166 0 0 16 182 182 182 182 182 182 
182 182 182 182 182 182 0 0 0 0 0 0 
0 0 0 0 0 0 0 0 0 0 0 0 
0 0 0 0 0 0 0 0 0 113 130 150 
113 130 150 113 130 150 113 130 150 113 130 150 
0 0 0 0 0 0 0 0 0 182 182 182 
247 243 247 182 182 182 182 182 182 182 182 182 
182 182 182 0 0 0 166 162 166 166 162 166 
166 162 166 166 162 166 166 162 166 182 182 182 
166 162 166 166 162 166 166 162 166 166 162 166 
166 162 166 166 162 166 166 162 166 0 0 16 
247 243 247 166 162 166 166 162 166 166 162 166 
182 182 182 166 162 166 182 182 182 166 162 166 
182 182 182 166 162 166 166 162 166 166 162 166 
182 182 182 0 0 0 182 182 182 182 182 182 
182 182 182 182 182 182 0 0 16 0 0 0 
0 0 0 0 0 0 0 0 0 0 0 0 
0 0 0 0 0 0 0 0 0 0 0 0 
113 130 150 113 130 150 113 130 150 0 0 0 
0 0 0 0 0 0 0 0 0 182 182 182 
182 182 182 182 182 182 182 182 182 247 243 247 
182 182 182 0 0 0 182 182 182 166 162 166 
182 182 182 166 162 166 182 182 182 166 162 166 
182 182 182 166 162 166 182 182 182 166 162 166 
182 182 182 166 162 166 182 182 182 0 0 16 
247 243 247 166 162 166 166 162 166 166 162 166 
166 162 166 166 162 166 166 162 166 166 162 166 
166 162 166 166 162 166 166 162 166 166 162 166 
166 162 166 0 0 0 182 182 182 182 182 182 
247 243 247 182 182 182 0 0 0 0 0 0 
0 0 0 0 0 0 0 0 0 0 0 0 
0 0 0 0 0 0 0 0 0 0 0 0 
0 0 0 0 0 0 0 0 0 0 0 0 
0 0 0 0 0 0 0 0 0 182 182 182 
182 182 182 182 182 182 182 182 182 182 182 182 
182 182 182 0 0 0 166 162 166 166 162 166 
166 162 166 166 162 166 166 162 166 166 162 166 
166 162 166 166 162 166 166 162 166 166 162 166 
166 162 166 166 162 166 166 162 166 0 0 16 
247 243 247 166 162 166 182 182 182 166 162 166 
182 182 182 166 162 166 182 182 182 166 162 166 
182 182 182 166 162 166 182 182 182 166 162 166 
182 182 182 0 0 0 182 182 182 182 182 182 
182 182 182 182 182 182 182 182 182 0 0 0 
0 0 0 0 0 0 0 0 0 0 0 0 
0 0 0 0 0 0 0 0 0 0 0 0 
0 0 0 0 0 0 0 0 0 0 0 0 
0 0 0 0 0 0 182 182 182 182 182 182 
182 182 182 182 182 182 182 182 182 182 182 182 
182 182 182 0 0 0 182 182 182 166 162 166 
182 182 182 166 162 166 182 182 182 166 162 166 
166 162 166 166 162 166 182 182 182 166 162 166 
182 182 182 166 162 166 182 182 182 0 0 16 
247 243 247 166 162 166 166 162 166 166 162 166 
166 162 166 166 162 166 166 162 166 166 162 166 
166 162 166 166 162 166 166 162 166 166 162 166 
166 162 166 0 0 16 182 182 182 182 182 182 
182 182 182 182 182 182 182 182 182 182 182 182 
182 182 182 182 182 182 182 182 182 182 182 182 
182 182 182 182 182 182 182 182 182 182 182 182 
182 182 182 182 182 182 182 182 182 182 182 182 
182 182 182 182 182 182 182 182 182 247 243 247 
182 182 182 182 182 182 247 243 247 182 182 182 
182 182 182 0 0 0 166 162 166 166 162 166 
166 162 166 166 162 166 166 162 166 166 162 166 
166 162 166 166 162 166 166 162 166 166 162 166 
166 162 166 166 162 166 166 162 166 0 0 16 
247 243 247 166 162 166 166 162 166 166 162 166 
182 182 182 166 162 166 166 162 166 166 162 166 
182 182 182 166 162 166 166 162 166 166 162 166 
182 182 182 0 0 0 182 182 182 247 243 247 
182 182 182 182 182 182 0 0 16 0 0 0 
0 0 16 0 0 0 0 0 16 0 0 0 
0 0 16 0 0 0 0 0 16 0 0 0 
0 0 16 0 0 0 0 0 16 0 0 0 
0 0 0 0 0 0 0 0 0 0 0 0 
182 182 182 182 182 182 182 182 182 182 182 182 
182 182 182 0 0 16 166 162 166 166 162 166 
182 182 182 166 162 166 166 162 166 166 162 166 
182 182 182 166 162 166 166 162 166 166 162 166 
182 182 182 166 162 166 166 162 166 0 0 16 
247 243 247 166 162 166 166 162 166 166 162 166 
166 162 166 166 162 166 166 162 166 166 162 166 
166 162 166 166 162 166 166 162 166 166 162 166 
166 162 166 0 0 0 182 182 182 182 182 182 
182 182 182 0 0 0 182 182 182 255 20 65 
182 182 182 255 20 65 166 162 166 255 20 65 
166 162 166 255 20 65 166 162 166 255 20 65 
166 162 166 255 20 65 166 162 166 255 20 65 
182 182 182 255 20 65 166 162 166 255 20 65 
0 0 0 182 182 182 182 182 182 182 182 182 
182 182 182 0 0 0 166 162 166 166 162 166 
166 162 166 166 162 166 166 162 166 166 162 166 
166 162 166 166 162 166 166 162 166 166 162 166 
166 162 166 166 162 166 166 162 166 0 0 16 
247 243 247 166 162 166 166 162 166 166 162 166 
166 162 166 166 162 166 166 162 166 166 162 166 
166 162 166 166 162 166 166 162 166 166 162 166 
166 162 166 0 0 0 182 182 182 182 182 182 
182 182 182 0 0 0 255 20 65 166 162 166 
255 20 65 166 162 166 255 20 65 166 162 166 
255 20 65 166 162 166 255 20 65 166 162 166 
255 20 65 166 162 166 255 20 65 166 162 166 
255 20 65 166 162 166 255 20 65 166 162 166 
0 0 0 182 182 182 182 182 182 247 243 247 
182 182 182 0 0 0 166 162 166 166 162 166 
166 162 166 166 162 166 166 162 166 166 162 166 
166 162 166 166 162 166 166 162 166 166 162 166 
166 162 166 166 162 166 166 162 166 0 0 16 
247 243 247 166 162 166 166 162 166 166 162 166 
166 162 166 166 162 166 166 162 166 166 162 166 
166 162 166 166 162 166 166 162 166 166 162 166 
182 182 182 0 0 0 182 182 182 182 182 182 
182 182 182 0 0 0 166 162 166 255 20 65 
166 162 166 255 20 65 166 162 166 255 20 65 
166 162 166 255 20 65 166 162 166 255 20 65 
166 162 166 255 20 65 166 162 166 255 20 65 
166 162 166 255 20 65 166 162 166 255 20 65 
0 0 16 182 182 182 182 182 182 182 182 182 
182 182 182 0 0 0 166 162 166 166 162 166 
166 162 166 166 162 166 166 162 166 166 162 166 
166 162 166 166 162 166 166 162 166 166 162 166 
166 162 166 166 162 166 166 162 166 0 0 16 
247 243 247 150 146 150 166 162 166 166 162 166 
166 162 166 150 146 150 166 162 166 166 162 166 
166 162 166 150 146 150 166 162 166 166 162 166 
166 162 166 0 0 0 182 182 182 247 243 247 
182 182 182 0 0 0 255 20 65 166 162 166 
255 20 65 150 146 150 255 20 65 166 162 166 
255 20 65 150 146 150 255 20 65 166 162 166 
255 20 65 150 146 150 255 20 65 166 162 166 
255 20 65 150 146 150 255 20 65 166 162 166 
0 0 0 182 182 182 182 182 182 182 182 182 
182 182 182 0 0 0 166 162 166 166 162 166 
166 162 166 150 146 150 166 162 166 166 162 166 
166 162 166 150 146 150 166 162 166 166 162 166 
166 162 166 150 146 150 166 162 166 0 0 16 
247 243 247 166 162 166 166 162 166 166 162 166 
166 162 166 166 162 166 166 162 166 166 162 166 
166 162 166 166 162 166 166 162 166 166 162 166 
166 162 166 0 0 0 182 182 182 182 182 182 
182 182 182 0 0 0 166 162 166 255 20 65 
166 162 166 255 20 65 166 162 166 255 20 65 
166 162 166 255 20 65 166 162 166 255 20 65 
166 162 166 255 20 65 166 162 166 255 20 65 
166 162 166 255 20 65 166 162 166 255 20 65 
0 0 0 182 182 182 247 243 247 182 182 182 
182 182 182 0 0 0 166 162 166 166 162 166 
166 162 166 166 162 166 166 162 166 166 162 166 
166 162 166 166 162 166 166 162 166 166 162 166 
166 162 166 166 162 166 166 162 166 0 0 16 
247 243 247 166 162 166 166 162 166 150 146 150 
166 162 166 150 146 150 166 162 166 150 146 150 
166 162 166 166 162 166 166 162 166 150 146 150 
166 162 166 0 0 0 182 182 182 182 182 182 
182 182 182 0 0 0 255 20 65 150 146 150 
255 20 65 150 146 150 255 20 65 150 146 150 
255 20 65 166 162 166 255 20 65 150 146 150 
255 20 65 150 146 150 255 20 65 150 146 150 
255 20 65 166 162 166 255 20 65 150 146 150 
0 0 0 182 182 182 182 182 182 182 182 182 
182 182 182 0 0 0 182 182 182 150 146 150 
166 162 166 150 146 150 166 162 166 150 146 150 
166 162 166 166 162 166 166 162 166 150 146 150 
166 162 166 150 146 150 166 162 166 0 0 16 
247 243 247 166 162 166 166 162 166 166 162 166 
166 162 166 166 162 166 166 162 166 166 162 166 
166 162 166 166 162 166 166 162 166 166 162 166 
166 162 166 0 0 0 182 182 182 182 182 182 
182 182 182 0 0 0 166 162 166 255 20 65 
166 162 166 255 20 65 166 162 166 255 20 65 
166 162 166 255 20 65 166 162 166 255 20 65 
166 162 166 255 20 65 166 162 166 255 20 65 
166 162 166 255 20 65 182 182 182 255 20 65 
0 0 0 182 182 182 182 182 182 182 182 182 
182 182 182 0 0 0 166 162 166 166 162 166 
166 162 166 166 162 166 166 162 166 166 162 166 
166 162 166 166 162 166 166 162 166 166 162 166 
166 162 166 166 162 166 166 162 166 0 0 16 
247 243 247 150 146 150 166 162 166 150 146 150 
166 162 166 150 146 150 166 162 166 150 146 150 
166 162 166 150 146 150 166 162 166 150 146 150 
166 162 166 0 0 0 182 182 182 182 182 182 
247 243 247 0 0 0 255 20 65 150 146 150 
255 20 65 150 146 150 255 20 65 150 146 150 
255 20 65 150 146 150 255 20 65 150 146 150 
255 20 65 150 146 150 255 20 65 150 146 150 
255 20 65 150 146 150 255 20 65 150 146 150 
0 0 0 182 182 182 182 182 182 247 243 247 
182 182 182 0 0 0 166 162 166 150 146 150 
166 162 166 150 146 150 166 162 166 150 146 150 
166 162 166 150 146 150 166 162 166 150 146 150 
166 162 166 150 146 150 166 162 166 0 0 16 
247 243 247 166 162 166 166 162 166 166 162 166 
166 162 166 166 162 166 166 162 166 166 162 166 
166 162 166 166 162 166 166 162 166 166 162 166 
182 182 182 0 0 16 182 182 182 182 182 182 
182 182 182 0 0 0 166 162 166 255 20 65 
166 162 166 255 20 65 166 162 166 255 20 65 
166 162 166 255 20 65 166 162 166 255 20 65 
166 162 166 255 20 65 166 162 166 255 20 65 
166 162 166 255 20 65 166 162 166 255 20 65 
0 0 0 182 182 182 182 182 182 182 182 182 
182 182 182 0 0 0 166 162 166 166 162 166 
166 162 166 166 162 166 166 162 166 166 162 166 
166 162 166 166 162 166 166 162 166 166 162 166 
166 162 166 166 162 166 166 162 166 0 0 16 
247 243 247 150 146 150 166 162 166 150 146 150 
166 162 166 150 146 150 166 162 166 150 146 150 
166 162 166 150 146 150 166 162 166 150 146 150 
166 162 166 0 0 0 182 182 182 182 182 182 
182 182 182 0 0 0 255 20 65 150 146 150 
255 20 65 150 146 150 255 20 65 150 146 150 
255 20 65 150 146 150 255 20 65 150 146 150 
255 20 65 150 146 150 255 20 65 150 146 150 
255 20 65 150 146 150 255 20 65 150 146 150 
0 0 0 182 182 182 182 182 182 182 182 182 
182 182 182 0 0 0 166 162 166 150 146 150 
166 162 166 150 146 150 166 162 166 150 146 150 
166 162 166 150 146 150 166 162 166 150 146 150 
166 162 166 150 146 150 166 162 166 0 0 16 
247 243 247 166 162 166 150 146 150 166 162 166 
166 162 166 166 162 166 150 146 150 166 162 166 
166 162 166 166 162 166 150 146 150 166 162 166 
166 162 166 0 0 0 182 182 182 182 182 182 
182 182 182 0 0 0 150 146 150 255 20 65 
166 162 166 255 20 65 150 146 150 255 20 65 
166 162 166 255 20 65 150 146 150 255 20 65 
166 162 166 255 20 65 150 146 150 255 20 65 
166 162 166 255 20 65 150 146 150 255 20 65 
0 0 0 182 182 182 247 243 247 182 182 182 
182 182 182 0 0 0 150 146 150 166 162 166 
166 162 166 166 162 166 150 146 150 166 162 166 
166 162 166 166 162 166 150 146 150 166 162 166 
166 162 166 166 162 166 150 146 150 0 0 16 
247 243 247 150 146 150 166 162 166 150 146 150 
166 162 166 150 146 150 166 162 166 150 146 150 
166 162 166 150 146 150 166 162 166 150 146 150 
166 162 166 0 0 0 182 182 182 247 243 247 
182 182 182 0 0 0 255 20 65 150 146 150 
255 20 65 150 146 150 255 20 65 150 146 150 
255 20 65 150 146 150 255 20 65 150 146 150 
255 20 65 150 146 150 255 20 65 150 146 150 
255 20 65 150 146 150 255 20 65 150 146 150 
0 0 0 182 182 182 182 182 182 182 182 182 
182 182 182 0 0 0 182 182 182 150 146 150 
166 162 166 150 146 150 166 162 166 150 146 150 
166 162 166 150 146 150 166 162 166 150 146 150 
166 162 166 150 146 150 166 162 166 0 0 16 
247 243 247 166 162 166 150 146 150 166 162 166 
150 146 150 166 162 166 150 146 150 166 162 166 
150 146 150 166 162 166 150 146 150 166 162 166 
166 162 166 0 0 0 182 182 182 182 182 182 
182 182 182 0 0 0 150 146 150 255 20 65 
150 146 150 255 20 65 150 146 150 255 20 65 
150 146 150 255 20 65 150 146 150 255 20 65 
150 146 150 255 20 65 150 146 150 255 20 65 
150 146 150 255 20 65 150 146 150 255 20 65 
0 0 0 182 182 182 182 182 182 182 182 182 
182 182 182 0 0 0 150 146 150 166 162 166 
150 146 150 166 162 166 150 146 150 166 162 166 
150 146 150 166 162 166 150 146 150 166 162 166 
150 146 150 166 162 166 150 146 150 0 0 16 
247 243 247 150 146 150 166 162 166 150 146 150 
166 162 166 150 146 150 166 162 166 150 146 150 
166 162 166 150 146 150 166 162 166 150 146 150 
166 162 166 0 0 0 182 182 182 182 182 182 
182 182 182 0 0 0 255 20 65 150 146 150 
255 20 65 150 146 150 255 20 65 150 146 150 
255 20 65 150 146 150 255 20 65 150 146 150 
255 20 65 150 146 150 255 20 65 150 146 150 
255 20 65 150 146 150 255 20 65 150 146 150 
0 0 0 182 182 182 182 182 182 247 243 247 
182 182 182 0 0 0 166 162 166 150 146 150 
166 162 166 150 146 150 166 162 166 150 146 150 
166 162 166 150 146 150 166 162 166 150 146 150 
166 162 166 150 146 150 166 162 166 0 0 16 
247 243 247 150 146 150 150 146 150 166 162 166 
150 146 150 150 146 150 150 146 150 166 162 166 
150 146 150 150 146 150 150 146 150 166 162 166 
150 146 150 0 0 0 182 182 182 182 182 182 
182 182 182 0 0 0 150 146 150 255 20 65 
150 146 150 255 20 65 150 146 150 255 20 65 
150 146 150 255 20 65 150 146 150 255 20 65 
150 146 150 255 20 65 150 146 150 255 20 65 
150 146 150 255 20 65 166 162 166 255 20 65 
0 0 0 182 182 182 182 182 182 182 182 182 
182 182 182 0 0 0 150 146 150 166 162 166 
150 146 150 150 146 150 150 146 150 166 162 166 
150 146 150 150 146 150 150 146 150 166 162 166 
150 146 150 150 146 150 150 146 150 0 0 16 
247 243 247 150 146 150 166 162 166 150 146 150 
166 162 166 150 146 150 166 162 166 150 146 150 
166 162 166 150 146 150 166 162 166 150 146 150 
166 162 166 0 0 0 182 182 182 247 243 247 
182 182 182 0 0 0 255 20 65 150 146 150 
255 20 65 150 146 150 255 20 65 150 146 150 
255 20 65 150 146 150 255 20 65 150 146 150 
255 20 65 150 146 150 255 20 65 150 146 150 
255 20 65 150 146 150 255 20 65 150 146 150 
0 0 0 182 182 182 182 182 182 182 182 182 
182 182 182 0 0 0 166 162 166 150 146 150 
166 162 166 150 146 150 166 162 166 150 146 150 
166 162 166 150 146 150 166 162 166 150 146 150 
166 162 166 150 146 150 166 162 166 0 0 16 
247 243 247 150 146 150 150 146 150 150 146 150 
150 146 150 150 146 150 150 146 150 150 146 150 
150 146 150 150 146 150 150 146 150 150 146 150 
150 146 150 166 162 166 0 0 0 0 0 0 
0 0 0 0 0 0 0 0 0 0 0 0 
0 0 0 0 0 0 0 0 0 0 0 0 
0 0 0 0 0 0 0 0 0 0 0 0 
0 0 0 0 0 0 0 0 0 0 0 0 
0 0 0 0 0 0 0 0 0 0 0 0 
0 0 0 0 0 0 0 0 0 0 0 0 
0 0 0 166 162 166 150 146 150 150 146 150 
150 146 150 150 146 150 150 146 150 150 146 150 
150 146 150 150 146 150 150 146 150 150 146 150 
150 146 150 150 146 150 150 146 150 0 0 16 
247 243 247 150 146 150 166 162 166 150 146 150 
166 162 166 150 146 150 166 162 166 150 146 150 
166 162 166 150 146 150 166 162 166 150 146 150 
166 162 166 150 146 150 166 162 166 150 146 150 
166 162 166 166 162 166 166 162 166 150 146 150 
166 162 166 150 146 150 166 162 166 150 146 150 
166 162 166 150 146 150 166 162 166 150 146 150 
166 162 166 150 146 150 166 162 166 150 146 150 
166 162 166 150 146 150 166 162 166 166 162 166 
166 162 166 166 162 166 182 182 182 150 146 150 
166 162 166 150 146 150 166 162 166 150 146 150 
166 162 166 150 146 150 166 162 166 150 146 150 
166 162 166 150 146 150 166 162 166 150 146 150 
166 162 166 150 146 150 166 162 166 0 0 16 
247 243 247 150 146 150 150 146 150 150 146 150 
150 146 150 150 146 150 150 146 150 150 146 150 
150 146 150 150 146 150 150 146 150 150 146 150 
150 146 150 150 146 150 150 146 150 150 146 150 
150 146 150 150 146 150 150 146 150 150 146 150 
150 146 150 150 146 150 150 146 150 150 146 150 
150 146 150 150 146 150 150 146 150 150 146 150 
150 146 150 150 146 150 150 146 150 150 146 150 
150 146 150 150 146 150 150 146 150 150 146 150 
150 146 150 150 146 150 150 146 150 150 146 150 
150 146 150 150 146 150 150 146 150 150 146 150 
150 146 150 150 146 150 150 146 150 150 146 150 
150 146 150 150 146 150 150 146 150 150 146 150 
150 146 150 150 146 150 150 146 150 0 0 16 
247 243 247 150 146 150 150 146 150 150 146 150 
166 162 166 150 146 150 150 146 150 150 146 150 
166 162 166 150 146 150 150 146 150 150 146 150 
166 162 166 150 146 150 150 146 150 150 146 150 
166 162 166 150 146 150 150 146 150 150 146 150 
166 162 166 150 146 150 150 146 150 150 146 150 
166 162 166 150 146 150 150 146 150 150 146 150 
166 162 166 150 146 150 150 146 150 150 146 150 
166 162 166 150 146 150 150 146 150 150 146 150 
166 162 166 150 146 150 150 146 150 150 146 150 
166 162 166 150 146 150 150 146 150 150 146 150 
166 162 166 150 146 150 150 146 150 150 146 150 
166 162 166 150 146 150 150 146 150 150 146 150 
166 162 166 150 146 150 150 146 150 0 0 16 
247 243 247 150 146 150 150 146 150 150 146 150 
150 146 150 150 146 150 150 146 150 150 146 150 
150 146 150 150 146 150 150 146 150 150 146 150 
150 146 150 150 146 150 150 146 150 150 146 150 
150 146 150 150 146 150 150 146 150 150 146 150 
150 146 150 150 146 150 150 146 150 150 146 150 
150 146 150 150 146 150 150 146 150 150 146 150 
150 146 150 150 146 150 150 146 150 150 146 150 
150 146 150 150 146 150 150 146 150 150 146 150 
150 146 150 150 146 150 150 146 150 150 146 150 
150 146 150 150 146 150 150 146 150 150 146 150 
150 146 150 150 146 150 150 146 150 150 146 150 
150 146 150 150 146 150 150 146 150 150 146 150 
150 146 150 150 146 150 150 146 150 0 0 16 
247 243 247 150 146 150 166 162 166 150 146 150 
150 146 150 150 146 150 150 146 150 150 146 150 
150 146 150 150 146 150 166 162 166 150 146 150 
150 146 150 150 146 150 150 146 150 150 146 150 
150 146 150 150 146 150 166 162 166 150 146 150 
150 146 150 150 146 150 150 146 150 150 146 150 
150 146 150 150 146 150 166 162 166 150 146 150 
150 146 150 150 146 150 150 146 150 150 146 150 
150 146 150 150 146 150 166 162 166 150 146 150 
150 146 150 150 146 150 150 146 150 150 146 150 
150 146 150 150 146 150 166 162 166 150 146 150 
150 146 150 150 146 150 150 146 150 150 146 150 
150 146 150 150 146 150 166 162 166 150 146 150 
150 146 150 150 146 150 150 146 150 0 0 16 
247 243 247 150 146 150 150 146 150 150 146 150 
150 146 150 150 146 150 150 146 150 150 146 150 
150 146 150 150 146 150 150 146 150 150 146 150 
150 146 150 150 146 150 150 146 150 150 146 150 
150 146 150 150 146 150 150 146 150 150 146 150 
150 146 150 150 146 150 150 146 150 150 146 150 
150 146 150 150 146 150 150 146 150 150 146 150 
150 146 150 150 146 150 150 146 150 150 146 150 
150 146 150 150 146 150 150 146 150 150 146 150 
150 146 150 150 146 150 150 146 150 150 146 150 
150 146 150 150 146 150 150 146 150 150 146 150 
150 146 150 150 146 150 150 146 150 150 146 150 
150 146 150 150 146 150 150 146 150 150 146 150 
150 146 150 150 146 150 150 146 150 0 0 16 
247 243 247 150 146 150 150 146 150 150 146 150 
150 146 150 150 146 150 150 146 150 150 146 150 
150 146 150 150 146 150 150 146 150 150 146 150 
150 146 150 150 146 150 150 146 150 150 146 150 
150 146 150 150 146 150 150 146 150 150 146 150 
150 146 150 150 146 150 150 146 150 150 146 150 
150 146 150 150 146 150 150 146 150 150 146 150 
150 146 150 150 146 150 150 146 150 150 146 150 
150 146 150 150 146 150 150 146 150 150 146 150 
150 146 150 150 146 150 150 146 150 150 146 150 
150 146 150 150 146 150 150 146 150 150 146 150 
150 146 150 150 146 150 150 146 150 150 146 150 
150 146 150 150 146 150 150 146 150 150 146 150 
150 146 150 150 146 150 150 146 150 0 0 16 
182 182 182 0 0 16 0 0 16 0 0 16 
0 0 16 0 0 16 0 0 16 0 0 16 
0 0 16 0 0 16 0 0 16 0 0 16 
0 0 16 0 0 16 0 0 16 0 0 16 
0 0 16 0 0 16 0 0 16 0 0 16 
0 0 16 0 0 16 0 0 16 0 0 16 
0 0 16 0 0 16 0 0 16 0 0 16 
0 0 16 0 0 16 0 0 16 0 0 16 
0 0 16 0 0 16 0 0 16 0 0 16 
0 0 0 0 0 16 0 0 0 0 0 16 
0 0 16 0 0 16 0 0 16 0 0 16 
0 0 16 0 0 16 0 0 16 0 0 16 
0 0 16 0 0 16 0 0 16 0 0 16 
0 0 16 0 0 16 0 0 16 0 0 16 
