P3
#   Imported from XPM image: lightbulb_3d.xpm
#
56 46
255
247 243 247 247 243 247 247 243 247 247 243 247 
247 243 247 247 243 247 247 243 247 247 243 247 
247 243 247 247 243 247 247 243 247 247 243 247 
247 243 247 247 243 247 247 243 247 247 243 247 
247 243 247 247 243 247 247 243 247 247 243 247 
247 243 247 247 243 247 247 243 247 247 243 247 
247 243 247 247 243 247 247 243 247 247 243 247 
247 243 247 247 243 247 247 243 247 247 243 247 
247 243 247 247 243 247 247 243 247 247 243 247 
247 243 247 247 243 247 247 243 247 247 243 247 
247 243 247 247 243 247 247 243 247 247 243 247 
247 243 247 247 243 247 247 243 247 247 243 247 
247 243 247 247 243 247 247 243 247 247 243 247 
247 243 247 247 243 247 247 243 247 181 178 181 
247 243 247 181 178 181 181 178 181 181 178 181 
181 178 181 181 178 181 181 178 181 181 178 181 
181 178 181 181 178 181 181 178 181 181 178 181 
181 178 181 181 178 181 181 178 181 181 178 181 
181 178 181 181 178 181 181 178 181 181 178 181 
181 178 181 181 178 181 181 178 181 181 178 181 
181 178 181 181 178 181 181 178 181 181 178 181 
181 178 181 181 178 181 181 178 181 181 178 181 
181 178 181 181 178 181 181 178 181 181 178 181 
181 178 181 181 178 181 181 178 181 181 178 181 
181 178 181 181 178 181 181 178 181 181 178 181 
181 178 181 181 178 181 181 178 181 181 178 181 
181 178 181 181 178 181 181 178 181 181 178 181 
181 178 181 181 178 181 181 178 181 0 0 16 
247 243 247 181 178 181 181 178 181 181 178 181 
181 178 181 181 178 181 181 178 181 181 178 181 
181 178 181 181 178 181 181 178 181 181 178 181 
181 178 181 181 178 181 181 178 181 181 178 181 
181 178 181 181 178 181 181 178 181 181 178 181 
181 178 181 181 178 181 181 178 181 181 178 181 
181 178 181 181 178 181 181 178 181 181 178 181 
181 178 181 181 178 181 181 178 181 181 178 181 
181 178 181 181 178 181 181 178 181 181 178 181 
181 178 181 181 178 181 181 178 181 181 178 181 
181 178 181 181 178 181 181 178 181 181 178 181 
181 178 181 181 178 181 181 178 181 181 178 181 
181 178 181 181 178 181 181 178 181 181 178 181 
181 178 181 181 178 181 181 178 181 0 0 16 
247 243 247 181 178 181 181 178 181 181 178 181 
181 178 181 181 178 181 181 178 181 181 178 181 
181 178 181 181 178 181 181 178 181 181 178 181 
181 178 181 181 178 181 181 178 181 181 178 181 
181 178 181 181 178 181 181 178 181 181 178 181 
181 178 181 181 178 181 181 178 181 181 178 181 
181 178 181 181 178 181 181 178 181 181 178 181 
181 178 181 181 178 181 181 178 181 181 178 181 
181 178 181 181 178 181 181 178 181 181 178 181 
181 178 181 181 178 181 181 178 181 181 178 181 
181 178 181 181 178 181 181 178 181 181 178 181 
181 178 181 181 178 181 181 178 181 181 178 181 
181 178 181 181 178 181 181 178 181 181 178 181 
181 178 181 181 178 181 181 178 181 0 0 16 
247 243 247 165 162 165 181 178 181 181 178 181 
181 178 181 165 162 165 181 178 181 181 178 181 
181 178 181 165 162 165 181 178 181 181 178 181 
181 178 181 165 162 165 181 178 181 181 178 181 
181 178 181 165 162 165 181 178 181 181 178 181 
181 178 181 165 162 165 181 178 181 181 178 181 
181 178 181 165 162 165 181 178 181 181 178 181 
181 178 181 165 162 165 181 178 181 181 178 181 
181 178 181 165 162 165 181 178 181 181 178 181 
181 178 181 165 162 165 181 178 181 181 178 181 
181 178 181 165 162 165 181 178 181 181 178 181 
181 178 181 165 162 165 181 178 181 181 178 181 
181 178 181 165 162 165 181 178 181 181 178 181 
181 178 181 165 162 165 181 178 181 0 0 16 
247 243 247 181 178 181 181 178 181 181 178 181 
181 178 181 181 178 181 181 178 181 181 178 181 
181 178 181 181 178 181 181 178 181 181 178 181 
181 178 181 181 178 181 181 178 181 181 178 181 
181 178 181 181 178 181 181 178 181 181 178 181 
181 178 181 181 178 181 181 178 181 181 178 181 
181 178 181 181 178 181 181 178 181 181 178 181 
181 178 181 181 178 181 181 178 181 181 178 181 
181 178 181 181 178 181 181 178 181 181 178 181 
181 178 181 181 178 181 181 178 181 181 178 181 
181 178 181 181 178 181 181 178 181 181 178 181 
181 178 181 181 178 181 181 178 181 181 178 181 
181 178 181 181 178 181 181 178 181 181 178 181 
181 178 181 181 178 181 181 178 181 0 0 16 
247 243 247 165 162 165 181 178 181 165 162 165 
181 178 181 165 162 165 181 178 181 165 162 165 
181 178 181 165 162 165 181 178 181 165 162 165 
181 178 181 165 162 165 181 178 181 165 162 165 
181 178 181 165 162 165 181 178 181 165 162 165 
181 178 181 165 162 165 181 178 181 165 162 165 
181 178 181 165 162 165 181 178 181 165 162 165 
181 178 181 165 162 165 181 178 181 165 162 165 
181 178 181 165 162 165 181 178 181 165 162 165 
181 178 181 165 162 165 181 178 181 165 162 165 
181 178 181 165 162 165 181 178 181 165 162 165 
181 178 181 165 162 165 181 178 181 165 162 165 
181 178 181 165 162 165 181 178 181 165 162 165 
181 178 181 165 162 165 181 178 181 0 0 16 
247 243 247 181 178 181 181 178 181 181 178 181 
181 178 181 181 178 181 165 162 165 181 178 181 
181 178 181 181 178 181 181 178 181 181 178 181 
181 178 181 181 178 181 165 162 165 181 178 181 
181 178 181 181 178 181 181 178 181 181 178 181 
181 178 181 181 178 181 165 162 165 181 178 181 
181 178 181 0 0 0 0 0 0 0 0 0 
0 0 0 0 0 0 0 0 0 181 178 181 
181 178 181 181 178 181 181 178 181 181 178 181 
181 178 181 181 178 181 165 162 165 181 178 181 
181 178 181 181 178 181 181 178 181 181 178 181 
181 178 181 181 178 181 165 162 165 181 178 181 
181 178 181 181 178 181 181 178 181 181 178 181 
181 178 181 181 178 181 165 162 165 0 0 16 
247 243 247 165 162 165 181 178 181 165 162 165 
181 178 181 165 162 165 181 178 181 165 162 165 
181 178 181 165 162 165 181 178 181 165 162 165 
181 178 181 165 162 165 181 178 181 165 162 165 
181 178 181 165 162 165 181 178 181 165 162 165 
181 178 181 165 162 165 181 178 181 0 0 0 
0 0 0 165 162 165 181 178 181 165 162 165 
181 178 181 165 162 165 181 178 181 0 0 0 
0 0 0 165 162 165 181 178 181 165 162 165 
181 178 181 165 162 165 181 178 181 165 162 165 
181 178 181 165 162 165 181 178 181 165 162 165 
181 178 181 165 162 165 181 178 181 165 162 165 
181 178 181 165 162 165 181 178 181 165 162 165 
181 178 181 165 162 165 181 178 181 0 0 16 
247 243 247 181 178 181 181 178 181 181 178 181 
165 162 165 181 178 181 181 178 181 181 178 181 
165 162 165 181 178 181 181 178 181 181 178 181 
165 162 165 181 178 181 181 178 181 181 178 181 
165 162 165 181 178 181 181 178 181 181 178 181 
165 162 165 0 0 0 0 0 0 181 178 181 
165 162 165 181 178 181 181 178 181 181 178 181 
165 162 165 181 178 181 181 178 181 181 178 181 
165 162 165 0 0 0 0 0 0 181 178 181 
165 162 165 181 178 181 181 178 181 181 178 181 
165 162 165 181 178 181 181 178 181 181 178 181 
165 162 165 181 178 181 181 178 181 181 178 181 
165 162 165 181 178 181 181 178 181 181 178 181 
165 162 165 181 178 181 181 178 181 0 0 16 
247 243 247 165 162 165 181 178 181 165 162 165 
181 178 181 165 162 165 181 178 181 165 162 165 
181 178 181 165 162 165 181 178 181 165 162 165 
181 178 181 165 162 165 181 178 181 165 162 165 
181 178 181 165 162 165 181 178 181 165 162 165 
0 0 0 165 162 165 181 178 181 165 162 165 
181 178 181 165 162 165 181 178 181 165 162 165 
181 178 181 165 162 165 181 178 181 165 162 165 
181 178 181 165 162 165 181 178 181 0 0 0 
181 178 181 165 162 165 181 178 181 165 162 165 
181 178 181 165 162 165 181 178 181 165 162 165 
181 178 181 165 162 165 181 178 181 165 162 165 
181 178 181 165 162 165 181 178 181 165 162 165 
181 178 181 165 162 165 181 178 181 0 0 16 
247 243 247 181 178 181 165 162 165 181 178 181 
181 178 181 181 178 181 165 162 165 181 178 181 
165 162 165 181 178 181 165 162 165 181 178 181 
181 178 181 181 178 181 165 162 165 181 178 181 
165 162 165 181 178 181 165 162 165 181 178 181 
0 0 0 181 178 181 165 162 165 181 178 181 
255 255 0 181 178 181 255 255 0 181 178 181 
255 255 0 181 178 181 255 255 0 181 178 181 
165 162 165 181 178 181 165 162 165 0 0 0 
181 178 181 181 178 181 165 162 165 181 178 181 
165 162 165 181 178 181 165 162 165 181 178 181 
181 178 181 181 178 181 165 162 165 181 178 181 
165 162 165 181 178 181 165 162 165 181 178 181 
181 178 181 181 178 181 165 162 165 0 0 16 
247 243 247 165 162 165 181 178 181 165 162 165 
181 178 181 165 162 165 181 178 181 165 162 165 
181 178 181 165 162 165 181 178 181 165 162 165 
181 178 181 165 162 165 181 178 181 165 162 165 
181 178 181 165 162 165 181 178 181 0 0 0 
181 178 181 165 162 165 181 178 181 255 255 0 
181 178 181 255 255 0 181 178 181 255 255 0 
181 178 181 255 255 0 181 178 181 255 255 0 
181 178 181 255 255 0 181 178 181 165 162 165 
0 0 0 165 162 165 181 178 181 165 162 165 
181 178 181 165 162 165 181 178 181 165 162 165 
181 178 181 165 162 165 181 178 181 165 162 165 
181 178 181 165 162 165 181 178 181 165 162 165 
181 178 181 165 162 165 181 178 181 0 0 16 
247 243 247 181 178 181 165 162 165 181 178 181 
165 162 165 181 178 181 165 162 165 181 178 181 
165 162 165 181 178 181 165 162 165 181 178 181 
165 162 165 181 178 181 165 162 165 181 178 181 
165 162 165 181 178 181 165 162 165 0 0 0 
165 162 165 181 178 181 255 255 0 181 178 181 
255 255 0 181 178 181 255 255 0 181 178 181 
255 255 0 181 178 181 255 255 0 181 178 181 
255 255 0 181 178 181 255 255 0 181 178 181 
0 0 0 181 178 181 165 162 165 181 178 181 
165 162 165 181 178 181 165 162 165 181 178 181 
165 162 165 181 178 181 165 162 165 181 178 181 
165 162 165 181 178 181 165 162 165 181 178 181 
165 162 165 181 178 181 165 162 165 0 0 16 
247 243 247 165 162 165 181 178 181 165 162 165 
181 178 181 165 162 165 181 178 181 165 162 165 
181 178 181 165 162 165 181 178 181 165 162 165 
181 178 181 165 162 165 181 178 181 165 162 165 
181 178 181 165 162 165 0 0 0 165 162 165 
181 178 181 255 255 0 181 178 181 255 255 0 
181 178 181 255 255 0 255 255 0 255 255 0 
255 255 0 255 255 0 255 255 0 255 255 0 
181 178 181 255 255 0 181 178 181 255 255 0 
181 178 181 0 0 0 181 178 181 165 162 165 
181 178 181 165 162 165 181 178 181 165 162 165 
181 178 181 165 162 165 181 178 181 165 162 165 
181 178 181 165 162 165 181 178 181 165 162 165 
181 178 181 165 162 165 181 178 181 0 0 16 
247 243 247 165 162 165 165 162 165 181 178 181 
165 162 165 165 162 165 165 162 165 181 178 181 
165 162 165 165 162 165 165 162 165 181 178 181 
165 162 165 165 162 165 165 162 165 181 178 181 
165 162 165 165 162 165 0 0 0 181 178 181 
255 255 0 165 162 165 255 255 0 181 178 181 
255 255 0 255 255 0 255 255 0 255 255 0 
255 255 0 255 255 0 255 255 0 255 255 0 
255 255 0 165 162 165 255 255 0 181 178 181 
165 162 165 0 0 0 165 162 165 181 178 181 
165 162 165 165 162 165 165 162 165 181 178 181 
165 162 165 165 162 165 165 162 165 181 178 181 
165 162 165 165 162 165 165 162 165 181 178 181 
165 162 165 165 162 165 165 162 165 0 0 16 
247 243 247 165 162 165 181 178 181 165 162 165 
181 178 181 165 162 165 181 178 181 165 162 165 
181 178 181 165 162 165 181 178 181 165 162 165 
181 178 181 165 162 165 181 178 181 165 162 165 
181 178 181 165 162 165 0 0 0 165 162 165 
181 178 181 255 255 0 181 178 181 255 255 0 
255 255 0 255 255 0 255 255 0 255 255 0 
255 255 0 255 255 0 255 255 0 255 255 0 
255 255 0 255 255 0 181 178 181 255 255 0 
181 178 181 0 0 0 181 178 181 165 162 165 
181 178 181 165 162 165 181 178 181 165 162 165 
181 178 181 165 162 165 181 178 181 165 162 165 
181 178 181 165 162 165 181 178 181 165 162 165 
181 178 181 165 162 165 181 178 181 0 0 16 
247 243 247 165 162 165 165 162 165 165 162 165 
165 162 165 165 162 165 165 162 165 165 162 165 
165 162 165 165 162 165 165 162 165 165 162 165 
165 162 165 165 162 165 165 162 165 165 162 165 
165 162 165 165 162 165 0 0 0 165 162 165 
255 255 0 165 162 165 255 255 0 255 255 0 
181 32 33 255 255 0 255 20 66 255 255 0 
255 20 66 255 255 0 255 20 66 181 32 33 
255 255 0 165 162 165 255 255 0 165 162 165 
165 162 165 0 0 0 165 162 165 165 162 165 
165 162 165 165 162 165 165 162 165 165 162 165 
165 162 165 165 162 165 165 162 165 165 162 165 
165 162 165 165 162 165 165 162 165 165 162 165 
165 162 165 165 162 165 165 162 165 0 0 16 
247 243 247 165 162 165 181 178 181 165 162 165 
181 178 181 165 162 165 181 178 181 165 162 165 
181 178 181 165 162 165 181 178 181 165 162 165 
181 178 181 165 162 165 181 178 181 165 162 165 
181 178 181 165 162 165 0 0 0 165 162 165 
181 178 181 255 255 0 181 178 181 255 255 0 
0 0 0 255 255 0 255 255 0 255 255 0 
255 255 0 255 255 0 255 255 0 0 0 0 
255 255 0 255 255 0 181 178 181 255 255 0 
181 178 181 0 0 0 181 178 181 165 162 165 
181 178 181 165 162 165 181 178 181 165 162 165 
181 178 181 165 162 165 181 178 181 165 162 165 
181 178 181 165 162 165 181 178 181 165 162 165 
181 178 181 165 162 165 181 178 181 0 0 16 
247 243 247 165 162 165 165 162 165 165 162 165 
165 162 165 165 162 165 165 162 165 165 162 165 
165 162 165 165 162 165 165 162 165 165 162 165 
165 162 165 165 162 165 165 162 165 165 162 165 
165 162 165 165 162 165 165 162 165 0 0 0 
165 162 165 165 162 165 255 255 0 255 255 0 
0 0 0 255 255 0 255 255 0 255 255 0 
255 255 0 255 255 0 255 255 0 0 0 0 
255 255 0 165 162 165 255 255 0 165 162 165 
0 0 0 165 162 165 165 162 165 165 162 165 
165 162 165 165 162 165 165 162 165 165 162 165 
165 162 165 165 162 165 165 162 165 165 162 165 
165 162 165 165 162 165 165 162 165 165 162 165 
165 162 165 165 162 165 165 162 165 0 0 16 
247 243 247 165 162 165 165 162 165 165 162 165 
181 178 181 165 162 165 165 162 165 165 162 165 
181 178 181 165 162 165 165 162 165 165 162 165 
181 178 181 165 162 165 165 162 165 165 162 165 
181 178 181 165 162 165 165 162 165 0 0 0 
181 178 181 255 255 0 165 162 165 255 255 0 
255 255 0 0 0 0 255 255 0 255 255 0 
255 255 0 255 255 0 0 0 0 255 255 0 
181 178 181 255 255 0 165 162 165 165 162 165 
0 0 0 165 162 165 165 162 165 165 162 165 
181 178 181 165 162 165 165 162 165 165 162 165 
181 178 181 165 162 165 165 162 165 165 162 165 
181 178 181 165 162 165 165 162 165 165 162 165 
181 178 181 165 162 165 165 162 165 0 0 16 
247 243 247 165 162 165 165 162 165 165 162 165 
165 162 165 165 162 165 165 162 165 165 162 165 
165 162 165 165 162 165 165 162 165 165 162 165 
165 162 165 165 162 165 165 162 165 165 162 165 
165 162 165 165 162 165 165 162 165 165 162 165 
0 0 0 165 162 165 255 255 0 165 162 165 
255 255 0 255 255 0 0 0 0 255 255 0 
255 255 0 0 0 0 255 255 0 165 162 165 
255 255 0 165 162 165 165 162 165 0 0 0 
165 162 165 165 162 165 165 162 165 165 162 165 
165 162 165 165 162 165 165 162 165 165 162 165 
165 162 165 165 162 165 165 162 165 165 162 165 
165 162 165 165 162 165 165 162 165 165 162 165 
165 162 165 165 162 165 165 162 165 0 0 16 
247 243 247 165 162 165 165 162 165 165 162 165 
165 162 165 165 162 165 165 162 165 165 162 165 
165 162 165 165 162 165 165 162 165 165 162 165 
165 162 165 165 162 165 165 162 165 165 162 165 
165 162 165 165 162 165 165 162 165 165 162 165 
0 0 0 165 162 165 165 162 165 255 255 0 
165 162 165 255 255 0 0 0 0 255 255 0 
255 255 0 0 0 0 165 162 165 255 255 0 
165 162 165 165 162 165 165 162 165 0 0 0 
165 162 165 165 162 165 165 162 165 165 162 165 
165 162 165 165 162 165 165 162 165 165 162 165 
165 162 165 165 162 165 165 162 165 165 162 165 
165 162 165 165 162 165 165 162 165 165 162 165 
165 162 165 165 162 165 165 162 165 0 0 16 
247 243 247 165 162 165 165 162 165 165 162 165 
165 162 165 165 162 165 165 162 165 165 162 165 
165 162 165 165 162 165 165 162 165 165 162 165 
165 162 165 165 162 165 165 162 165 165 162 165 
165 162 165 165 162 165 165 162 165 165 162 165 
165 162 165 0 0 0 165 162 165 165 162 165 
255 255 0 115 130 148 0 0 0 255 255 0 
255 255 0 0 0 0 115 130 148 255 255 0 
165 162 165 165 162 165 0 0 0 165 162 165 
165 162 165 165 162 165 165 162 165 165 162 165 
165 162 165 165 162 165 165 162 165 165 162 165 
165 162 165 165 162 165 165 162 165 165 162 165 
165 162 165 165 162 165 165 162 165 165 162 165 
165 162 165 165 162 165 165 162 165 0 0 16 
247 243 247 148 146 148 165 162 165 165 162 165 
165 162 165 148 146 148 165 162 165 165 162 165 
165 162 165 148 146 148 165 162 165 165 162 165 
165 162 165 148 146 148 165 162 165 165 162 165 
165 162 165 148 146 148 165 162 165 165 162 165 
165 162 165 0 0 0 165 162 165 165 162 165 
165 162 165 115 130 148 115 130 148 115 130 148 
115 130 148 115 130 148 115 130 148 165 162 165 
165 162 165 148 146 148 0 0 0 165 162 165 
165 162 165 148 146 148 165 162 165 165 162 165 
165 162 165 148 146 148 165 162 165 165 162 165 
165 162 165 148 146 148 165 162 165 165 162 165 
165 162 165 148 146 148 165 162 165 165 162 165 
165 162 165 148 146 148 165 162 165 0 0 16 
247 243 247 165 162 165 165 162 165 165 162 165 
165 162 165 165 162 165 165 162 165 165 162 165 
165 162 165 165 162 165 165 162 165 165 162 165 
165 162 165 165 162 165 165 162 165 165 162 165 
165 162 165 165 162 165 165 162 165 165 162 165 
165 162 165 165 162 165 0 0 0 165 162 165 
165 162 165 165 162 165 115 130 148 181 178 181 
181 178 181 115 130 148 165 162 165 165 162 165 
165 162 165 0 0 0 165 162 165 165 162 165 
165 162 165 165 162 165 165 162 165 165 162 165 
165 162 165 165 162 165 165 162 165 165 162 165 
165 162 165 165 162 165 165 162 165 165 162 165 
165 162 165 165 162 165 165 162 165 165 162 165 
165 162 165 165 162 165 165 162 165 0 0 16 
247 243 247 165 162 165 165 162 165 148 146 148 
165 162 165 148 146 148 165 162 165 148 146 148 
165 162 165 165 162 165 165 162 165 148 146 148 
165 162 165 148 146 148 165 162 165 148 146 148 
165 162 165 165 162 165 165 162 165 148 146 148 
165 162 165 148 146 148 0 0 0 148 146 148 
165 162 165 165 162 165 115 130 148 181 178 181 
181 178 181 115 130 148 165 162 165 148 146 148 
165 162 165 0 0 0 165 162 165 148 146 148 
165 162 165 148 146 148 165 162 165 148 146 148 
165 162 165 165 162 165 165 162 165 148 146 148 
165 162 165 148 146 148 165 162 165 148 146 148 
165 162 165 165 162 165 165 162 165 148 146 148 
165 162 165 148 146 148 165 162 165 0 0 16 
247 243 247 165 162 165 165 162 165 165 162 165 
165 162 165 165 162 165 165 162 165 165 162 165 
165 162 165 165 162 165 165 162 165 165 162 165 
165 162 165 165 162 165 165 162 165 165 162 165 
165 162 165 165 162 165 165 162 165 165 162 165 
165 162 165 165 162 165 165 162 165 0 0 0 
165 162 165 165 162 165 148 146 148 181 178 181 
181 178 181 115 130 148 165 162 165 165 162 165 
0 0 0 165 162 165 165 162 165 165 162 165 
165 162 165 165 162 165 165 162 165 165 162 165 
165 162 165 165 162 165 165 162 165 165 162 165 
165 162 165 165 162 165 165 162 165 165 162 165 
165 162 165 165 162 165 165 162 165 165 162 165 
165 162 165 165 162 165 165 162 165 0 0 16 
247 243 247 148 146 148 165 162 165 148 146 148 
165 162 165 148 146 148 165 162 165 148 146 148 
165 162 165 148 146 148 165 162 165 148 146 148 
165 162 165 148 146 148 165 162 165 148 146 148 
165 162 165 148 146 148 165 162 165 148 146 148 
165 162 165 148 146 148 165 162 165 0 0 0 
165 162 165 148 146 148 115 130 148 181 178 181 
181 178 181 148 146 148 165 162 165 148 146 148 
0 0 0 148 146 148 165 162 165 148 146 148 
165 162 165 148 146 148 165 162 165 148 146 148 
165 162 165 148 146 148 165 162 165 148 146 148 
165 162 165 148 146 148 165 162 165 148 146 148 
165 162 165 148 146 148 165 162 165 148 146 148 
165 162 165 148 146 148 165 162 165 0 0 16 
247 243 247 165 162 165 165 162 165 165 162 165 
165 162 165 165 162 165 165 162 165 165 162 165 
165 162 165 165 162 165 165 162 165 165 162 165 
165 162 165 165 162 165 165 162 165 165 162 165 
165 162 165 165 162 165 165 162 165 165 162 165 
165 162 165 165 162 165 165 162 165 165 162 165 
0 0 0 181 178 181 115 130 148 181 178 181 
181 178 181 115 130 148 165 162 165 0 0 0 
165 162 165 165 162 165 165 162 165 165 162 165 
165 162 165 165 162 165 165 162 165 165 162 165 
165 162 165 165 162 165 165 162 165 165 162 165 
165 162 165 165 162 165 165 162 165 165 162 165 
165 162 165 165 162 165 165 162 165 165 162 165 
165 162 165 165 162 165 165 162 165 0 0 16 
247 243 247 148 146 148 165 162 165 148 146 148 
165 162 165 148 146 148 165 162 165 148 146 148 
165 162 165 148 146 148 165 162 165 148 146 148 
165 162 165 148 146 148 165 162 165 148 146 148 
165 162 165 148 146 148 165 162 165 148 146 148 
165 162 165 148 146 148 165 162 165 148 146 148 
0 0 0 0 0 0 0 0 16 0 0 16 
0 0 16 0 0 16 0 0 0 0 0 0 
165 162 165 148 146 148 165 162 165 148 146 148 
165 162 165 148 146 148 165 162 165 148 146 148 
165 162 165 148 146 148 165 162 165 148 146 148 
165 162 165 148 146 148 165 162 165 148 146 148 
165 162 165 148 146 148 165 162 165 148 146 148 
165 162 165 148 146 148 165 162 165 0 0 16 
247 243 247 165 162 165 148 146 148 165 162 165 
165 162 165 165 162 165 148 146 148 165 162 165 
165 162 165 165 162 165 148 146 148 165 162 165 
165 162 165 165 162 165 148 146 148 165 162 165 
165 162 165 165 162 165 148 146 148 165 162 165 
165 162 165 165 162 165 148 146 148 165 162 165 
0 0 0 165 81 41 165 81 41 165 81 41 
165 81 41 165 81 41 165 81 41 0 0 0 
165 162 165 165 162 165 148 146 148 165 162 165 
165 162 165 165 162 165 148 146 148 165 162 165 
165 162 165 165 162 165 148 146 148 165 162 165 
165 162 165 165 162 165 148 146 148 165 162 165 
165 162 165 165 162 165 148 146 148 165 162 165 
165 162 165 165 162 165 148 146 148 0 0 16 
247 243 247 148 146 148 165 162 165 148 146 148 
165 162 165 148 146 148 165 162 165 148 146 148 
165 162 165 148 146 148 165 162 165 148 146 148 
165 162 165 148 146 148 165 162 165 148 146 148 
165 162 165 148 146 148 165 162 165 148 146 148 
165 162 165 148 146 148 165 162 165 0 0 0 
165 81 41 165 81 41 165 81 41 165 81 41 
165 81 41 165 81 41 165 81 41 165 81 41 
0 0 0 148 146 148 165 162 165 148 146 148 
165 162 165 148 146 148 165 162 165 148 146 148 
165 162 165 148 146 148 165 162 165 148 146 148 
165 162 165 148 146 148 165 162 165 148 146 148 
165 162 165 148 146 148 165 162 165 148 146 148 
165 162 165 148 146 148 165 162 165 0 0 16 
247 243 247 165 162 165 148 146 148 165 162 165 
148 146 148 165 162 165 148 146 148 165 162 165 
148 146 148 165 162 165 148 146 148 165 162 165 
148 146 148 165 162 165 148 146 148 165 162 165 
148 146 148 165 162 165 148 146 148 165 162 165 
148 146 148 165 162 165 148 146 148 165 162 165 
0 0 0 0 0 0 0 0 0 0 0 0 
0 0 0 0 0 0 0 0 0 0 0 0 
148 146 148 165 162 165 148 146 148 165 162 165 
148 146 148 165 162 165 148 146 148 165 162 165 
148 146 148 165 162 165 148 146 148 165 162 165 
148 146 148 165 162 165 148 146 148 165 162 165 
148 146 148 165 162 165 148 146 148 165 162 165 
148 146 148 165 162 165 148 146 148 0 0 16 
247 243 247 148 146 148 165 162 165 148 146 148 
165 162 165 148 146 148 165 162 165 148 146 148 
165 162 165 148 146 148 165 162 165 148 146 148 
165 162 165 148 146 148 165 162 165 148 146 148 
165 162 165 148 146 148 165 162 165 148 146 148 
165 162 165 148 146 148 165 162 165 0 0 0 
165 81 41 165 81 41 165 81 41 165 81 41 
165 81 41 165 81 41 165 81 41 165 81 41 
0 0 0 148 146 148 165 162 165 148 146 148 
165 162 165 148 146 148 165 162 165 148 146 148 
165 162 165 148 146 148 165 162 165 148 146 148 
165 162 165 148 146 148 165 162 165 148 146 148 
165 162 165 148 146 148 165 162 165 148 146 148 
165 162 165 148 146 148 165 162 165 0 0 16 
247 243 247 148 146 148 148 146 148 165 162 165 
148 146 148 148 146 148 148 146 148 165 162 165 
148 146 148 148 146 148 148 146 148 165 162 165 
148 146 148 148 146 148 148 146 148 165 162 165 
148 146 148 148 146 148 148 146 148 165 162 165 
148 146 148 148 146 148 148 146 148 165 162 165 
0 0 0 0 0 0 0 0 0 0 0 0 
0 0 0 0 0 0 0 0 0 0 0 0 
148 146 148 148 146 148 148 146 148 165 162 165 
148 146 148 148 146 148 148 146 148 165 162 165 
148 146 148 148 146 148 148 146 148 165 162 165 
148 146 148 148 146 148 148 146 148 165 162 165 
148 146 148 148 146 148 148 146 148 165 162 165 
148 146 148 148 146 148 148 146 148 0 0 16 
247 243 247 148 146 148 165 162 165 148 146 148 
165 162 165 148 146 148 165 162 165 148 146 148 
165 162 165 148 146 148 165 162 165 148 146 148 
165 162 165 148 146 148 165 162 165 148 146 148 
165 162 165 148 146 148 165 162 165 148 146 148 
165 162 165 148 146 148 165 162 165 0 0 0 
165 81 41 165 81 41 165 81 41 165 81 41 
165 81 41 165 81 41 165 81 41 165 81 41 
0 0 0 148 146 148 165 162 165 148 146 148 
165 162 165 148 146 148 165 162 165 148 146 148 
165 162 165 148 146 148 165 162 165 148 146 148 
165 162 165 148 146 148 165 162 165 148 146 148 
165 162 165 148 146 148 165 162 165 148 146 148 
165 162 165 148 146 148 165 162 165 0 0 16 
247 243 247 148 146 148 148 146 148 148 146 148 
148 146 148 148 146 148 148 146 148 148 146 148 
148 146 148 148 146 148 148 146 148 148 146 148 
148 146 148 148 146 148 148 146 148 148 146 148 
148 146 148 148 146 148 148 146 148 148 146 148 
148 146 148 148 146 148 148 146 148 148 146 148 
0 0 0 0 0 0 165 81 41 165 81 41 
165 81 41 165 81 41 0 0 0 0 0 0 
148 146 148 148 146 148 148 146 148 148 146 148 
148 146 148 148 146 148 148 146 148 148 146 148 
148 146 148 148 146 148 148 146 148 148 146 148 
148 146 148 148 146 148 148 146 148 148 146 148 
148 146 148 148 146 148 148 146 148 148 146 148 
148 146 148 148 146 148 148 146 148 0 0 16 
247 243 247 148 146 148 165 162 165 148 146 148 
165 162 165 148 146 148 165 162 165 148 146 148 
165 162 165 148 146 148 165 162 165 148 146 148 
165 162 165 148 146 148 165 162 165 148 146 148 
165 162 165 148 146 148 165 162 165 148 146 148 
165 162 165 148 146 148 165 162 165 148 146 148 
165 162 165 148 146 148 0 0 0 0 0 0 
0 0 0 0 0 0 165 162 165 148 146 148 
165 162 165 148 146 148 165 162 165 148 146 148 
165 162 165 148 146 148 165 162 165 148 146 148 
165 162 165 148 146 148 165 162 165 148 146 148 
165 162 165 148 146 148 165 162 165 148 146 148 
165 162 165 148 146 148 165 162 165 148 146 148 
165 162 165 148 146 148 165 162 165 0 0 16 
247 243 247 148 146 148 148 146 148 148 146 148 
148 146 148 148 146 148 148 146 148 148 146 148 
148 146 148 148 146 148 148 146 148 148 146 148 
148 146 148 148 146 148 148 146 148 148 146 148 
148 146 148 148 146 148 148 146 148 148 146 148 
148 146 148 148 146 148 148 146 148 148 146 148 
148 146 148 148 146 148 148 146 148 148 146 148 
148 146 148 148 146 148 148 146 148 148 146 148 
148 146 148 148 146 148 148 146 148 148 146 148 
148 146 148 148 146 148 148 146 148 148 146 148 
148 146 148 148 146 148 148 146 148 148 146 148 
148 146 148 148 146 148 148 146 148 148 146 148 
148 146 148 148 146 148 148 146 148 148 146 148 
148 146 148 148 146 148 148 146 148 0 0 16 
247 243 247 148 146 148 148 146 148 148 146 148 
165 162 165 148 146 148 148 146 148 148 146 148 
165 162 165 148 146 148 148 146 148 148 146 148 
165 162 165 148 146 148 148 146 148 148 146 148 
165 162 165 148 146 148 148 146 148 148 146 148 
165 162 165 148 146 148 148 146 148 148 146 148 
165 162 165 148 146 148 148 146 148 148 146 148 
165 162 165 148 146 148 148 146 148 148 146 148 
165 162 165 148 146 148 148 146 148 148 146 148 
165 162 165 148 146 148 148 146 148 148 146 148 
165 162 165 148 146 148 148 146 148 148 146 148 
165 162 165 148 146 148 148 146 148 148 146 148 
165 162 165 148 146 148 148 146 148 148 146 148 
165 162 165 148 146 148 148 146 148 0 0 16 
247 243 247 148 146 148 148 146 148 148 146 148 
148 146 148 148 146 148 148 146 148 148 146 148 
148 146 148 148 146 148 148 146 148 148 146 148 
148 146 148 148 146 148 148 146 148 148 146 148 
148 146 148 148 146 148 148 146 148 148 146 148 
148 146 148 148 146 148 148 146 148 148 146 148 
148 146 148 148 146 148 148 146 148 148 146 148 
148 146 148 148 146 148 148 146 148 148 146 148 
148 146 148 148 146 148 148 146 148 148 146 148 
148 146 148 148 146 148 148 146 148 148 146 148 
148 146 148 148 146 148 148 146 148 148 146 148 
148 146 148 148 146 148 148 146 148 148 146 148 
148 146 148 148 146 148 148 146 148 148 146 148 
148 146 148 148 146 148 148 146 148 0 0 16 
247 243 247 148 146 148 165 162 165 148 146 148 
148 146 148 148 146 148 148 146 148 148 146 148 
148 146 148 148 146 148 165 162 165 148 146 148 
148 146 148 148 146 148 148 146 148 148 146 148 
148 146 148 148 146 148 165 162 165 148 146 148 
148 146 148 148 146 148 148 146 148 148 146 148 
148 146 148 148 146 148 165 162 165 148 146 148 
148 146 148 148 146 148 148 146 148 148 146 148 
148 146 148 148 146 148 165 162 165 148 146 148 
148 146 148 148 146 148 148 146 148 148 146 148 
148 146 148 148 146 148 165 162 165 148 146 148 
148 146 148 148 146 148 148 146 148 148 146 148 
148 146 148 148 146 148 165 162 165 148 146 148 
148 146 148 148 146 148 148 146 148 0 0 16 
247 243 247 148 146 148 148 146 148 148 146 148 
148 146 148 148 146 148 148 146 148 148 146 148 
148 146 148 148 146 148 148 146 148 148 146 148 
148 146 148 148 146 148 148 146 148 148 146 148 
148 146 148 148 146 148 148 146 148 148 146 148 
148 146 148 148 146 148 148 146 148 148 146 148 
148 146 148 148 146 148 148 146 148 148 146 148 
148 146 148 148 146 148 148 146 148 148 146 148 
148 146 148 148 146 148 148 146 148 148 146 148 
148 146 148 148 146 148 148 146 148 148 146 148 
148 146 148 148 146 148 148 146 148 148 146 148 
148 146 148 148 146 148 148 146 148 148 146 148 
148 146 148 148 146 148 148 146 148 148 146 148 
148 146 148 148 146 148 148 146 148 0 0 16 
247 243 247 148 146 148 148 146 148 148 146 148 
148 146 148 148 146 148 148 146 148 148 146 148 
148 146 148 148 146 148 148 146 148 148 146 148 
148 146 148 148 146 148 148 146 148 148 146 148 
148 146 148 148 146 148 148 146 148 148 146 148 
148 146 148 148 146 148 148 146 148 148 146 148 
148 146 148 148 146 148 148 146 148 148 146 148 
148 146 148 148 146 148 148 146 148 148 146 148 
148 146 148 148 146 148 148 146 148 148 146 148 
148 146 148 148 146 148 148 146 148 148 146 148 
148 146 148 148 146 148 148 146 148 148 146 148 
148 146 148 148 146 148 148 146 148 148 146 148 
148 146 148 148 146 148 148 146 148 148 146 148 
148 146 148 148 146 148 148 146 148 0 0 16 
181 178 181 0 0 16 0 0 16 0 0 16 
0 0 16 0 0 16 0 0 16 0 0 16 
0 0 16 0 0 16 0 0 16 0 0 16 
0 0 16 0 0 16 0 0 16 0 0 16 
0 0 16 0 0 16 0 0 16 0 0 16 
0 0 16 0 0 16 0 0 16 0 0 16 
0 0 16 0 0 16 0 0 16 0 0 16 
0 0 16 0 0 16 0 0 16 0 0 16 
0 0 16 0 0 16 0 0 16 0 0 16 
0 0 16 0 0 16 0 0 16 0 0 16 
0 0 16 0 0 16 0 0 16 0 0 16 
0 0 16 0 0 16 0 0 16 0 0 16 
0 0 16 0 0 16 0 0 16 0 0 16 
0 0 16 0 0 16 0 0 16 0 0 16 
