P3
#   Imported from XPM image: no_drag_3d.xpm
#
56 46
255
255 251 255 255 251 255 255 251 255 255 251 255 
255 251 255 255 251 255 255 251 255 255 251 255 
255 251 255 255 251 255 255 251 255 255 251 255 
255 251 255 255 251 255 255 251 255 255 251 255 
255 251 255 255 251 255 255 251 255 255 251 255 
255 251 255 255 251 255 255 251 255 255 251 255 
255 251 255 255 251 255 255 251 255 255 251 255 
255 251 255 255 251 255 255 251 255 255 251 255 
255 251 255 255 251 255 255 251 255 255 251 255 
255 251 255 255 251 255 255 251 255 255 251 255 
255 251 255 255 251 255 255 251 255 255 251 255 
255 251 255 255 251 255 255 251 255 255 251 255 
255 251 255 255 251 255 255 251 255 255 251 255 
255 251 255 255 251 255 255 251 255 181 178 181 
255 251 255 181 178 181 181 178 181 181 178 181 
165 162 165 181 178 181 181 178 181 181 178 181 
165 162 165 181 178 181 181 178 181 181 178 181 
165 162 165 181 178 181 181 178 181 181 178 181 
165 162 165 181 178 181 181 178 181 181 178 181 
165 162 165 181 178 181 181 178 181 181 178 181 
165 162 165 181 178 181 181 178 181 181 178 181 
165 162 165 181 178 181 181 178 181 181 178 181 
165 162 165 181 178 181 181 178 181 181 178 181 
165 162 165 181 178 181 181 178 181 181 178 181 
165 162 165 181 178 181 181 178 181 181 178 181 
165 162 165 181 178 181 181 178 181 181 178 181 
165 162 165 181 178 181 181 178 181 181 178 181 
165 162 165 181 178 181 181 178 181 0 0 16 
255 251 255 165 162 165 181 178 181 181 178 181 
181 178 181 181 178 181 181 178 181 181 178 181 
181 178 181 181 178 181 181 178 181 181 178 181 
181 178 181 181 178 181 181 178 181 181 178 181 
181 178 181 181 178 181 181 178 181 181 178 181 
181 178 181 181 178 181 181 178 181 181 178 181 
181 178 181 181 178 181 181 178 181 181 178 181 
181 178 181 181 178 181 181 178 181 181 178 181 
181 178 181 181 178 181 181 178 181 181 178 181 
181 178 181 181 178 181 181 178 181 181 178 181 
181 178 181 181 178 181 181 178 181 181 178 181 
181 178 181 181 178 181 181 178 181 181 178 181 
181 178 181 181 178 181 181 178 181 181 178 181 
181 178 181 181 178 181 181 178 181 0 0 16 
255 251 255 181 178 181 181 178 181 181 178 181 
181 178 181 181 178 181 181 178 181 181 178 181 
181 178 181 181 178 181 181 178 181 181 178 181 
181 178 181 181 178 181 181 178 181 181 178 181 
181 178 181 181 178 181 181 178 181 181 178 181 
181 178 181 181 178 181 181 178 181 181 178 181 
181 178 181 181 178 181 181 178 181 181 178 181 
181 178 181 181 178 181 181 178 181 181 178 181 
181 178 181 181 178 181 181 178 181 181 178 181 
181 178 181 181 178 181 181 178 181 181 178 181 
181 178 181 181 178 181 181 178 181 181 178 181 
181 178 181 181 178 181 181 178 181 181 178 181 
181 178 181 181 178 181 181 178 181 181 178 181 
181 178 181 181 178 181 181 178 181 0 0 16 
255 251 255 165 162 165 181 178 181 181 178 181 
181 178 181 165 162 165 181 178 181 181 178 181 
181 178 181 165 162 165 181 178 181 181 178 181 
181 178 181 165 162 165 181 178 181 181 178 181 
181 178 181 165 162 165 181 178 181 181 178 181 
181 178 181 165 162 165 181 178 181 181 178 181 
181 178 181 165 162 165 181 178 181 181 178 181 
181 178 181 165 162 165 181 178 181 181 178 181 
181 178 181 165 162 165 181 178 181 181 178 181 
181 178 181 165 162 165 181 178 181 181 178 181 
181 178 181 165 162 165 181 178 181 181 178 181 
181 178 181 165 162 165 181 178 181 181 178 181 
181 178 181 165 162 165 181 178 181 181 178 181 
181 178 181 165 162 165 181 178 181 0 0 16 
255 251 255 181 178 181 181 178 181 181 178 181 
181 178 181 181 178 181 181 178 181 181 178 181 
181 178 181 181 178 181 181 178 181 181 178 181 
181 178 181 181 178 181 181 178 181 181 178 181 
181 178 181 181 178 181 181 178 181 181 178 181 
181 178 181 181 178 181 181 178 181 181 178 181 
181 178 181 181 178 181 181 178 181 181 178 181 
181 178 181 181 178 181 181 178 181 181 178 181 
181 178 181 181 178 181 181 178 181 181 178 181 
181 178 181 181 178 181 181 178 181 181 178 181 
181 178 181 181 178 181 181 178 181 181 178 181 
181 178 181 181 178 181 181 178 181 181 178 181 
181 178 181 181 178 181 181 178 181 181 178 181 
181 178 181 181 178 181 181 178 181 0 0 16 
255 251 255 165 162 165 181 178 181 165 162 165 
181 178 181 165 162 165 181 178 181 165 162 165 
181 178 181 165 162 165 181 178 181 165 162 165 
181 178 181 165 162 165 181 178 181 165 162 165 
181 178 181 165 162 165 181 178 181 165 162 165 
181 178 181 165 162 165 181 178 181 165 162 165 
181 178 181 165 162 165 181 178 181 165 162 165 
181 178 181 165 162 165 181 178 181 165 162 165 
181 178 181 165 162 165 181 178 181 165 162 165 
181 178 181 165 162 165 181 178 181 165 162 165 
181 178 181 165 162 165 181 178 181 165 162 165 
181 178 181 165 162 165 181 178 181 165 162 165 
181 178 181 165 162 165 181 178 181 165 162 165 
181 178 181 165 162 165 181 178 181 0 0 16 
255 251 255 181 178 181 181 178 181 181 178 181 
181 178 181 181 178 181 165 162 165 181 178 181 
181 178 181 181 178 181 181 178 181 181 178 181 
181 178 181 181 178 181 165 162 165 181 178 181 
181 178 181 181 178 181 181 178 181 181 178 181 
181 178 181 181 178 181 165 162 165 0 0 0 
0 0 0 0 0 0 0 0 0 0 0 0 
0 0 0 0 0 0 0 0 0 0 0 0 
181 178 181 181 178 181 181 178 181 181 178 181 
181 178 181 181 178 181 165 162 165 181 178 181 
181 178 181 181 178 181 181 178 181 181 178 181 
181 178 181 181 178 181 165 162 165 181 178 181 
181 178 181 181 178 181 181 178 181 181 178 181 
181 178 181 181 178 181 165 162 165 0 0 16 
255 251 255 148 146 148 181 178 181 165 162 165 
181 178 181 165 162 165 181 178 181 165 162 165 
181 178 181 165 162 165 181 178 181 165 162 165 
181 178 181 165 162 165 181 178 181 165 162 165 
181 178 181 165 162 165 181 178 181 165 162 165 
0 0 0 0 0 0 0 0 0 255 20 66 
255 20 66 255 20 66 255 20 66 255 20 66 
255 20 66 255 20 66 255 20 66 255 20 66 
0 0 0 0 0 0 0 0 0 165 162 165 
181 178 181 165 162 165 181 178 181 165 162 165 
181 178 181 165 162 165 181 178 181 165 162 165 
181 178 181 165 162 165 181 178 181 165 162 165 
181 178 181 165 162 165 181 178 181 165 162 165 
181 178 181 165 162 165 181 178 181 0 0 16 
255 251 255 181 178 181 181 178 181 181 178 181 
165 162 165 181 178 181 181 178 181 181 178 181 
165 162 165 181 178 181 181 178 181 181 178 181 
165 162 165 181 178 181 181 178 181 181 178 181 
165 162 165 181 178 181 181 178 181 0 0 0 
255 20 66 255 20 66 255 20 66 255 20 66 
255 20 66 255 20 66 255 20 66 255 20 66 
255 20 66 255 20 66 255 20 66 255 20 66 
255 20 66 255 20 66 255 20 66 0 0 0 
165 162 165 181 178 181 181 178 181 181 178 181 
165 162 165 181 178 181 181 178 181 181 178 181 
165 162 165 181 178 181 181 178 181 181 178 181 
165 162 165 181 178 181 181 178 181 181 178 181 
165 162 165 181 178 181 181 178 181 0 0 16 
255 251 255 165 162 165 181 178 181 165 162 165 
181 178 181 165 162 165 181 178 181 165 162 165 
181 178 181 165 162 165 181 178 181 165 162 165 
181 178 181 165 162 165 181 178 181 165 162 165 
181 178 181 0 0 0 0 0 0 255 20 66 
255 20 66 255 20 66 255 20 66 255 20 66 
255 20 66 255 20 66 255 20 66 255 20 66 
255 20 66 255 20 66 255 20 66 255 20 66 
255 20 66 255 20 66 255 20 66 255 20 66 
0 0 0 0 0 0 181 178 181 165 162 165 
181 178 181 165 162 165 181 178 181 165 162 165 
181 178 181 165 162 165 181 178 181 165 162 165 
181 178 181 165 162 165 181 178 181 165 162 165 
181 178 181 165 162 165 181 178 181 0 0 16 
255 251 255 181 178 181 165 162 165 181 178 181 
181 178 181 181 178 181 165 162 165 181 178 181 
165 162 165 181 178 181 165 162 165 181 178 181 
181 178 181 181 178 181 165 162 165 181 178 181 
0 0 0 255 20 66 255 20 66 255 20 66 
255 20 66 255 20 66 255 20 66 255 20 66 
255 20 66 255 20 66 255 20 66 255 20 66 
255 20 66 255 20 66 255 20 66 255 20 66 
255 20 66 255 20 66 255 20 66 255 20 66 
255 20 66 255 20 66 0 0 0 181 178 181 
165 162 165 181 178 181 165 162 165 181 178 181 
181 178 181 181 178 181 165 162 165 181 178 181 
165 162 165 181 178 181 165 162 165 181 178 181 
181 178 181 181 178 181 165 162 165 0 0 16 
255 251 255 165 162 165 181 178 181 165 162 165 
181 178 181 165 162 165 181 178 181 165 162 165 
181 178 181 165 162 165 181 178 181 165 162 165 
181 178 181 165 162 165 181 178 181 0 0 0 
255 20 66 255 20 66 255 20 66 255 20 66 
255 20 66 255 20 66 255 20 66 255 20 66 
255 20 66 255 20 66 255 20 66 255 20 66 
255 20 66 255 20 66 255 20 66 255 20 66 
255 20 66 255 20 66 255 20 66 255 20 66 
255 20 66 255 20 66 255 20 66 0 0 0 
181 178 181 165 162 165 181 178 181 165 162 165 
181 178 181 165 162 165 181 178 181 165 162 165 
181 178 181 165 162 165 181 178 181 165 162 165 
181 178 181 165 162 165 181 178 181 0 0 16 
255 251 255 181 178 181 165 162 165 181 178 181 
165 162 165 181 178 181 165 162 165 181 178 181 
165 162 165 181 178 181 165 162 165 181 178 181 
165 162 165 181 178 181 165 162 165 0 0 0 
255 20 66 255 20 66 255 20 66 255 20 66 
255 20 66 255 20 66 255 20 66 255 20 66 
255 20 66 255 20 66 255 20 66 255 20 66 
255 20 66 255 20 66 255 20 66 255 20 66 
255 20 66 255 20 66 255 20 66 255 20 66 
255 20 66 255 20 66 255 20 66 0 0 0 
165 162 165 181 178 181 165 162 165 181 178 181 
165 162 165 181 178 181 165 162 165 181 178 181 
165 162 165 181 178 181 165 162 165 181 178 181 
165 162 165 181 178 181 165 162 165 0 0 16 
255 251 255 148 146 148 181 178 181 165 162 165 
181 178 181 165 162 165 181 178 181 165 162 165 
181 178 181 165 162 165 181 178 181 165 162 165 
181 178 181 165 162 165 0 0 0 255 20 66 
255 20 66 255 20 66 255 20 66 255 20 66 
255 20 66 255 20 66 255 20 66 255 20 66 
255 20 66 255 20 66 255 20 66 255 20 66 
255 20 66 255 20 66 255 20 66 255 20 66 
255 20 66 255 20 66 255 20 66 255 20 66 
255 20 66 255 20 66 255 20 66 255 20 66 
0 0 0 165 162 165 181 178 181 165 162 165 
181 178 181 165 162 165 181 178 181 165 162 165 
181 178 181 165 162 165 181 178 181 165 162 165 
181 178 181 165 162 165 181 178 181 0 0 16 
255 251 255 165 162 165 165 162 165 181 178 181 
165 162 165 165 162 165 165 162 165 181 178 181 
165 162 165 165 162 165 165 162 165 181 178 181 
165 162 165 0 0 0 255 20 66 255 20 66 
255 20 66 255 20 66 255 20 66 255 20 66 
255 20 66 255 20 66 255 20 66 255 20 66 
255 20 66 255 20 66 255 20 66 255 20 66 
255 20 66 255 20 66 255 20 66 255 20 66 
255 20 66 255 20 66 255 20 66 255 20 66 
255 20 66 255 20 66 255 20 66 255 20 66 
255 20 66 0 0 0 165 162 165 181 178 181 
165 162 165 165 162 165 165 162 165 181 178 181 
165 162 165 165 162 165 165 162 165 181 178 181 
165 162 165 165 162 165 165 162 165 0 0 16 
255 251 255 165 162 165 181 178 181 165 162 165 
181 178 181 165 162 165 181 178 181 165 162 165 
181 178 181 165 162 165 181 178 181 165 162 165 
181 178 181 0 0 0 255 20 66 255 20 66 
255 20 66 255 20 66 255 20 66 255 20 66 
255 20 66 255 20 66 255 20 66 255 20 66 
255 20 66 255 20 66 255 20 66 255 20 66 
255 20 66 255 20 66 255 20 66 255 20 66 
255 20 66 255 20 66 255 20 66 255 20 66 
255 20 66 255 20 66 255 20 66 255 20 66 
255 20 66 0 0 0 181 178 181 165 162 165 
181 178 181 165 162 165 181 178 181 165 162 165 
181 178 181 165 162 165 181 178 181 165 162 165 
181 178 181 165 162 165 181 178 181 0 0 16 
255 251 255 165 162 165 165 162 165 165 162 165 
165 162 165 165 162 165 165 162 165 165 162 165 
165 162 165 165 162 165 165 162 165 165 162 165 
165 162 165 0 0 0 255 20 66 255 20 66 
255 20 66 255 20 66 255 20 66 255 20 66 
255 20 66 255 20 66 255 20 66 255 20 66 
255 20 66 255 20 66 255 20 66 255 20 66 
255 20 66 255 20 66 255 20 66 255 20 66 
255 20 66 255 20 66 255 20 66 255 20 66 
255 20 66 255 20 66 255 20 66 255 20 66 
255 20 66 0 0 0 165 162 165 165 162 165 
165 162 165 165 162 165 165 162 165 165 162 165 
165 162 165 165 162 165 165 162 165 165 162 165 
165 162 165 165 162 165 165 162 165 0 0 16 
255 251 255 165 162 165 181 178 181 165 162 165 
181 178 181 165 162 165 181 178 181 165 162 165 
181 178 181 165 162 165 181 178 181 165 162 165 
0 0 0 255 20 66 255 20 66 255 20 66 
255 20 66 255 20 66 255 20 66 255 20 66 
255 20 66 255 20 66 255 20 66 255 20 66 
255 20 66 255 20 66 255 20 66 255 20 66 
255 20 66 255 20 66 255 20 66 255 20 66 
255 20 66 255 20 66 255 20 66 255 20 66 
255 20 66 255 20 66 255 20 66 255 20 66 
255 20 66 255 20 66 0 0 0 165 162 165 
181 178 181 165 162 165 181 178 181 165 162 165 
181 178 181 165 162 165 181 178 181 165 162 165 
181 178 181 165 162 165 181 178 181 0 0 16 
255 251 255 165 162 165 165 162 165 165 162 165 
165 162 165 165 162 165 165 162 165 165 162 165 
165 162 165 165 162 165 165 162 165 165 162 165 
0 0 0 255 20 66 255 20 66 255 20 66 
255 20 66 255 20 66 255 20 66 255 20 66 
255 20 66 255 20 66 255 20 66 255 20 66 
255 20 66 255 20 66 255 20 66 255 20 66 
255 20 66 255 20 66 255 20 66 255 20 66 
255 20 66 255 20 66 255 20 66 255 20 66 
255 20 66 255 20 66 255 20 66 255 20 66 
255 20 66 255 20 66 0 0 0 165 162 165 
165 162 165 165 162 165 165 162 165 165 162 165 
165 162 165 165 162 165 165 162 165 165 162 165 
165 162 165 165 162 165 165 162 165 0 0 16 
255 251 255 148 146 148 165 162 165 165 162 165 
181 178 181 165 162 165 165 162 165 165 162 165 
181 178 181 165 162 165 165 162 165 165 162 165 
0 0 0 255 20 66 255 20 66 255 251 255 
255 251 255 255 251 255 255 251 255 255 251 255 
255 251 255 255 251 255 255 251 255 255 251 255 
255 251 255 255 251 255 255 251 255 255 251 255 
255 251 255 255 251 255 255 251 255 255 251 255 
255 251 255 255 251 255 255 251 255 255 251 255 
255 251 255 255 251 255 255 251 255 255 251 255 
255 20 66 255 20 66 0 0 0 165 162 165 
181 178 181 165 162 165 165 162 165 165 162 165 
181 178 181 165 162 165 165 162 165 165 162 165 
181 178 181 165 162 165 165 162 165 0 0 16 
255 251 255 165 162 165 165 162 165 165 162 165 
165 162 165 165 162 165 165 162 165 165 162 165 
165 162 165 165 162 165 165 162 165 165 162 165 
0 0 0 255 20 66 255 20 66 255 251 255 
255 251 255 255 251 255 255 251 255 255 251 255 
255 251 255 255 251 255 255 251 255 255 251 255 
255 251 255 255 251 255 255 251 255 255 251 255 
255 251 255 255 251 255 255 251 255 255 251 255 
255 251 255 255 251 255 255 251 255 255 251 255 
255 251 255 255 251 255 255 251 255 255 251 255 
255 20 66 255 20 66 0 0 0 165 162 165 
165 162 165 165 162 165 165 162 165 165 162 165 
165 162 165 165 162 165 165 162 165 165 162 165 
165 162 165 165 162 165 165 162 165 0 0 16 
255 251 255 165 162 165 165 162 165 165 162 165 
165 162 165 165 162 165 165 162 165 165 162 165 
165 162 165 165 162 165 165 162 165 165 162 165 
0 0 0 255 20 66 255 20 66 255 251 255 
255 251 255 255 251 255 255 251 255 255 251 255 
255 251 255 255 251 255 255 251 255 255 251 255 
255 251 255 255 251 255 255 251 255 255 251 255 
255 251 255 255 251 255 255 251 255 255 251 255 
255 251 255 255 251 255 255 251 255 255 251 255 
255 251 255 255 251 255 255 251 255 255 251 255 
255 20 66 255 20 66 0 0 0 165 162 165 
165 162 165 165 162 165 165 162 165 165 162 165 
165 162 165 165 162 165 165 162 165 165 162 165 
165 162 165 165 162 165 165 162 165 0 0 16 
255 251 255 165 162 165 165 162 165 165 162 165 
165 162 165 165 162 165 165 162 165 165 162 165 
165 162 165 165 162 165 165 162 165 165 162 165 
0 0 0 255 20 66 255 20 66 255 251 255 
255 251 255 255 251 255 255 251 255 255 251 255 
255 251 255 255 251 255 255 251 255 255 251 255 
255 251 255 255 251 255 255 251 255 255 251 255 
255 251 255 255 251 255 255 251 255 255 251 255 
255 251 255 255 251 255 255 251 255 255 251 255 
255 251 255 255 251 255 255 251 255 255 251 255 
255 20 66 255 20 66 0 0 0 165 162 165 
165 162 165 165 162 165 165 162 165 165 162 165 
165 162 165 165 162 165 165 162 165 165 162 165 
165 162 165 165 162 165 165 162 165 0 0 16 
255 251 255 148 146 148 165 162 165 165 162 165 
165 162 165 148 146 148 165 162 165 165 162 165 
165 162 165 148 146 148 165 162 165 165 162 165 
0 0 0 255 20 66 255 20 66 255 251 255 
255 251 255 255 251 255 255 251 255 255 251 255 
255 251 255 255 251 255 255 251 255 255 251 255 
255 251 255 255 251 255 255 251 255 255 251 255 
255 251 255 255 251 255 255 251 255 255 251 255 
255 251 255 255 251 255 255 251 255 255 251 255 
255 251 255 255 251 255 255 251 255 255 251 255 
255 20 66 255 20 66 0 0 0 165 162 165 
165 162 165 148 146 148 165 162 165 165 162 165 
165 162 165 148 146 148 165 162 165 165 162 165 
165 162 165 148 146 148 165 162 165 0 0 16 
255 251 255 165 162 165 165 162 165 165 162 165 
165 162 165 165 162 165 165 162 165 165 162 165 
165 162 165 165 162 165 165 162 165 165 162 165 
0 0 0 255 20 66 255 20 66 255 20 66 
255 20 66 255 20 66 255 20 66 255 20 66 
255 20 66 255 20 66 255 20 66 255 20 66 
255 20 66 255 20 66 255 20 66 255 20 66 
255 20 66 255 20 66 255 20 66 255 20 66 
255 20 66 255 20 66 255 20 66 255 20 66 
255 20 66 255 20 66 255 20 66 255 20 66 
255 20 66 255 20 66 0 0 0 165 162 165 
165 162 165 165 162 165 165 162 165 165 162 165 
165 162 165 165 162 165 165 162 165 165 162 165 
165 162 165 165 162 165 165 162 165 0 0 16 
255 251 255 148 146 148 165 162 165 148 146 148 
165 162 165 148 146 148 165 162 165 148 146 148 
165 162 165 165 162 165 165 162 165 148 146 148 
0 0 0 255 20 66 255 20 66 255 20 66 
255 20 66 255 20 66 255 20 66 255 20 66 
255 20 66 255 20 66 255 20 66 255 20 66 
255 20 66 255 20 66 255 20 66 255 20 66 
255 20 66 255 20 66 255 20 66 255 20 66 
255 20 66 255 20 66 255 20 66 255 20 66 
255 20 66 255 20 66 255 20 66 255 20 66 
255 20 66 255 20 66 0 0 0 148 146 148 
165 162 165 148 146 148 165 162 165 148 146 148 
165 162 165 165 162 165 165 162 165 148 146 148 
165 162 165 148 146 148 165 162 165 0 0 16 
255 251 255 165 162 165 165 162 165 165 162 165 
165 162 165 165 162 165 165 162 165 165 162 165 
165 162 165 165 162 165 165 162 165 165 162 165 
165 162 165 0 0 0 255 20 66 255 20 66 
255 20 66 255 20 66 255 20 66 255 20 66 
255 20 66 255 20 66 255 20 66 255 20 66 
255 20 66 255 20 66 255 20 66 255 20 66 
255 20 66 255 20 66 255 20 66 255 20 66 
255 20 66 255 20 66 255 20 66 255 20 66 
255 20 66 255 20 66 255 20 66 255 20 66 
255 20 66 0 0 0 165 162 165 165 162 165 
165 162 165 165 162 165 165 162 165 165 162 165 
165 162 165 165 162 165 165 162 165 165 162 165 
165 162 165 165 162 165 165 162 165 0 0 16 
255 251 255 148 146 148 165 162 165 148 146 148 
165 162 165 148 146 148 165 162 165 148 146 148 
165 162 165 148 146 148 165 162 165 148 146 148 
165 162 165 0 0 0 255 20 66 255 20 66 
255 20 66 255 20 66 255 20 66 255 20 66 
255 20 66 255 20 66 255 20 66 255 20 66 
255 20 66 255 20 66 255 20 66 255 20 66 
255 20 66 255 20 66 255 20 66 255 20 66 
255 20 66 255 20 66 255 20 66 255 20 66 
255 20 66 255 20 66 255 20 66 255 20 66 
255 20 66 0 0 0 165 162 165 148 146 148 
165 162 165 148 146 148 165 162 165 148 146 148 
165 162 165 148 146 148 165 162 165 148 146 148 
165 162 165 148 146 148 165 162 165 0 0 16 
255 251 255 165 162 165 165 162 165 165 162 165 
165 162 165 165 162 165 165 162 165 165 162 165 
165 162 165 165 162 165 165 162 165 165 162 165 
165 162 165 0 0 0 255 20 66 255 20 66 
255 20 66 255 20 66 255 20 66 255 20 66 
255 20 66 255 20 66 255 20 66 255 20 66 
255 20 66 255 20 66 255 20 66 255 20 66 
255 20 66 255 20 66 255 20 66 255 20 66 
255 20 66 255 20 66 255 20 66 255 20 66 
255 20 66 255 20 66 255 20 66 255 20 66 
255 20 66 0 0 0 165 162 165 165 162 165 
165 162 165 165 162 165 165 162 165 165 162 165 
165 162 165 165 162 165 165 162 165 165 162 165 
165 162 165 165 162 165 165 162 165 0 0 16 
255 251 255 148 146 148 165 162 165 148 146 148 
165 162 165 148 146 148 165 162 165 148 146 148 
165 162 165 148 146 148 165 162 165 148 146 148 
165 162 165 148 146 148 0 0 0 255 20 66 
255 20 66 255 20 66 255 20 66 255 20 66 
255 20 66 255 20 66 255 20 66 255 20 66 
255 20 66 255 20 66 255 20 66 255 20 66 
255 20 66 255 20 66 255 20 66 255 20 66 
255 20 66 255 20 66 255 20 66 255 20 66 
255 20 66 255 20 66 255 20 66 255 20 66 
0 0 0 148 146 148 165 162 165 148 146 148 
165 162 165 148 146 148 165 162 165 148 146 148 
165 162 165 148 146 148 165 162 165 148 146 148 
165 162 165 148 146 148 165 162 165 0 0 16 
255 251 255 165 162 165 148 146 148 165 162 165 
165 162 165 165 162 165 148 146 148 165 162 165 
165 162 165 165 162 165 148 146 148 165 162 165 
165 162 165 165 162 165 148 146 148 0 0 0 
255 20 66 255 20 66 255 20 66 255 20 66 
255 20 66 255 20 66 255 20 66 255 20 66 
255 20 66 255 20 66 255 20 66 255 20 66 
255 20 66 255 20 66 255 20 66 255 20 66 
255 20 66 255 20 66 255 20 66 255 20 66 
255 20 66 255 20 66 255 20 66 0 0 0 
165 162 165 165 162 165 148 146 148 165 162 165 
165 162 165 165 162 165 148 146 148 165 162 165 
165 162 165 165 162 165 148 146 148 165 162 165 
165 162 165 165 162 165 148 146 148 0 0 16 
255 251 255 148 146 148 165 162 165 148 146 148 
165 162 165 148 146 148 165 162 165 148 146 148 
165 162 165 148 146 148 165 162 165 148 146 148 
165 162 165 148 146 148 165 162 165 0 0 0 
255 20 66 255 20 66 255 20 66 255 20 66 
255 20 66 255 20 66 255 20 66 255 20 66 
255 20 66 255 20 66 255 20 66 255 20 66 
255 20 66 255 20 66 255 20 66 255 20 66 
255 20 66 255 20 66 255 20 66 255 20 66 
255 20 66 255 20 66 255 20 66 0 0 0 
165 162 165 148 146 148 165 162 165 148 146 148 
165 162 165 148 146 148 165 162 165 148 146 148 
165 162 165 148 146 148 165 162 165 148 146 148 
165 162 165 148 146 148 165 162 165 0 0 16 
255 251 255 165 162 165 148 146 148 165 162 165 
148 146 148 165 162 165 148 146 148 165 162 165 
148 146 148 165 162 165 148 146 148 165 162 165 
148 146 148 165 162 165 148 146 148 165 162 165 
0 0 0 255 20 66 255 20 66 255 20 66 
255 20 66 255 20 66 255 20 66 255 20 66 
255 20 66 255 20 66 255 20 66 255 20 66 
255 20 66 255 20 66 255 20 66 255 20 66 
255 20 66 255 20 66 255 20 66 255 20 66 
255 20 66 255 20 66 0 0 0 165 162 165 
148 146 148 165 162 165 148 146 148 165 162 165 
148 146 148 165 162 165 148 146 148 165 162 165 
148 146 148 165 162 165 148 146 148 165 162 165 
148 146 148 165 162 165 148 146 148 0 0 16 
255 251 255 148 146 148 165 162 165 148 146 148 
165 162 165 148 146 148 165 162 165 148 146 148 
165 162 165 148 146 148 165 162 165 148 146 148 
165 162 165 148 146 148 165 162 165 148 146 148 
165 162 165 0 0 0 0 0 0 255 20 66 
255 20 66 255 20 66 255 20 66 255 20 66 
255 20 66 255 20 66 255 20 66 255 20 66 
255 20 66 255 20 66 255 20 66 255 20 66 
255 20 66 255 20 66 255 20 66 255 20 66 
0 0 0 0 0 0 165 162 165 148 146 148 
165 162 165 148 146 148 165 162 165 148 146 148 
165 162 165 148 146 148 165 162 165 148 146 148 
165 162 165 148 146 148 165 162 165 148 146 148 
165 162 165 148 146 148 165 162 165 0 0 16 
255 251 255 148 146 148 148 146 148 165 162 165 
148 146 148 148 146 148 148 146 148 165 162 165 
148 146 148 148 146 148 148 146 148 165 162 165 
148 146 148 148 146 148 148 146 148 165 162 165 
148 146 148 148 146 148 148 146 148 0 0 0 
255 20 66 255 20 66 255 20 66 255 20 66 
255 20 66 255 20 66 255 20 66 255 20 66 
255 20 66 255 20 66 255 20 66 255 20 66 
255 20 66 255 20 66 255 20 66 0 0 0 
148 146 148 148 146 148 148 146 148 165 162 165 
148 146 148 148 146 148 148 146 148 165 162 165 
148 146 148 148 146 148 148 146 148 165 162 165 
148 146 148 148 146 148 148 146 148 165 162 165 
148 146 148 148 146 148 148 146 148 0 0 16 
255 251 255 148 146 148 165 162 165 148 146 148 
165 162 165 148 146 148 165 162 165 148 146 148 
165 162 165 148 146 148 165 162 165 148 146 148 
165 162 165 148 146 148 165 162 165 148 146 148 
165 162 165 148 146 148 165 162 165 148 146 148 
0 0 0 0 0 0 0 0 0 255 20 66 
255 20 66 255 20 66 255 20 66 255 20 66 
255 20 66 255 20 66 255 20 66 255 20 66 
0 0 0 0 0 0 0 0 0 148 146 148 
165 162 165 148 146 148 165 162 165 148 146 148 
165 162 165 148 146 148 165 162 165 148 146 148 
165 162 165 148 146 148 165 162 165 148 146 148 
165 162 165 148 146 148 165 162 165 148 146 148 
165 162 165 148 146 148 165 162 165 0 0 16 
255 251 255 148 146 148 148 146 148 148 146 148 
148 146 148 148 146 148 148 146 148 148 146 148 
148 146 148 148 146 148 148 146 148 148 146 148 
148 146 148 148 146 148 148 146 148 148 146 148 
148 146 148 148 146 148 148 146 148 148 146 148 
148 146 148 148 146 148 148 146 148 0 0 0 
0 0 0 0 0 0 0 0 0 0 0 0 
0 0 0 0 0 0 0 0 0 0 0 0 
148 146 148 148 146 148 148 146 148 148 146 148 
148 146 148 148 146 148 148 146 148 148 146 148 
148 146 148 148 146 148 148 146 148 148 146 148 
148 146 148 148 146 148 148 146 148 148 146 148 
148 146 148 148 146 148 148 146 148 148 146 148 
148 146 148 148 146 148 148 146 148 0 0 16 
255 251 255 148 146 148 148 146 148 148 146 148 
165 162 165 148 146 148 165 162 165 148 146 148 
165 162 165 148 146 148 165 162 165 148 146 148 
165 162 165 148 146 148 165 162 165 148 146 148 
165 162 165 148 146 148 165 162 165 148 146 148 
165 162 165 148 146 148 165 162 165 148 146 148 
165 162 165 148 146 148 165 162 165 148 146 148 
165 162 165 148 146 148 165 162 165 148 146 148 
165 162 165 148 146 148 165 162 165 148 146 148 
165 162 165 148 146 148 165 162 165 148 146 148 
165 162 165 148 146 148 165 162 165 148 146 148 
165 162 165 148 146 148 165 162 165 148 146 148 
165 162 165 148 146 148 165 162 165 148 146 148 
165 162 165 148 146 148 165 162 165 0 0 16 
255 251 255 148 146 148 148 146 148 148 146 148 
148 146 148 148 146 148 148 146 148 148 146 148 
148 146 148 148 146 148 148 146 148 148 146 148 
148 146 148 148 146 148 148 146 148 148 146 148 
148 146 148 148 146 148 148 146 148 148 146 148 
148 146 148 148 146 148 148 146 148 148 146 148 
148 146 148 148 146 148 148 146 148 148 146 148 
148 146 148 148 146 148 148 146 148 148 146 148 
148 146 148 148 146 148 148 146 148 148 146 148 
148 146 148 148 146 148 148 146 148 148 146 148 
148 146 148 148 146 148 148 146 148 148 146 148 
148 146 148 148 146 148 148 146 148 148 146 148 
148 146 148 148 146 148 148 146 148 148 146 148 
148 146 148 148 146 148 148 146 148 0 0 16 
255 251 255 148 146 148 148 146 148 148 146 148 
165 162 165 148 146 148 148 146 148 148 146 148 
165 162 165 148 146 148 148 146 148 148 146 148 
165 162 165 148 146 148 148 146 148 148 146 148 
165 162 165 148 146 148 148 146 148 148 146 148 
165 162 165 148 146 148 148 146 148 148 146 148 
165 162 165 148 146 148 148 146 148 148 146 148 
165 162 165 148 146 148 148 146 148 148 146 148 
165 162 165 148 146 148 148 146 148 148 146 148 
165 162 165 148 146 148 148 146 148 148 146 148 
165 162 165 148 146 148 148 146 148 148 146 148 
165 162 165 148 146 148 148 146 148 148 146 148 
165 162 165 148 146 148 148 146 148 148 146 148 
165 162 165 148 146 148 148 146 148 0 0 16 
255 251 255 148 146 148 148 146 148 148 146 148 
148 146 148 148 146 148 148 146 148 148 146 148 
148 146 148 148 146 148 148 146 148 148 146 148 
148 146 148 148 146 148 148 146 148 148 146 148 
148 146 148 148 146 148 148 146 148 148 146 148 
148 146 148 148 146 148 148 146 148 148 146 148 
148 146 148 148 146 148 148 146 148 148 146 148 
148 146 148 148 146 148 148 146 148 148 146 148 
148 146 148 148 146 148 148 146 148 148 146 148 
148 146 148 148 146 148 148 146 148 148 146 148 
148 146 148 148 146 148 148 146 148 148 146 148 
148 146 148 148 146 148 148 146 148 148 146 148 
148 146 148 148 146 148 148 146 148 148 146 148 
148 146 148 148 146 148 148 146 148 0 0 16 
255 251 255 148 146 148 165 162 165 148 146 148 
148 146 148 148 146 148 148 146 148 148 146 148 
148 146 148 148 146 148 165 162 165 148 146 148 
148 146 148 148 146 148 148 146 148 148 146 148 
148 146 148 148 146 148 165 162 165 148 146 148 
148 146 148 148 146 148 148 146 148 148 146 148 
148 146 148 148 146 148 165 162 165 148 146 148 
148 146 148 148 146 148 148 146 148 148 146 148 
148 146 148 148 146 148 165 162 165 148 146 148 
148 146 148 148 146 148 148 146 148 148 146 148 
148 146 148 148 146 148 165 162 165 148 146 148 
148 146 148 148 146 148 148 146 148 148 146 148 
148 146 148 148 146 148 165 162 165 148 146 148 
148 146 148 148 146 148 148 146 148 0 0 16 
255 251 255 148 146 148 148 146 148 148 146 148 
148 146 148 148 146 148 148 146 148 148 146 148 
148 146 148 148 146 148 148 146 148 148 146 148 
148 146 148 148 146 148 148 146 148 148 146 148 
148 146 148 148 146 148 148 146 148 148 146 148 
148 146 148 148 146 148 148 146 148 148 146 148 
148 146 148 148 146 148 148 146 148 148 146 148 
148 146 148 148 146 148 148 146 148 148 146 148 
148 146 148 148 146 148 148 146 148 148 146 148 
148 146 148 148 146 148 148 146 148 148 146 148 
148 146 148 148 146 148 148 146 148 148 146 148 
148 146 148 148 146 148 148 146 148 148 146 148 
148 146 148 148 146 148 148 146 148 148 146 148 
148 146 148 148 146 148 148 146 148 0 0 16 
255 251 255 148 146 148 148 146 148 148 146 148 
148 146 148 148 146 148 148 146 148 148 146 148 
148 146 148 148 146 148 148 146 148 148 146 148 
148 146 148 148 146 148 148 146 148 148 146 148 
148 146 148 148 146 148 148 146 148 148 146 148 
148 146 148 148 146 148 148 146 148 148 146 148 
148 146 148 148 146 148 148 146 148 148 146 148 
148 146 148 148 146 148 148 146 148 148 146 148 
148 146 148 148 146 148 148 146 148 148 146 148 
148 146 148 148 146 148 148 146 148 148 146 148 
148 146 148 148 146 148 148 146 148 148 146 148 
148 146 148 148 146 148 148 146 148 148 146 148 
148 146 148 148 146 148 148 146 148 148 146 148 
148 146 148 148 146 148 148 146 148 0 0 16 
181 178 181 0 0 16 0 0 16 0 0 16 
0 0 16 0 0 16 0 0 16 0 0 16 
0 0 16 0 0 16 0 0 16 0 0 16 
0 0 16 0 0 16 0 0 16 0 0 16 
0 0 16 0 0 16 0 0 16 0 0 16 
0 0 16 0 0 16 0 0 16 0 0 16 
0 0 16 0 0 16 0 0 16 0 0 16 
0 0 16 0 0 16 0 0 16 0 0 16 
0 0 16 0 0 16 0 0 16 0 0 16 
0 0 16 0 0 16 0 0 16 0 0 16 
0 0 16 0 0 16 0 0 16 0 0 16 
0 0 16 0 0 16 0 0 16 0 0 16 
0 0 16 0 0 16 0 0 16 0 0 16 
0 0 16 0 0 16 0 0 16 0 0 16 
