P3
#   Imported from XPM image: koala.xpm
#
38 38
255
214 211 214 214 211 214 214 211 214 214 211 214 
214 211 214 214 211 214 214 211 214 214 211 214 
214 211 214 214 211 214 214 211 214 214 211 214 
214 211 214 214 211 214 214 211 214 214 211 214 
214 211 214 214 211 214 214 211 214 214 211 214 
214 211 214 214 211 214 214 211 214 214 211 214 
214 211 214 214 211 214 214 211 214 214 211 214 
214 211 214 214 211 214 214 211 214 214 211 214 
214 211 214 214 211 214 214 211 214 214 211 214 
214 211 214 214 211 214 214 211 214 0 0 0 
0 0 0 214 211 214 214 211 214 214 211 214 
214 211 214 214 211 214 214 211 214 214 211 214 
214 211 214 214 211 214 214 211 214 214 211 214 
214 211 214 214 211 214 214 211 214 214 211 214 
214 211 214 214 211 214 214 211 214 214 211 214 
214 211 214 214 211 214 214 211 214 214 211 214 
214 211 214 214 211 214 214 211 214 214 211 214 
214 211 214 214 211 214 214 211 214 214 211 214 
214 211 214 0 0 0 0 0 0 214 211 214 
214 211 214 0 0 0 214 211 214 214 211 214 
214 211 214 214 211 214 214 211 214 214 211 214 
214 211 214 214 211 214 214 211 214 214 211 214 
214 211 214 214 211 214 214 211 214 214 211 214 
214 211 214 214 211 214 214 211 214 214 211 214 
214 211 214 214 211 214 214 211 214 214 211 214 
214 211 214 214 211 214 214 211 214 214 211 214 
214 211 214 214 211 214 214 211 214 214 211 214 
214 211 214 214 211 214 214 211 214 214 211 214 
0 0 0 214 211 214 214 211 214 214 211 214 
214 211 214 214 211 214 214 211 214 214 211 214 
0 0 0 0 0 0 0 0 0 0 0 0 
0 0 0 0 0 0 0 0 0 0 0 0 
0 0 0 214 211 214 214 211 214 214 211 214 
214 211 214 214 211 214 214 211 214 214 211 214 
214 211 214 0 0 0 0 0 0 0 0 0 
0 0 0 0 0 0 0 0 0 0 0 0 
0 0 0 0 0 0 214 211 214 214 211 214 
214 211 214 214 211 214 214 211 214 214 211 214 
214 211 214 214 211 214 214 211 214 214 211 214 
0 0 0 0 0 0 0 0 0 0 0 0 
0 0 0 0 0 0 0 0 0 0 0 0 
0 0 0 0 0 0 0 0 0 0 0 0 
214 211 214 214 211 214 214 211 214 214 211 214 
214 211 214 214 211 214 0 0 0 0 0 0 
0 0 0 0 0 0 0 0 0 0 0 0 
0 0 0 0 0 0 0 0 0 0 0 0 
0 0 0 0 0 0 214 211 214 214 211 214 
214 211 214 214 211 214 214 211 214 214 211 214 
214 211 214 0 0 0 0 0 0 0 0 0 
0 0 0 214 182 140 214 182 140 214 182 140 
214 182 140 214 182 140 214 182 140 214 182 140 
0 0 0 0 0 0 0 0 0 214 211 214 
214 211 214 214 211 214 214 211 214 0 0 0 
0 0 0 0 0 0 214 182 140 214 182 140 
214 182 140 214 182 140 214 182 140 214 182 140 
214 182 140 0 0 0 0 0 0 0 0 0 
0 0 0 214 211 214 214 211 214 214 211 214 
214 211 214 214 211 214 0 0 0 0 0 0 
0 0 0 214 182 140 214 182 140 214 182 140 
247 223 181 247 223 181 247 223 181 247 223 181 
247 223 181 214 182 140 214 182 140 0 0 0 
0 0 0 214 211 214 214 211 214 214 211 214 
214 211 214 0 0 0 0 0 0 214 182 140 
214 182 140 247 223 181 247 223 181 247 223 181 
247 223 181 247 223 181 214 182 140 214 182 140 
214 182 140 0 0 0 0 0 0 0 0 0 
214 211 214 214 211 214 214 211 214 214 211 214 
0 0 0 0 0 0 214 182 140 214 182 140 
247 223 181 247 223 181 247 223 181 247 223 181 
247 223 181 247 223 181 247 223 181 247 223 181 
214 182 140 0 0 0 0 0 0 0 0 0 
0 0 0 0 0 0 0 0 0 0 0 0 
0 0 0 214 182 140 247 223 181 247 223 181 
247 223 181 247 223 181 247 223 181 247 223 181 
247 223 181 247 223 181 214 182 140 214 182 140 
0 0 0 0 0 0 214 211 214 214 211 214 
214 211 214 214 211 214 0 0 0 0 0 0 
214 182 140 247 223 181 247 223 181 247 223 181 
247 223 181 247 223 181 247 223 181 247 223 181 
247 223 181 247 223 181 214 182 140 214 182 140 
0 0 0 0 0 0 0 0 0 0 0 0 
0 0 0 0 0 0 214 182 140 214 182 140 
247 223 181 247 223 181 247 223 181 247 223 181 
247 223 181 247 223 181 247 223 181 247 223 181 
247 223 181 214 182 140 0 0 0 0 0 0 
214 211 214 214 211 214 214 211 214 214 211 214 
0 0 0 0 0 0 214 182 140 247 223 181 
247 223 181 247 223 181 247 223 181 247 223 181 
247 223 181 247 223 181 247 223 181 214 182 140 
214 182 140 214 182 140 214 182 140 214 182 140 
214 182 140 214 182 140 214 182 140 214 182 140 
214 182 140 214 182 140 214 182 140 247 223 181 
247 223 181 247 223 181 247 223 181 247 223 181 
247 223 181 247 223 181 247 223 181 214 182 140 
0 0 0 0 0 0 214 211 214 214 211 214 
214 211 214 214 211 214 0 0 0 0 0 0 
214 182 140 247 223 181 247 223 181 247 223 181 
247 223 181 247 223 181 247 223 181 247 223 181 
214 182 140 214 182 140 214 182 140 214 182 140 
214 182 140 214 182 140 214 182 140 214 182 140 
214 182 140 214 182 140 214 182 140 214 182 140 
214 182 140 214 182 140 247 223 181 247 223 181 
247 223 181 247 223 181 247 223 181 247 223 181 
247 223 181 214 182 140 0 0 0 0 0 0 
214 211 214 214 211 214 214 211 214 214 211 214 
0 0 0 0 0 0 214 182 140 247 223 181 
247 223 181 247 223 181 247 223 181 247 223 181 
247 223 181 214 182 140 214 182 140 214 182 140 
214 182 140 214 182 140 214 182 140 214 182 140 
214 182 140 214 182 140 214 182 140 214 182 140 
214 182 140 214 182 140 214 182 140 214 182 140 
214 182 140 247 223 181 247 223 181 247 223 181 
247 223 181 247 223 181 247 223 181 214 182 140 
0 0 0 0 0 0 214 211 214 214 211 214 
214 211 214 214 211 214 0 0 0 0 0 0 
214 182 140 247 223 181 247 223 181 247 223 181 
247 223 181 247 223 181 214 182 140 214 182 140 
214 182 140 214 182 140 214 182 140 214 182 140 
214 182 140 214 182 140 214 182 140 214 182 140 
214 182 140 214 182 140 214 182 140 214 182 140 
214 182 140 214 182 140 214 182 140 214 182 140 
247 223 181 247 223 181 247 223 181 247 223 181 
247 223 181 214 182 140 0 0 0 0 0 0 
214 211 214 214 211 214 214 211 214 214 211 214 
0 0 0 0 0 0 214 182 140 214 182 140 
247 223 181 247 223 181 247 223 181 214 182 140 
214 182 140 214 182 140 214 182 140 214 182 140 
214 182 140 214 182 140 214 182 140 214 182 140 
214 182 140 214 182 140 214 182 140 214 182 140 
214 182 140 214 182 140 214 182 140 214 182 140 
214 182 140 214 182 140 214 182 140 247 223 181 
247 223 181 247 223 181 214 182 140 214 182 140 
0 0 0 0 0 0 214 211 214 214 211 214 
214 211 214 214 211 214 0 0 0 0 0 0 
0 0 0 214 182 140 214 182 140 214 182 140 
247 223 181 214 182 140 214 182 140 214 182 140 
41 77 74 41 77 74 41 77 74 214 182 140 
214 182 140 214 182 140 132 60 33 132 60 33 
214 182 140 214 182 140 214 182 140 41 77 74 
41 77 74 41 77 74 214 182 140 214 182 140 
214 182 140 247 223 181 214 182 140 214 182 140 
214 182 140 0 0 0 0 0 0 0 0 0 
214 211 214 214 211 214 214 211 214 214 211 214 
214 211 214 0 0 0 0 0 0 0 0 0 
0 0 0 214 182 140 214 182 140 214 182 140 
214 182 140 41 77 74 41 77 74 41 77 74 
41 77 74 41 77 74 214 182 140 132 60 33 
132 60 33 132 60 33 132 60 33 214 182 140 
41 77 74 41 77 74 41 77 74 41 77 74 
41 77 74 214 182 140 214 182 140 214 182 140 
214 182 140 0 0 0 0 0 0 0 0 0 
0 0 0 214 211 214 214 211 214 214 211 214 
214 211 214 214 211 214 214 211 214 214 211 214 
214 211 214 0 0 0 0 0 0 0 0 0 
0 0 0 214 182 140 214 182 140 41 77 74 
41 77 74 41 77 74 41 77 74 41 77 74 
214 182 140 132 60 33 132 60 33 132 60 33 
132 60 33 214 182 140 41 77 74 41 77 74 
41 77 74 41 77 74 41 77 74 214 182 140 
214 182 140 0 0 0 0 0 0 0 0 0 
0 0 0 214 211 214 214 211 214 214 211 214 
214 211 214 214 211 214 214 211 214 214 211 214 
214 211 214 214 211 214 214 211 214 214 211 214 
0 0 0 0 0 0 0 0 0 0 0 0 
214 182 140 214 182 140 41 77 74 41 77 74 
41 77 74 214 182 140 214 182 140 132 60 33 
132 60 33 132 60 33 132 60 33 214 182 140 
214 182 140 41 77 74 41 77 74 41 77 74 
214 182 140 214 182 140 0 0 0 0 0 0 
0 0 0 0 0 0 214 211 214 214 211 214 
214 211 214 214 211 214 214 211 214 214 211 214 
214 211 214 214 211 214 214 211 214 214 211 214 
214 211 214 214 211 214 214 211 214 214 211 214 
0 0 0 0 0 0 214 182 140 214 182 140 
214 182 140 214 182 140 214 182 140 214 182 140 
214 182 140 132 60 33 132 60 33 132 60 33 
132 60 33 214 182 140 214 182 140 214 182 140 
214 182 140 214 182 140 214 182 140 214 182 140 
0 0 0 0 0 0 214 211 214 214 211 214 
214 211 214 214 211 214 214 211 214 214 211 214 
214 211 214 214 211 214 214 211 214 214 211 214 
214 211 214 214 211 214 214 211 214 214 211 214 
214 211 214 214 211 214 0 0 0 0 0 0 
214 182 140 214 182 140 214 182 140 214 182 140 
214 182 140 214 182 140 214 182 140 132 60 33 
132 60 33 132 60 33 132 60 33 214 182 140 
214 182 140 214 182 140 214 182 140 214 182 140 
214 182 140 214 182 140 0 0 0 0 0 0 
214 211 214 214 211 214 214 211 214 214 211 214 
214 211 214 214 211 214 214 211 214 214 211 214 
214 211 214 214 211 214 214 211 214 214 211 214 
214 211 214 214 211 214 214 211 214 214 211 214 
0 0 0 0 0 0 214 182 140 214 182 140 
214 182 140 214 182 140 214 182 140 214 182 140 
214 182 140 132 60 33 132 60 33 132 60 33 
132 60 33 214 182 140 214 182 140 214 182 140 
214 182 140 214 182 140 214 182 140 214 182 140 
0 0 0 0 0 0 214 211 214 214 211 214 
214 211 214 214 211 214 214 211 214 214 211 214 
214 211 214 214 211 214 214 211 214 214 211 214 
214 211 214 214 211 214 214 211 214 214 211 214 
214 211 214 214 211 214 0 0 0 0 0 0 
214 182 140 214 182 140 214 182 140 214 182 140 
214 182 140 214 182 140 214 182 140 214 182 140 
132 60 33 132 60 33 214 182 140 214 182 140 
214 182 140 214 182 140 214 182 140 214 182 140 
214 182 140 214 182 140 0 0 0 0 0 0 
214 211 214 214 211 214 214 211 214 214 211 214 
214 211 214 214 211 214 214 211 214 214 211 214 
214 211 214 214 211 214 214 211 214 214 211 214 
214 211 214 214 211 214 214 211 214 214 211 214 
0 0 0 0 0 0 0 0 0 214 182 140 
214 182 140 214 182 140 214 182 140 214 182 140 
214 182 140 214 182 140 214 182 140 214 182 140 
214 182 140 214 182 140 214 182 140 214 182 140 
214 182 140 214 182 140 214 182 140 0 0 0 
0 0 0 0 0 0 214 211 214 214 211 214 
214 211 214 214 211 214 214 211 214 214 211 214 
214 211 214 214 211 214 214 211 214 214 211 214 
214 211 214 214 211 214 214 211 214 214 211 214 
214 211 214 214 211 214 214 211 214 0 0 0 
0 0 0 0 0 0 0 0 0 214 182 140 
214 182 140 214 182 140 214 182 140 214 182 140 
214 182 140 214 182 140 214 182 140 214 182 140 
214 182 140 214 182 140 214 182 140 0 0 0 
0 0 0 0 0 0 0 0 0 214 211 214 
214 211 214 214 211 214 214 211 214 214 211 214 
214 211 214 214 211 214 214 211 214 214 211 214 
214 211 214 214 211 214 214 211 214 214 211 214 
214 211 214 214 211 214 214 211 214 214 211 214 
214 211 214 214 211 214 0 0 0 0 0 0 
0 0 0 0 0 0 0 0 0 0 0 0 
0 0 0 0 0 0 0 0 0 0 0 0 
0 0 0 0 0 0 0 0 0 0 0 0 
0 0 0 0 0 0 0 0 0 0 0 0 
214 211 214 214 211 214 214 211 214 214 211 214 
214 211 214 214 211 214 214 211 214 214 211 214 
214 211 214 214 211 214 214 211 214 214 211 214 
214 211 214 214 211 214 214 211 214 214 211 214 
214 211 214 214 211 214 214 211 214 214 211 214 
214 211 214 214 211 214 0 0 0 0 0 0 
0 0 0 0 0 0 0 0 0 0 0 0 
0 0 0 0 0 0 0 0 0 0 0 0 
0 0 0 0 0 0 0 0 0 0 0 0 
214 211 214 214 211 214 214 211 214 214 211 214 
214 211 214 214 211 214 214 211 214 214 211 214 
214 211 214 214 211 214 214 211 214 214 211 214 
214 211 214 214 211 214 214 211 214 214 211 214 
214 211 214 214 211 214 214 211 214 214 211 214 
214 211 214 214 211 214 214 211 214 214 211 214 
214 211 214 214 211 214 214 211 214 214 211 214 
214 211 214 214 211 214 214 211 214 214 211 214 
214 211 214 214 211 214 214 211 214 214 211 214 
214 211 214 214 211 214 214 211 214 214 211 214 
214 211 214 214 211 214 214 211 214 214 211 214 
214 211 214 214 211 214 214 211 214 214 211 214 
214 211 214 214 211 214 214 211 214 214 211 214 
214 211 214 214 211 214 214 211 214 214 211 214 
214 211 214 214 211 214 214 211 214 214 211 214 
214 211 214 214 211 214 214 211 214 214 211 214 
214 211 214 214 211 214 214 211 214 214 211 214 
214 211 214 214 211 214 214 211 214 214 211 214 
214 211 214 214 211 214 214 211 214 214 211 214 
214 211 214 214 211 214 214 211 214 214 211 214 
214 211 214 214 211 214 214 211 214 214 211 214 
214 211 214 214 211 214 214 211 214 214 211 214 
214 211 214 214 211 214 214 211 214 214 211 214 
214 211 214 214 211 214 214 211 214 214 211 214 
214 211 214 214 211 214 214 211 214 214 211 214 
214 211 214 214 211 214 214 211 214 214 211 214 
214 211 214 214 211 214 214 211 214 214 211 214 
214 211 214 214 211 214 214 211 214 214 211 214 
214 211 214 214 211 214 214 211 214 214 211 214 
214 211 214 214 211 214 214 211 214 214 211 214 
214 211 214 214 211 214 214 211 214 214 211 214 
214 211 214 214 211 214 214 211 214 214 211 214 
214 211 214 214 211 214 214 211 214 214 211 214 
214 211 214 214 211 214 214 211 214 214 211 214 
214 211 214 214 211 214 214 211 214 214 211 214 
214 211 214 214 211 214 214 211 214 214 211 214 
214 211 214 214 211 214 214 211 214 214 211 214 
214 211 214 214 211 214 214 211 214 214 211 214 
214 211 214 214 211 214 214 211 214 214 211 214 
214 211 214 214 211 214 214 211 214 214 211 214 
214 211 214 214 211 214 214 211 214 214 211 214 
214 211 214 214 211 214 214 211 214 214 211 214 
214 211 214 214 211 214 214 211 214 214 211 214 
214 211 214 214 211 214 214 211 214 214 211 214 
214 211 214 214 211 214 214 211 214 214 211 214 
214 211 214 214 211 214 214 211 214 214 211 214 
214 211 214 214 211 214 214 211 214 214 211 214 
214 211 214 214 211 214 214 211 214 214 211 214 
214 211 214 214 211 214 214 211 214 214 211 214 
214 211 214 214 211 214 214 211 214 214 211 214 
214 211 214 214 211 214 214 211 214 214 211 214 
214 211 214 214 211 214 214 211 214 214 211 214 
214 211 214 214 211 214 214 211 214 214 211 214 
214 211 214 214 211 214 214 211 214 214 211 214 
214 211 214 214 211 214 214 211 214 214 211 214 
214 211 214 214 211 214 214 211 214 214 211 214 
214 211 214 214 211 214 214 211 214 214 211 214 
214 211 214 214 211 214 214 211 214 214 211 214 
214 211 214 214 211 214 214 211 214 214 211 214 
214 211 214 214 211 214 214 211 214 214 211 214 
214 211 214 214 211 214 214 211 214 214 211 214 
214 211 214 214 211 214 214 211 214 214 211 214 
214 211 214 214 211 214 214 211 214 214 211 214 
214 211 214 214 211 214 214 211 214 214 211 214 
214 211 214 214 211 214 214 211 214 214 211 214 
214 211 214 214 211 214 214 211 214 214 211 214 
214 211 214 214 211 214 214 211 214 214 211 214 
214 211 214 214 211 214 214 211 214 214 211 214 
214 211 214 214 211 214 214 211 214 214 211 214 
214 211 214 214 211 214 214 211 214 214 211 214 
214 211 214 214 211 214 214 211 214 214 211 214 
214 211 214 214 211 214 214 211 214 214 211 214 
214 211 214 214 211 214 214 211 214 214 211 214 
214 211 214 214 211 214 214 211 214 214 211 214 
214 211 214 214 211 214 214 211 214 214 211 214 
214 211 214 214 211 214 214 211 214 214 211 214 
214 211 214 214 211 214 214 211 214 214 211 214 
214 211 214 214 211 214 214 211 214 214 211 214 
214 211 214 214 211 214 214 211 214 214 211 214 
214 211 214 214 211 214 214 211 214 214 211 214 
214 211 214 214 211 214 214 211 214 214 211 214 
214 211 214 214 211 214 214 211 214 214 211 214 
214 211 214 214 211 214 214 211 214 214 211 214 
214 211 214 214 211 214 214 211 214 214 211 214 
214 211 214 214 211 214 214 211 214 214 211 214 
214 211 214 214 211 214 214 211 214 214 211 214 
214 211 214 214 211 214 214 211 214 214 211 214 
214 211 214 214 211 214 214 211 214 214 211 214 
214 211 214 214 211 214 214 211 214 0 0 0 
214 211 214 214 211 214 214 211 214 214 211 214 
214 211 214 214 211 214 214 211 214 214 211 214 
214 211 214 214 211 214 214 211 214 214 211 214 
214 211 214 214 211 214 214 211 214 214 211 214 
214 211 214 214 211 214 214 211 214 214 211 214 
214 211 214 214 211 214 214 211 214 214 211 214 
214 211 214 214 211 214 214 211 214 214 211 214 
214 211 214 214 211 214 214 211 214 214 211 214 
214 211 214 214 211 214 0 0 0 214 211 214 
214 211 214 0 0 0 0 0 0 214 211 214 
214 211 214 214 211 214 214 211 214 214 211 214 
214 211 214 214 211 214 214 211 214 214 211 214 
214 211 214 214 211 214 214 211 214 214 211 214 
214 211 214 214 211 214 214 211 214 214 211 214 
214 211 214 214 211 214 214 211 214 214 211 214 
214 211 214 214 211 214 214 211 214 214 211 214 
214 211 214 214 211 214 214 211 214 214 211 214 
214 211 214 214 211 214 214 211 214 0 0 0 
0 0 0 214 211 214 214 211 214 214 211 214 
214 211 214 214 211 214 214 211 214 214 211 214 
214 211 214 214 211 214 214 211 214 214 211 214 
214 211 214 214 211 214 214 211 214 214 211 214 
214 211 214 214 211 214 214 211 214 214 211 214 
214 211 214 214 211 214 214 211 214 214 211 214 
214 211 214 214 211 214 214 211 214 214 211 214 
214 211 214 214 211 214 214 211 214 214 211 214 
214 211 214 214 211 214 214 211 214 214 211 214 
214 211 214 214 211 214 214 211 214 214 211 214 
