P3
#   Imported from XPM image: 
#
56 46
255
255 251 255 247 247 247 255 251 255 255 251 255 
247 247 247 255 251 255 255 251 255 247 247 247 
255 251 255 255 251 255 247 247 247 255 251 255 
255 251 255 247 247 247 255 251 255 255 251 255 
247 247 247 255 251 255 255 251 255 247 247 247 
255 251 255 255 251 255 247 247 247 255 251 255 
255 251 255 247 247 247 255 251 255 255 251 255 
247 247 247 255 251 255 255 251 255 247 247 247 
255 251 255 255 251 255 247 247 247 255 251 255 
255 251 255 247 247 247 255 251 255 255 251 255 
247 247 247 255 251 255 255 251 255 247 247 247 
255 251 255 255 251 255 247 247 247 255 251 255 
255 251 255 247 247 247 255 251 255 255 251 255 
247 247 247 255 251 255 255 251 255 182 178 182 
255 251 255 182 178 182 182 178 182 182 178 182 
182 178 182 182 178 182 182 178 182 182 178 182 
182 178 182 182 178 182 182 178 182 182 178 182 
182 178 182 182 178 182 182 178 182 182 178 182 
182 178 182 182 178 182 182 178 182 182 178 182 
182 178 182 182 178 182 182 178 182 182 178 182 
182 178 182 182 178 182 182 178 182 182 178 182 
182 178 182 182 178 182 182 178 182 182 178 182 
182 178 182 182 178 182 182 178 182 182 178 182 
182 178 182 182 178 182 182 178 182 182 178 182 
182 178 182 182 178 182 182 178 182 182 178 182 
182 178 182 182 178 182 182 178 182 182 178 182 
182 178 182 182 178 182 182 178 182 182 178 182 
182 178 182 182 178 182 182 178 182 0 0 16 
247 247 247 182 178 182 182 178 182 182 178 182 
182 178 182 182 178 182 182 178 182 182 178 182 
182 178 182 182 178 182 182 178 182 182 178 182 
182 178 182 182 178 182 182 178 182 182 178 182 
182 178 182 182 178 182 182 178 182 182 178 182 
182 178 182 182 178 182 182 178 182 182 178 182 
182 178 182 182 178 182 182 178 182 182 178 182 
182 178 182 182 178 182 182 178 182 182 178 182 
182 178 182 182 178 182 182 178 182 182 178 182 
182 178 182 182 178 182 182 178 182 182 178 182 
182 178 182 182 178 182 182 178 182 182 178 182 
182 178 182 182 178 182 182 178 182 182 178 182 
182 178 182 182 178 182 182 178 182 182 178 182 
182 178 182 182 178 182 182 178 182 0 0 16 
255 251 255 182 178 182 182 178 182 182 178 182 
182 178 182 182 178 182 182 178 182 182 178 182 
182 178 182 182 178 182 182 178 182 182 178 182 
182 178 182 182 178 182 182 178 182 182 178 182 
182 178 182 182 178 182 182 178 182 182 178 182 
182 178 182 182 178 182 182 178 182 182 178 182 
182 178 182 182 178 182 182 178 182 182 178 182 
182 178 182 182 178 182 182 178 182 182 178 182 
182 178 182 182 178 182 182 178 182 182 178 182 
182 178 182 182 178 182 182 178 182 182 178 182 
182 178 182 182 178 182 182 178 182 182 178 182 
182 178 182 182 178 182 182 178 182 182 178 182 
182 178 182 182 178 182 182 178 182 182 178 182 
182 178 182 182 178 182 182 178 182 0 0 16 
255 251 255 150 146 150 182 178 182 182 178 182 
182 178 182 150 146 150 182 178 182 182 178 182 
182 178 182 150 146 150 182 178 182 182 178 182 
182 178 182 150 146 150 182 178 182 182 178 182 
182 178 182 150 146 150 182 178 182 182 178 182 
182 178 182 150 146 150 182 178 182 182 178 182 
182 178 182 150 146 150 182 178 182 182 178 182 
182 178 182 150 146 150 182 178 182 182 178 182 
182 178 182 150 146 150 182 178 182 182 178 182 
182 178 182 150 146 150 182 178 182 182 178 182 
182 178 182 150 146 150 182 178 182 182 178 182 
182 178 182 150 146 150 182 178 182 182 178 182 
182 178 182 150 146 150 182 178 182 182 178 182 
182 178 182 166 162 166 182 178 182 0 0 16 
247 247 247 182 178 182 182 178 182 182 178 182 
182 178 182 182 178 182 182 178 182 182 178 182 
182 178 182 182 178 182 182 178 182 182 178 182 
182 178 182 182 178 182 182 178 182 182 178 182 
182 178 182 182 178 182 182 178 182 182 178 182 
182 178 182 182 178 182 182 178 182 182 178 182 
182 178 182 182 178 182 182 178 182 182 178 182 
182 178 182 182 178 182 182 178 182 182 178 182 
182 178 182 182 178 182 182 178 182 182 178 182 
182 178 182 182 178 182 182 178 182 182 178 182 
182 178 182 182 178 182 182 178 182 182 178 182 
182 178 182 182 178 182 182 178 182 182 178 182 
182 178 182 182 178 182 182 178 182 182 178 182 
182 178 182 182 178 182 182 178 182 0 0 16 
255 251 255 166 162 166 182 178 182 166 162 166 
182 178 182 166 162 166 182 178 182 166 158 166 
182 178 182 166 162 166 182 178 182 166 162 166 
182 178 182 166 158 166 182 178 182 166 162 166 
182 178 182 166 162 166 182 178 182 166 158 166 
182 178 182 166 162 166 182 178 182 166 162 166 
182 178 182 166 158 166 182 178 182 166 162 166 
182 178 182 166 162 166 182 178 182 166 158 166 
182 178 182 166 162 166 182 178 182 166 162 166 
182 178 182 166 158 166 182 178 182 166 162 166 
182 178 182 166 162 166 182 178 182 166 158 166 
182 178 182 166 162 166 182 178 182 166 162 166 
182 178 182 166 162 166 182 178 182 166 162 166 
182 178 182 166 162 166 182 178 182 0 0 16 
247 247 247 182 178 182 182 178 182 182 178 182 
182 178 182 182 178 182 166 162 166 182 178 182 
182 178 182 182 178 182 182 178 182 182 178 182 
182 178 182 182 178 182 166 162 166 182 178 182 
182 178 182 182 178 182 182 178 182 182 178 182 
182 178 182 182 178 182 166 162 166 182 178 182 
182 178 182 182 178 182 182 178 182 182 178 182 
182 178 182 182 178 182 166 162 166 182 178 182 
182 178 182 182 178 182 182 178 182 182 178 182 
182 178 182 182 178 182 166 162 166 182 178 182 
182 178 182 182 178 182 182 178 182 182 178 182 
182 178 182 182 178 182 166 162 166 182 178 182 
182 178 182 182 178 182 182 178 182 182 178 182 
182 178 182 182 178 182 166 162 166 0 0 16 
255 251 255 166 162 166 182 178 182 166 158 166 
182 178 182 166 162 166 182 178 182 166 162 166 
182 178 182 166 162 166 182 178 182 166 162 166 
182 178 182 166 162 166 182 178 182 166 162 166 
182 178 182 166 162 166 182 178 182 166 162 166 
182 178 182 166 162 166 182 178 182 166 162 166 
182 178 182 166 162 166 182 178 182 166 162 166 
182 178 182 166 162 166 182 178 182 166 162 166 
182 178 182 166 162 166 182 178 182 166 162 166 
182 178 182 166 162 166 182 178 182 166 162 166 
182 178 182 166 162 166 182 178 182 166 162 166 
182 178 182 166 162 166 182 178 182 166 162 166 
182 178 182 166 158 166 182 178 182 166 162 166 
182 178 182 166 162 166 182 178 182 0 0 16 
247 247 247 182 178 182 182 178 182 182 178 182 
166 162 166 182 178 182 182 178 182 182 178 182 
166 162 166 182 178 182 182 178 182 182 178 182 
166 162 166 182 178 182 182 178 182 182 178 182 
166 162 166 182 178 182 182 178 182 182 178 182 
166 162 166 182 178 182 182 178 182 182 178 182 
166 162 166 182 178 182 182 178 182 182 178 182 
166 162 166 182 178 182 182 178 182 182 178 182 
166 162 166 182 178 182 182 178 182 182 178 182 
166 162 166 182 178 182 182 178 182 182 178 182 
166 162 166 182 178 182 182 178 182 182 178 182 
166 162 166 182 178 182 182 178 182 182 178 182 
166 162 166 182 178 182 182 178 182 182 178 182 
166 162 166 182 178 182 182 178 182 0 0 16 
255 251 255 166 162 166 182 178 182 166 162 166 
182 178 182 166 162 166 182 178 182 166 162 166 
182 178 182 166 162 166 182 178 182 166 162 166 
182 178 182 166 162 166 182 178 182 166 162 166 
182 178 182 166 162 166 182 178 182 166 162 166 
182 178 182 166 162 166 182 178 182 166 162 166 
182 178 182 166 162 166 182 178 182 166 162 166 
182 178 182 166 162 166 182 178 182 166 162 166 
182 178 182 166 162 166 182 178 182 166 162 166 
182 178 182 166 162 166 182 178 182 166 162 166 
182 178 182 166 162 166 182 178 182 166 162 166 
182 178 182 166 162 166 182 178 182 166 162 166 
182 178 182 166 162 166 182 178 182 166 162 166 
182 178 182 166 162 166 182 178 182 0 0 16 
247 247 247 182 178 182 166 162 166 182 178 182 
182 178 182 182 178 182 166 162 166 182 178 182 
166 162 166 182 178 182 166 162 166 182 178 182 
182 178 182 182 178 182 166 162 166 182 178 182 
166 162 166 182 178 182 166 162 166 182 178 182 
182 174 182 40 89 73 0 0 0 0 0 0 
0 0 0 182 178 182 166 162 166 182 178 182 
182 178 182 182 174 182 40 89 73 0 0 0 
0 0 0 0 0 0 166 162 166 182 178 182 
182 178 182 182 178 182 166 162 166 182 178 182 
166 162 166 182 178 182 166 162 166 182 178 182 
182 178 182 182 178 182 166 162 166 182 178 182 
166 162 166 182 178 182 166 162 166 182 178 182 
182 178 182 182 178 182 166 162 166 0 0 16 
255 251 255 150 146 150 182 178 182 166 162 166 
182 178 182 166 162 166 182 178 182 166 162 166 
182 178 182 166 162 166 182 178 182 166 162 166 
182 178 182 166 162 166 182 178 182 166 162 166 
182 178 182 166 162 166 182 178 182 166 162 166 
40 89 73 0 0 0 182 178 182 166 162 166 
182 178 182 166 162 166 182 178 182 166 162 166 
182 178 182 166 158 166 182 174 182 166 158 166 
182 178 182 0 0 0 40 89 73 166 158 166 
182 178 182 166 162 166 182 178 182 166 162 166 
182 178 182 166 162 166 182 178 182 166 162 166 
182 178 182 166 162 166 182 178 182 166 162 166 
182 178 182 166 162 166 182 178 182 166 162 166 
182 178 182 166 162 166 182 178 182 0 0 16 
247 247 247 182 178 182 166 162 166 182 178 182 
166 162 166 182 178 182 166 162 166 182 178 182 
166 162 166 182 178 182 166 162 166 182 178 182 
166 162 166 182 178 182 166 162 166 182 178 182 
166 162 166 182 174 182 166 158 166 40 89 73 
166 158 166 182 178 182 166 162 166 182 178 182 
166 162 166 182 178 182 166 162 166 182 178 182 
166 162 166 182 178 182 166 162 166 182 178 182 
166 162 166 182 178 182 0 0 0 0 0 0 
166 162 166 182 178 182 166 162 166 182 178 182 
166 162 166 182 178 182 166 162 166 182 178 182 
166 162 166 182 178 182 166 162 166 182 178 182 
166 162 166 182 178 182 166 162 166 182 178 182 
166 162 166 182 178 182 166 162 166 0 0 16 
255 251 255 166 162 166 182 178 182 166 162 166 
182 178 182 166 162 166 182 178 182 166 162 166 
182 178 182 166 162 166 182 178 182 166 162 166 
182 178 182 166 162 166 182 178 182 166 162 166 
182 178 182 166 162 166 182 174 182 0 0 0 
0 0 0 0 0 0 0 0 0 0 0 0 
0 0 0 166 162 166 182 178 182 166 162 166 
182 178 182 0 0 0 0 0 0 0 0 0 
0 0 0 0 0 0 0 0 0 0 0 0 
182 178 182 166 162 166 182 178 182 166 162 166 
182 178 182 166 162 166 182 178 182 166 162 166 
182 178 182 166 162 166 182 178 182 166 162 166 
182 178 182 166 162 166 182 178 182 166 162 166 
182 178 182 166 162 166 182 178 182 0 0 16 
247 247 247 166 162 166 166 162 166 182 178 182 
166 162 166 166 162 166 166 162 166 182 178 182 
166 162 166 166 162 166 166 162 166 182 178 182 
166 162 166 166 162 166 166 162 166 182 178 182 
166 162 166 166 162 166 166 162 166 0 0 0 
255 251 255 255 251 255 247 247 247 255 251 255 
113 130 150 0 0 0 166 162 166 182 178 182 
0 0 0 247 247 247 255 251 255 255 251 255 
247 247 247 223 219 231 113 130 150 0 0 0 
166 162 166 166 162 166 166 162 166 182 178 182 
166 162 166 166 162 166 166 162 166 182 178 182 
166 162 166 166 162 166 166 162 166 182 178 182 
166 162 166 166 162 166 166 162 166 182 178 182 
166 162 166 166 162 166 166 162 166 0 0 16 
255 251 255 166 162 166 182 178 182 166 162 166 
182 178 182 166 162 166 182 178 182 166 162 166 
182 178 182 166 162 166 182 178 182 166 162 166 
182 178 182 166 162 166 182 178 182 166 162 166 
182 178 182 166 162 166 0 0 0 223 219 231 
247 247 247 255 251 255 255 251 255 247 247 247 
223 219 231 113 130 150 0 0 0 0 0 0 
223 219 231 255 251 255 247 247 247 255 251 255 
255 251 255 223 219 231 223 219 231 0 0 0 
182 178 182 166 162 166 182 178 182 166 162 166 
182 178 182 166 162 166 182 178 182 166 158 166 
182 178 182 166 162 166 182 178 182 166 162 166 
182 178 182 166 162 166 182 178 182 166 162 166 
182 178 182 166 162 166 182 178 182 0 0 16 
247 247 247 166 162 166 166 162 166 166 162 166 
166 162 166 166 162 166 166 162 166 166 162 166 
166 162 166 166 162 166 166 162 166 166 162 166 
166 162 166 166 162 166 166 162 166 166 162 166 
166 162 166 0 0 0 0 0 0 247 247 247 
255 251 255 247 247 247 247 247 247 255 251 255 
223 219 231 166 162 166 0 0 0 0 0 0 
255 251 255 247 247 247 255 251 255 247 247 247 
247 247 247 247 247 247 223 219 231 0 0 0 
0 0 0 166 162 166 166 162 166 166 162 166 
166 162 166 166 162 166 166 162 166 166 162 166 
166 162 166 166 162 166 166 162 166 166 162 166 
166 162 166 166 162 166 166 162 166 166 162 166 
166 162 166 166 162 166 166 162 166 0 0 16 
255 251 255 166 162 166 182 178 182 166 162 166 
182 178 182 166 162 166 182 178 182 166 162 166 
182 178 182 166 162 166 182 178 182 166 162 166 
182 178 182 166 162 166 182 178 182 166 162 166 
182 178 182 0 0 0 223 219 231 255 251 255 
247 247 247 0 0 0 0 0 0 255 251 255 
223 219 231 166 162 166 113 130 150 0 0 0 
255 251 255 247 247 247 0 0 0 0 0 0 
255 251 255 247 247 247 223 219 231 121 134 142 
0 0 0 166 162 166 182 178 182 166 162 166 
182 178 182 166 162 166 182 178 182 166 162 166 
182 178 182 166 162 166 182 178 182 166 162 166 
182 178 182 166 162 166 182 178 182 166 162 166 
182 178 182 166 162 166 182 178 182 0 0 16 
247 247 247 166 162 166 166 162 166 166 162 166 
166 162 166 166 162 166 166 162 166 166 162 166 
166 162 166 166 162 166 166 162 166 166 162 166 
166 162 166 166 162 166 166 162 166 166 162 166 
166 162 166 0 0 0 223 219 231 247 247 247 
255 251 255 0 0 0 0 0 0 247 247 247 
166 162 166 166 162 166 113 130 150 0 0 0 
255 251 255 255 251 255 0 0 0 0 0 0 
247 247 247 223 219 231 166 162 166 113 130 150 
0 0 0 166 162 166 166 162 166 166 162 166 
166 162 166 166 162 166 166 162 166 166 162 166 
166 162 166 166 162 166 166 162 166 166 162 166 
166 162 166 166 162 166 166 162 166 166 162 166 
166 162 166 166 162 166 166 162 166 0 0 16 
255 251 255 166 162 166 166 162 166 166 162 166 
182 178 182 166 162 166 166 162 166 166 162 166 
182 178 182 166 162 166 166 162 166 166 162 166 
182 178 182 166 162 166 166 162 166 166 162 166 
182 178 182 0 0 0 0 0 0 223 219 231 
255 251 255 255 251 255 223 219 231 223 219 231 
174 174 182 121 134 142 0 0 0 0 0 0 
223 219 231 223 219 231 255 251 255 255 251 255 
223 219 231 174 170 142 166 162 166 0 0 0 
0 0 0 166 162 166 166 162 166 166 162 166 
182 178 182 166 162 166 166 162 166 166 162 166 
182 178 182 166 162 166 166 162 166 166 162 166 
182 178 182 166 162 166 166 162 166 166 162 166 
182 178 182 166 162 166 166 162 166 0 0 16 
247 247 247 166 162 166 166 162 166 166 162 166 
166 162 166 166 162 166 166 162 166 166 162 166 
166 162 166 166 162 166 166 162 166 166 162 166 
166 162 166 166 162 166 166 162 166 166 162 166 
166 162 166 166 162 166 0 0 0 121 134 142 
223 219 231 223 219 231 166 162 166 166 162 166 
113 130 150 40 89 73 0 0 0 0 0 0 
113 130 150 174 170 142 223 219 231 223 219 231 
166 162 166 158 166 174 113 130 150 0 0 0 
166 162 166 166 162 166 166 162 166 166 162 166 
166 162 166 166 162 166 166 162 166 166 162 166 
166 162 166 166 162 166 166 162 166 166 162 166 
166 162 166 166 162 166 166 162 166 166 162 166 
166 162 166 166 162 166 166 162 166 0 0 16 
255 251 255 150 146 150 166 162 166 166 162 166 
166 162 166 166 162 166 166 162 166 166 162 166 
166 162 166 166 162 166 166 162 166 166 162 166 
166 162 166 166 162 166 166 162 166 166 162 166 
166 162 166 166 162 166 166 162 166 0 0 0 
8 4 8 121 134 142 113 130 150 40 89 73 
0 0 0 0 0 0 166 162 166 166 162 166 
0 0 0 0 0 0 0 0 0 121 134 142 
113 130 150 0 0 0 0 0 0 0 0 0 
166 162 166 166 162 166 166 162 166 166 162 166 
166 162 166 166 162 166 166 162 166 166 162 166 
166 162 166 166 162 166 166 162 166 166 162 166 
166 162 166 166 162 166 166 162 166 166 162 166 
166 162 166 166 162 166 166 162 166 0 0 16 
247 247 247 166 162 166 166 162 166 166 162 166 
166 162 166 166 162 166 166 162 166 166 162 166 
166 162 166 166 162 166 166 162 166 166 162 166 
166 162 166 166 162 166 166 162 166 166 162 166 
166 162 166 166 162 166 166 162 166 166 162 166 
166 162 166 0 0 0 0 0 0 0 0 0 
166 162 166 166 162 166 166 162 166 166 162 166 
166 162 166 166 162 166 0 0 0 0 0 0 
0 0 0 0 0 0 166 162 166 166 162 166 
166 162 166 166 162 166 166 162 166 166 162 166 
166 162 166 166 162 166 166 162 166 166 162 166 
166 162 166 166 162 166 166 162 166 166 162 166 
166 162 166 166 162 166 166 162 166 166 162 166 
166 162 166 166 162 166 166 162 166 0 0 16 
255 251 255 150 146 150 166 162 166 166 162 166 
166 162 166 150 146 150 166 162 166 166 162 166 
166 162 166 150 146 150 166 162 166 166 162 166 
166 162 166 150 146 150 166 162 166 166 162 166 
166 162 166 150 146 150 166 162 166 166 162 166 
166 162 166 150 146 150 166 162 166 166 162 166 
166 162 166 150 146 150 166 162 166 166 162 166 
166 162 166 150 146 150 166 162 166 166 162 166 
166 162 166 150 146 150 166 162 166 166 162 166 
166 162 166 150 146 150 166 162 166 166 162 166 
166 162 166 150 146 150 166 162 166 166 162 166 
166 162 166 150 146 150 166 162 166 166 162 166 
166 162 166 150 146 150 166 162 166 166 162 166 
166 162 166 150 146 150 166 162 166 0 0 16 
247 247 247 166 162 166 166 162 166 166 162 166 
166 162 166 166 162 166 166 162 166 166 162 166 
166 162 166 166 162 166 166 162 166 166 162 166 
166 162 166 166 162 166 166 162 166 166 162 166 
166 162 166 166 162 166 166 162 166 166 162 166 
0 0 0 0 0 0 0 0 0 0 0 0 
0 0 0 0 0 0 0 0 0 0 0 0 
0 0 0 0 0 0 0 0 0 0 0 0 
0 0 0 0 0 0 0 0 0 0 0 0 
166 162 166 166 162 166 166 162 166 166 162 166 
166 162 166 166 162 166 166 162 166 166 162 166 
166 162 166 166 162 166 166 162 166 166 162 166 
166 162 166 166 162 166 166 162 166 166 162 166 
166 162 166 166 162 166 166 162 166 0 0 16 
255 251 255 166 162 166 166 162 166 150 146 150 
166 162 166 150 146 150 166 162 166 150 146 150 
166 162 166 166 162 166 166 162 166 150 146 150 
166 162 166 150 146 150 166 162 166 150 146 150 
166 162 166 0 0 0 0 0 0 0 0 0 
255 251 255 255 251 255 255 251 255 40 89 73 
247 247 247 255 251 255 255 251 255 40 89 73 
247 247 247 255 251 255 255 251 255 40 89 73 
247 247 247 255 251 255 255 251 255 0 0 0 
0 0 0 150 146 150 166 162 166 150 146 150 
166 162 166 166 162 166 166 162 166 150 146 150 
166 162 166 150 146 150 166 162 166 150 146 150 
166 162 166 166 162 166 166 162 166 150 146 150 
166 162 166 150 146 150 166 162 166 0 0 16 
247 247 247 166 162 166 166 162 166 166 162 166 
166 162 166 166 162 166 166 162 166 166 162 166 
166 162 166 166 162 166 166 162 166 166 162 166 
166 162 166 166 162 166 166 162 166 166 162 166 
0 0 0 0 0 0 247 247 247 40 89 73 
255 251 255 166 158 166 166 158 166 40 89 73 
223 219 231 166 158 166 166 158 166 40 89 73 
247 247 247 223 219 231 166 158 166 40 89 73 
255 251 255 166 162 166 166 158 166 40 89 73 
255 251 255 0 0 0 166 162 166 166 162 166 
166 162 166 166 162 166 166 162 166 166 162 166 
166 162 166 166 162 166 166 162 166 166 162 166 
166 162 166 166 162 166 166 162 166 166 162 166 
166 162 166 166 162 166 166 162 166 0 0 16 
255 251 255 150 146 150 166 162 166 150 146 150 
166 162 166 150 146 150 166 162 166 150 146 150 
166 162 166 150 146 150 166 162 166 150 146 150 
166 162 166 150 146 150 166 162 166 150 146 150 
0 0 0 40 89 73 247 247 247 40 89 73 
40 89 73 40 89 73 40 89 73 48 52 48 
40 89 73 40 89 73 40 89 73 48 52 48 
40 89 73 40 89 73 40 89 73 48 52 48 
40 89 73 40 89 73 105 113 142 40 89 73 
166 158 166 40 89 73 0 0 0 150 146 150 
166 162 166 150 146 150 166 162 166 150 146 150 
166 162 166 150 146 150 166 162 166 150 146 150 
166 162 166 150 146 150 166 162 166 150 146 150 
166 162 166 150 146 150 166 162 166 0 0 16 
247 247 247 166 162 166 166 162 166 166 162 166 
166 162 166 166 162 166 166 162 166 166 162 166 
166 162 166 166 162 166 166 162 166 166 162 166 
166 162 166 166 162 166 166 162 166 166 162 166 
0 0 0 40 89 73 40 89 73 40 89 73 
247 243 247 247 243 247 223 219 231 40 89 73 
247 243 247 247 243 247 247 243 247 40 89 73 
247 243 247 247 243 247 247 243 247 40 89 73 
247 243 247 40 89 73 40 89 73 40 89 73 
105 113 142 40 89 73 0 0 0 166 162 166 
166 162 166 166 162 166 166 162 166 166 162 166 
166 162 166 166 162 166 166 162 166 166 162 166 
166 162 166 166 162 166 166 162 166 166 162 166 
166 162 166 166 162 166 166 162 166 0 0 16 
255 251 255 150 146 150 166 162 166 150 146 150 
166 162 166 150 146 150 166 162 166 150 146 150 
166 162 166 150 146 150 166 162 166 150 146 150 
166 162 166 150 146 150 166 162 166 150 146 150 
0 0 0 40 89 73 247 243 247 48 52 48 
247 243 247 223 219 231 223 219 231 40 89 73 
223 219 231 223 219 231 166 158 166 40 89 73 
247 243 247 223 219 231 166 158 166 40 89 73 
247 243 247 223 219 231 247 243 247 40 89 73 
40 89 73 40 89 73 0 0 0 150 146 150 
166 162 166 150 146 150 166 162 166 150 146 150 
166 162 166 150 146 150 166 162 166 150 146 150 
166 162 166 150 146 150 166 162 166 150 146 150 
166 162 166 150 146 150 166 162 166 0 0 16 
247 247 247 166 162 166 150 146 150 166 162 166 
166 162 166 166 162 166 150 146 150 166 162 166 
166 162 166 166 162 166 150 146 150 166 162 166 
166 162 166 166 162 166 150 146 150 166 162 166 
0 0 0 40 89 73 247 243 247 40 89 73 
255 251 255 166 158 166 134 134 142 40 89 73 
223 219 231 166 162 166 0 0 0 0 0 0 
0 0 0 0 0 0 105 113 142 40 89 73 
247 243 247 166 158 166 158 150 158 48 52 48 
207 207 215 40 89 73 0 0 0 166 162 166 
166 162 166 166 162 166 150 146 150 166 162 166 
166 162 166 166 162 166 150 146 150 166 162 166 
166 162 166 166 162 166 150 146 150 166 162 166 
166 162 166 166 162 166 150 146 150 0 0 16 
255 251 255 150 146 150 166 162 166 150 146 150 
166 162 166 150 146 150 166 162 166 150 146 150 
166 162 166 150 146 150 166 162 166 150 146 150 
166 162 166 150 146 150 166 162 166 150 146 150 
0 0 0 40 89 73 247 243 247 40 89 73 
247 243 247 150 146 150 105 113 142 0 0 0 
0 0 0 0 0 0 166 162 166 150 146 150 
166 162 166 150 146 150 8 4 8 0 0 0 
0 0 0 150 146 150 166 158 166 40 89 73 
223 219 231 40 89 73 0 0 0 150 146 150 
166 162 166 150 146 150 166 162 166 150 146 150 
166 162 166 150 146 150 166 162 166 150 146 150 
166 162 166 150 146 150 166 162 166 150 146 150 
166 162 166 150 146 150 166 162 166 0 0 16 
247 247 247 166 162 166 150 146 150 166 162 166 
150 146 150 166 162 166 150 146 150 166 162 166 
150 146 150 166 162 166 150 146 150 166 162 166 
150 146 150 166 162 166 150 146 150 166 162 166 
150 146 150 0 0 0 0 0 0 40 89 73 
247 247 247 174 166 174 0 0 0 0 0 0 
150 146 150 166 162 166 150 146 150 166 162 166 
150 146 150 166 162 166 150 146 150 166 162 166 
150 146 150 8 4 8 105 113 142 40 89 73 
0 0 0 0 0 0 150 146 150 166 162 166 
150 146 150 166 162 166 150 146 150 166 162 166 
150 146 150 166 162 166 150 146 150 166 162 166 
150 146 150 166 162 166 150 146 150 166 162 166 
150 146 150 166 162 166 150 146 150 0 0 16 
255 251 255 150 146 150 166 162 166 150 146 150 
166 162 166 150 146 150 166 162 166 150 146 150 
166 162 166 150 146 150 166 162 166 150 146 150 
166 162 166 150 146 150 166 162 166 150 146 150 
166 162 166 150 146 150 166 162 166 0 0 0 
0 0 0 0 0 0 166 162 166 150 146 150 
166 162 166 150 146 150 166 162 166 150 146 150 
166 162 166 150 146 150 166 162 166 150 146 150 
166 158 166 150 146 150 8 4 8 8 4 8 
166 158 166 150 146 150 166 162 166 150 146 150 
166 162 166 150 146 150 166 162 166 150 146 150 
166 162 166 150 146 150 166 162 166 150 146 150 
166 162 166 150 146 150 166 162 166 150 146 150 
166 162 166 150 146 150 166 162 166 0 0 16 
247 247 247 150 146 150 150 146 150 166 162 166 
150 146 150 150 146 150 150 146 150 166 162 166 
150 146 150 150 146 150 150 146 150 166 162 166 
150 146 150 150 146 150 150 146 150 166 162 166 
150 146 150 150 146 150 150 146 150 166 162 166 
150 146 150 150 146 150 150 146 150 166 162 166 
150 146 150 150 146 150 150 146 150 166 162 166 
150 146 150 150 146 150 150 146 150 166 162 166 
150 146 150 150 146 150 150 146 150 166 158 166 
150 146 150 150 146 150 150 146 150 166 162 166 
150 146 150 150 146 150 150 146 150 166 162 166 
150 146 150 150 146 150 150 146 150 166 162 166 
150 146 150 150 146 150 150 146 150 166 162 166 
150 146 150 150 146 150 150 146 150 0 0 16 
255 251 255 150 146 150 166 162 166 150 146 150 
166 162 166 150 146 150 166 162 166 150 146 150 
166 162 166 150 146 150 166 162 166 150 146 150 
166 162 166 150 146 150 166 162 166 150 146 150 
166 162 166 150 146 150 166 162 166 150 146 150 
166 162 166 150 146 150 166 162 166 150 146 150 
166 162 166 150 146 150 166 162 166 150 146 150 
166 162 166 150 146 150 166 162 166 150 146 150 
166 162 166 150 146 150 166 162 166 150 146 150 
166 162 166 150 146 150 166 162 166 150 146 150 
166 162 166 150 146 150 166 162 166 150 146 150 
166 162 166 150 146 150 166 162 166 150 146 150 
166 162 166 150 146 150 166 162 166 150 146 150 
166 162 166 150 146 150 166 162 166 0 0 16 
247 247 247 150 146 150 150 146 150 150 146 150 
150 146 150 150 146 150 150 146 150 150 146 150 
150 146 150 150 146 150 150 146 150 150 146 150 
150 146 150 150 146 150 150 146 150 150 146 150 
150 146 150 150 146 150 150 146 150 150 146 150 
150 146 150 150 146 150 150 146 150 150 146 150 
150 146 150 150 146 150 150 146 150 150 146 150 
150 146 150 150 146 150 150 146 150 150 146 150 
150 146 150 150 146 150 150 146 150 150 146 150 
150 146 150 150 146 150 150 146 150 150 146 150 
150 146 150 150 146 150 150 146 150 150 146 150 
150 146 150 150 146 150 150 146 150 150 146 150 
150 146 150 150 146 150 150 146 150 150 146 150 
150 146 150 150 146 150 150 146 150 0 0 16 
255 251 255 150 146 150 166 162 166 150 146 150 
166 162 166 150 146 150 166 162 166 150 146 150 
166 162 166 150 146 150 166 162 166 150 146 150 
166 162 166 150 146 150 166 162 166 150 146 150 
166 162 166 150 146 150 166 162 166 150 146 150 
166 162 166 150 146 150 166 162 166 150 146 150 
166 162 166 150 146 150 166 162 166 150 146 150 
166 162 166 150 146 150 166 162 166 150 146 150 
166 162 166 150 146 150 166 162 166 150 146 150 
166 162 166 150 146 150 166 162 166 150 146 150 
166 162 166 150 146 150 166 162 166 150 146 150 
166 162 166 150 146 150 166 162 166 150 146 150 
166 162 166 150 146 150 166 162 166 150 146 150 
166 162 166 150 146 150 166 162 166 0 0 16 
247 247 247 150 146 150 150 146 150 150 146 150 
150 146 150 150 146 150 150 146 150 150 146 150 
150 146 150 150 146 150 150 146 150 150 146 150 
150 146 150 150 146 150 150 146 150 150 146 150 
150 146 150 150 146 150 150 146 150 150 146 150 
150 146 150 150 146 150 150 146 150 150 146 150 
150 146 150 150 146 150 150 146 150 150 146 150 
150 146 150 150 146 150 150 146 150 150 146 150 
150 146 150 150 146 150 150 146 150 150 146 150 
150 146 150 150 146 150 150 146 150 150 146 150 
150 146 150 150 146 150 150 146 150 150 146 150 
150 146 150 150 146 150 150 146 150 150 146 150 
150 146 150 150 146 150 150 146 150 150 146 150 
150 146 150 150 146 150 150 146 150 0 0 16 
255 251 255 150 146 150 150 146 150 150 146 150 
166 162 166 150 146 150 150 146 150 150 146 150 
166 162 166 150 146 150 150 146 150 150 146 150 
166 162 166 150 146 150 150 146 150 150 146 150 
166 162 166 150 146 150 150 146 150 150 146 150 
166 162 166 150 146 150 150 146 150 150 146 150 
166 162 166 150 146 150 150 146 150 150 146 150 
166 162 166 150 146 150 150 146 150 150 146 150 
166 162 166 150 146 150 150 146 150 150 146 150 
166 162 166 150 146 150 150 146 150 150 146 150 
166 162 166 150 146 150 150 146 150 150 146 150 
166 162 166 150 146 150 150 146 150 150 146 150 
166 162 166 150 146 150 150 146 150 150 146 150 
166 162 166 150 146 150 150 146 150 0 0 16 
247 247 247 150 146 150 150 146 150 150 146 150 
150 146 150 150 146 150 150 146 150 150 146 150 
150 146 150 150 146 150 150 146 150 150 146 150 
150 146 150 150 146 150 150 146 150 150 146 150 
150 146 150 150 146 150 150 146 150 150 146 150 
150 146 150 150 146 150 150 146 150 150 146 150 
150 146 150 150 146 150 150 146 150 150 146 150 
150 146 150 150 146 150 150 146 150 150 146 150 
150 146 150 150 146 150 150 146 150 150 146 150 
150 146 150 150 146 150 150 146 150 150 146 150 
150 146 150 150 146 150 150 146 150 150 146 150 
150 146 150 150 146 150 150 146 150 150 146 150 
150 146 150 150 146 150 150 146 150 150 146 150 
150 146 150 150 146 150 150 146 150 0 0 16 
255 251 255 150 146 150 150 146 150 150 146 150 
150 146 150 150 146 150 150 146 150 150 146 150 
150 146 150 150 146 150 166 162 166 150 146 150 
150 146 150 150 146 150 150 146 150 150 146 150 
150 146 150 150 146 150 166 162 166 150 146 150 
150 146 150 150 146 150 150 146 150 150 146 150 
150 146 150 150 146 150 166 162 166 150 146 150 
150 146 150 150 146 150 150 146 150 150 146 150 
150 146 150 150 146 150 166 162 166 150 146 150 
150 146 150 150 146 150 150 146 150 150 146 150 
150 146 150 150 146 150 166 162 166 150 146 150 
150 146 150 150 146 150 150 146 150 150 146 150 
150 146 150 150 146 150 166 162 166 150 146 150 
150 146 150 150 146 150 150 146 150 0 0 16 
247 247 247 150 146 150 150 146 150 150 146 150 
150 146 150 150 146 150 150 146 150 150 146 150 
150 146 150 150 146 150 150 146 150 150 146 150 
150 146 150 150 146 150 150 146 150 150 146 150 
150 146 150 150 146 150 150 146 150 150 146 150 
150 146 150 150 146 150 150 146 150 150 146 150 
150 146 150 150 146 150 150 146 150 150 146 150 
150 146 150 150 146 150 150 146 150 150 146 150 
150 146 150 150 146 150 150 146 150 150 146 150 
150 146 150 150 146 150 150 146 150 150 146 150 
150 146 150 150 146 150 150 146 150 150 146 150 
150 146 150 150 146 150 150 146 150 150 146 150 
150 146 150 150 146 150 150 146 150 150 146 150 
150 146 150 150 146 150 150 146 150 0 0 16 
255 251 255 150 146 150 150 146 150 150 146 150 
150 146 150 150 146 150 150 146 150 150 146 150 
150 146 150 150 146 150 150 146 150 150 146 150 
150 146 150 150 146 150 150 146 150 150 146 150 
150 146 150 150 146 150 150 146 150 150 146 150 
150 146 150 150 146 150 150 146 150 150 146 150 
150 146 150 150 146 150 150 146 150 150 146 150 
150 146 150 150 146 150 150 146 150 150 146 150 
150 146 150 150 146 150 150 146 150 150 146 150 
150 146 150 150 146 150 150 146 150 150 146 150 
150 146 150 150 146 150 150 146 150 150 146 150 
150 146 150 150 146 150 150 146 150 150 146 150 
150 146 150 150 146 150 150 146 150 150 146 150 
150 146 150 150 146 150 150 146 150 0 0 16 
182 178 182 0 0 16 0 0 16 0 0 16 
0 0 16 0 0 16 0 0 16 0 0 16 
0 0 16 0 0 16 0 0 16 0 0 16 
0 0 16 0 0 16 0 0 16 0 0 16 
0 0 16 0 0 16 0 0 16 0 0 16 
0 0 16 0 0 16 0 0 16 0 0 16 
0 0 16 0 0 16 0 0 16 0 0 16 
0 0 16 0 0 16 0 0 16 0 0 16 
0 0 16 0 0 16 0 0 16 0 0 16 
0 0 16 0 0 16 0 0 16 0 0 16 
0 0 16 0 0 16 0 0 16 0 0 16 
0 0 16 0 0 16 0 0 16 0 0 16 
0 0 16 0 0 16 0 0 16 0 0 16 
0 0 16 0 0 16 0 0 16 0 0 16 
