P3
#   Imported from XPM image: face_mon_dead_3d.xpm
#
56 46
255
247 243 247 247 243 247 247 243 247 247 243 247 
247 243 247 247 243 247 247 243 247 247 243 247 
247 243 247 247 243 247 247 243 247 247 243 247 
247 243 247 247 243 247 247 243 247 247 243 247 
247 243 247 247 243 247 247 243 247 247 243 247 
247 243 247 247 243 247 247 243 247 247 243 247 
247 243 247 247 243 247 247 243 247 247 243 247 
247 243 247 247 243 247 247 243 247 247 243 247 
247 243 247 247 243 247 247 243 247 247 243 247 
247 243 247 247 243 247 247 243 247 247 243 247 
247 243 247 247 243 247 247 243 247 247 243 247 
247 243 247 247 243 247 247 243 247 247 243 247 
247 243 247 247 243 247 247 243 247 247 243 247 
247 243 247 247 243 247 247 243 247 181 178 181 
247 243 247 181 178 181 181 178 181 181 178 181 
181 178 181 181 178 181 181 178 181 181 178 181 
181 178 181 181 178 181 181 178 181 181 178 181 
181 178 181 181 178 181 181 178 181 181 178 181 
181 178 181 181 178 181 181 178 181 181 178 181 
181 178 181 181 178 181 181 178 181 181 178 181 
181 178 181 181 178 181 181 178 181 181 178 181 
181 178 181 181 178 181 181 178 181 181 178 181 
181 178 181 181 178 181 181 178 181 181 178 181 
181 178 181 181 178 181 181 178 181 181 178 181 
181 178 181 181 178 181 181 178 181 181 178 181 
181 178 181 181 178 181 181 178 181 181 178 181 
181 178 181 181 178 181 181 178 181 181 178 181 
181 178 181 181 178 181 181 178 181 0 0 16 
247 243 247 181 178 181 181 178 181 181 178 181 
181 178 181 181 178 181 181 178 181 181 178 181 
181 178 181 181 178 181 181 178 181 181 178 181 
181 178 181 181 178 181 181 178 181 181 178 181 
181 178 181 181 178 181 181 178 181 181 178 181 
181 178 181 181 178 181 181 178 181 181 178 181 
181 178 181 181 178 181 181 178 181 181 178 181 
181 178 181 181 178 181 181 178 181 181 178 181 
181 178 181 181 178 181 181 178 181 181 178 181 
181 178 181 181 178 181 181 178 181 181 178 181 
181 178 181 181 178 181 181 178 181 181 178 181 
181 178 181 181 178 181 181 178 181 181 178 181 
181 178 181 181 178 181 181 178 181 181 178 181 
181 178 181 181 178 181 181 178 181 0 0 16 
247 243 247 181 178 181 181 178 181 181 178 181 
181 178 181 181 178 181 181 178 181 181 178 181 
181 178 181 181 178 181 181 178 181 181 178 181 
181 178 181 181 178 181 181 178 181 181 178 181 
181 178 181 181 178 181 181 178 181 181 178 181 
181 178 181 181 178 181 181 178 181 181 178 181 
181 178 181 181 178 181 181 178 181 181 178 181 
181 178 181 181 178 181 181 178 181 181 178 181 
181 178 181 181 178 181 181 178 181 181 178 181 
181 178 181 181 178 181 181 178 181 181 178 181 
181 178 181 181 178 181 181 178 181 181 178 181 
181 178 181 181 178 181 181 178 181 181 178 181 
181 178 181 181 178 181 181 178 181 181 178 181 
181 178 181 181 178 181 181 178 181 0 0 16 
247 243 247 165 162 165 181 178 181 181 178 181 
181 178 181 165 162 165 181 178 181 181 178 181 
181 178 181 165 162 165 181 178 181 181 178 181 
181 178 181 165 162 165 181 178 181 181 178 181 
181 178 181 165 162 165 181 178 181 181 178 181 
181 178 181 165 162 165 181 178 181 181 178 181 
181 178 181 165 162 165 181 178 181 181 178 181 
181 178 181 165 162 165 181 178 181 181 178 181 
181 178 181 165 162 165 181 178 181 181 178 181 
181 178 181 165 162 165 181 178 181 181 178 181 
181 178 181 165 162 165 181 178 181 181 178 181 
181 178 181 165 162 165 181 178 181 181 178 181 
181 178 181 165 162 165 181 178 181 181 178 181 
181 178 181 165 162 165 181 178 181 0 0 16 
247 243 247 181 178 181 181 178 181 181 178 181 
181 178 181 181 178 181 181 178 181 181 178 181 
181 178 181 181 178 181 181 178 181 181 178 181 
181 178 181 181 178 181 181 178 181 181 178 181 
181 178 181 181 178 181 181 178 181 181 178 181 
181 178 181 181 178 181 181 178 181 181 178 181 
181 178 181 181 178 181 181 178 181 181 178 181 
181 178 181 181 178 181 181 178 181 181 178 181 
181 178 181 181 178 181 181 178 181 181 178 181 
181 178 181 181 178 181 181 178 181 181 178 181 
181 178 181 181 178 181 181 178 181 181 178 181 
181 178 181 181 178 181 181 178 181 181 178 181 
181 178 181 181 178 181 181 178 181 181 178 181 
181 178 181 181 178 181 181 178 181 0 0 16 
247 243 247 165 162 165 181 178 181 165 162 165 
181 178 181 165 162 165 181 178 181 165 162 165 
181 178 181 165 162 165 181 178 181 165 162 165 
181 178 181 165 162 165 181 178 181 165 162 165 
181 178 181 165 162 165 181 178 181 165 162 165 
181 178 181 165 162 165 181 178 181 165 162 165 
181 178 181 165 162 165 181 178 181 165 162 165 
181 178 181 165 162 165 181 178 181 165 162 165 
181 178 181 165 162 165 181 178 181 165 162 165 
181 178 181 165 162 165 181 178 181 165 162 165 
181 178 181 165 162 165 181 178 181 165 162 165 
181 178 181 165 162 165 181 178 181 165 162 165 
181 178 181 165 162 165 181 178 181 165 162 165 
181 178 181 165 162 165 181 178 181 0 0 16 
247 243 247 181 178 181 181 178 181 181 178 181 
181 178 181 181 178 181 165 162 165 181 178 181 
181 178 181 181 178 181 181 178 181 181 178 181 
181 178 181 181 178 181 165 162 165 181 178 181 
181 178 181 181 178 181 181 178 181 181 178 181 
181 178 181 181 178 181 165 162 165 181 178 181 
181 178 181 181 178 181 181 178 181 181 178 181 
181 178 181 181 178 181 165 162 165 181 178 181 
181 178 181 181 178 181 181 178 181 181 178 181 
181 178 181 181 178 181 165 162 165 181 178 181 
181 178 181 181 178 181 181 178 181 181 178 181 
181 178 181 181 178 181 165 162 165 181 178 181 
181 178 181 181 178 181 181 178 181 181 178 181 
181 178 181 181 178 181 165 162 165 0 0 16 
247 243 247 165 162 165 181 178 181 165 162 165 
181 178 181 165 162 165 181 178 181 165 162 165 
181 178 181 165 162 165 181 178 181 165 162 165 
181 178 181 165 162 165 181 178 181 165 162 165 
181 178 181 165 162 165 181 178 181 165 162 165 
181 178 181 165 162 165 181 178 181 165 162 165 
181 178 181 165 162 165 181 178 181 165 162 165 
181 178 181 165 162 165 181 178 181 165 162 165 
181 178 181 165 162 165 181 178 181 165 162 165 
181 178 181 165 162 165 181 178 181 165 162 165 
181 178 181 165 162 165 181 178 181 165 162 165 
181 178 181 165 162 165 181 178 181 165 162 165 
181 178 181 165 162 165 181 178 181 165 162 165 
181 178 181 165 162 165 181 178 181 0 0 16 
247 243 247 181 178 181 181 178 181 181 178 181 
165 162 165 181 178 181 181 178 181 181 178 181 
165 162 165 181 178 181 181 178 181 181 178 181 
165 162 165 181 178 181 181 178 181 181 178 181 
165 162 165 181 178 181 181 178 181 181 178 181 
165 162 165 181 178 181 181 178 181 181 178 181 
165 162 165 181 178 181 181 178 181 181 178 181 
165 162 165 181 178 181 181 178 181 181 178 181 
165 162 165 181 178 181 181 178 181 181 178 181 
165 162 165 181 178 181 181 178 181 181 178 181 
165 162 165 181 178 181 181 178 181 181 178 181 
165 162 165 181 178 181 181 178 181 181 178 181 
165 162 165 181 178 181 181 178 181 181 178 181 
165 162 165 181 178 181 181 178 181 0 0 16 
247 243 247 165 162 165 181 178 181 165 162 165 
181 178 181 165 162 165 181 178 181 165 162 165 
181 178 181 165 162 165 181 178 181 165 162 165 
181 178 181 0 0 0 0 0 0 0 0 0 
0 0 0 0 0 0 0 0 0 0 0 0 
0 0 0 0 0 0 0 0 0 0 0 0 
0 0 0 0 0 0 0 0 0 0 0 0 
0 0 0 0 0 0 0 0 0 0 0 0 
0 0 0 0 0 0 0 0 0 0 0 0 
0 0 0 0 0 0 0 0 0 0 0 0 
0 0 0 0 0 0 0 0 0 165 162 165 
181 178 181 165 162 165 181 178 181 165 162 165 
181 178 181 165 162 165 181 178 181 165 162 165 
181 178 181 165 162 165 181 178 181 0 0 16 
247 243 247 181 178 181 165 162 165 181 178 181 
181 178 181 181 178 181 165 162 165 181 178 181 
165 162 165 181 178 181 165 162 165 181 178 181 
0 0 0 41 89 74 41 89 74 41 89 74 
41 89 74 41 89 74 41 89 74 41 89 74 
41 89 74 41 89 74 41 89 74 41 89 74 
41 89 74 41 89 74 41 89 74 41 89 74 
41 89 74 41 89 74 41 89 74 41 89 74 
41 89 74 41 89 74 41 89 74 41 89 74 
41 89 74 41 89 74 41 89 74 41 89 74 
41 89 74 41 89 74 41 89 74 0 0 0 
181 178 181 181 178 181 165 162 165 181 178 181 
165 162 165 181 178 181 165 162 165 181 178 181 
181 178 181 181 178 181 165 162 165 0 0 16 
247 243 247 165 162 165 181 178 181 165 162 165 
181 178 181 165 162 165 181 178 181 165 162 165 
181 178 181 165 162 165 181 178 181 165 162 165 
0 0 0 41 89 74 49 52 49 0 0 16 
0 0 0 0 0 0 0 0 0 0 0 0 
0 0 0 0 0 0 0 0 0 0 0 0 
0 0 0 0 0 0 0 0 0 0 0 0 
0 0 0 0 0 0 0 0 0 0 0 0 
0 0 0 0 0 0 0 0 0 0 0 0 
0 0 0 0 0 0 0 0 0 0 0 0 
0 0 0 41 89 74 49 52 49 0 0 16 
181 178 181 165 162 165 181 178 181 165 162 165 
181 178 181 165 162 165 181 178 181 165 162 165 
181 178 181 165 162 165 181 178 181 0 0 16 
247 243 247 181 178 181 165 162 165 181 178 181 
165 162 165 181 178 181 165 162 165 181 178 181 
165 162 165 181 178 181 165 162 165 181 178 181 
0 0 0 41 89 74 0 0 0 181 178 181 
165 162 165 181 178 181 165 162 165 181 178 181 
165 162 165 181 178 181 165 162 165 181 178 181 
165 162 165 181 178 181 165 162 165 181 178 181 
165 162 165 181 178 181 165 162 165 181 178 181 
165 162 165 181 178 181 165 162 165 181 178 181 
165 162 165 181 178 181 165 162 165 181 178 181 
165 158 165 0 0 0 41 89 74 0 0 0 
165 162 165 181 178 181 165 162 165 181 178 181 
165 162 165 181 178 181 165 162 165 181 178 181 
165 162 165 181 178 181 165 162 165 0 0 16 
247 243 247 165 162 165 181 178 181 165 162 165 
181 178 181 165 162 165 181 178 181 165 162 165 
181 178 181 165 162 165 181 178 181 165 162 165 
0 0 0 41 89 74 0 0 0 165 162 165 
181 178 181 165 162 165 181 178 181 165 162 165 
181 178 181 165 162 165 181 178 181 165 162 165 
181 178 181 165 162 165 181 178 181 165 162 165 
181 178 181 165 162 165 181 178 181 165 162 165 
181 178 181 165 162 165 181 178 181 165 162 165 
181 178 181 165 162 165 181 178 181 165 162 165 
181 178 181 0 0 0 41 89 74 0 0 0 
181 178 181 165 162 165 181 178 181 165 162 165 
181 178 181 165 162 165 181 178 181 165 162 165 
181 178 181 165 162 165 181 178 181 0 0 16 
247 243 247 165 162 165 165 162 165 181 178 181 
165 162 165 165 162 165 165 162 165 181 178 181 
165 162 165 165 162 165 165 162 165 181 178 181 
0 0 0 41 89 74 0 0 0 181 178 181 
165 162 165 165 162 165 165 162 165 181 178 181 
165 162 165 165 162 165 165 162 165 181 178 181 
165 162 165 165 162 165 165 162 165 181 178 181 
165 162 165 165 162 165 165 162 165 181 178 181 
165 162 165 165 162 165 165 162 165 181 178 181 
165 162 165 165 162 165 165 162 165 181 178 181 
165 162 165 0 0 0 41 89 74 0 0 0 
165 162 165 165 162 165 165 162 165 181 178 181 
165 162 165 165 162 165 165 162 165 181 178 181 
165 162 165 165 162 165 165 162 165 0 0 16 
247 243 247 165 162 165 181 178 181 165 162 165 
181 178 181 165 162 165 181 178 181 165 162 165 
181 178 181 165 162 165 181 178 181 165 162 165 
0 0 0 41 89 74 0 0 0 165 162 165 
181 178 181 165 162 165 181 178 181 165 162 165 
181 178 181 165 162 165 0 0 0 0 0 0 
0 0 0 165 162 165 181 178 181 165 162 165 
181 178 181 165 162 165 181 178 181 0 0 0 
0 0 0 0 0 0 181 178 181 165 162 165 
181 178 181 165 162 165 181 178 181 165 162 165 
181 178 181 0 0 0 41 89 74 0 0 0 
181 178 181 165 162 165 181 178 181 165 162 165 
181 178 181 165 162 165 181 178 181 165 162 165 
181 178 181 165 162 165 181 178 181 0 0 16 
247 243 247 165 162 165 165 162 165 165 162 165 
165 162 165 165 162 165 165 162 165 165 162 165 
165 162 165 165 162 165 165 162 165 165 162 165 
0 0 0 41 89 74 0 0 0 165 162 165 
165 162 165 165 162 165 165 162 165 165 162 165 
165 162 165 0 0 0 0 0 0 0 0 0 
165 162 165 0 0 0 165 162 165 165 162 165 
165 162 165 165 162 165 0 0 0 165 162 165 
165 162 165 165 162 165 0 0 0 165 162 165 
165 162 165 165 162 165 165 162 165 165 162 165 
165 162 165 0 0 0 41 89 74 0 0 0 
165 162 165 165 162 165 165 162 165 165 162 165 
165 162 165 165 162 165 165 162 165 165 162 165 
165 162 165 165 162 165 165 162 165 0 0 16 
247 243 247 165 162 165 181 178 181 165 162 165 
181 178 181 165 162 165 181 178 181 165 162 165 
181 178 181 165 162 165 181 178 181 165 162 165 
0 0 0 41 89 74 0 0 0 165 162 165 
181 178 181 165 162 165 181 178 181 165 162 165 
0 0 0 0 0 0 0 0 0 0 0 0 
181 178 181 165 162 165 0 0 0 165 162 165 
181 178 181 0 0 0 181 178 181 165 162 165 
181 178 181 165 162 165 181 178 181 0 0 0 
181 178 181 165 162 165 181 178 181 165 162 165 
181 178 181 0 0 0 41 89 74 0 0 0 
181 178 181 165 162 165 181 178 181 165 162 165 
181 178 181 165 162 165 181 178 181 165 162 165 
181 178 181 165 162 165 181 178 181 0 0 16 
247 243 247 165 162 165 165 162 165 165 162 165 
165 162 165 165 162 165 165 162 165 165 162 165 
165 162 165 165 162 165 165 162 165 165 162 165 
0 0 0 41 89 74 0 0 0 165 162 165 
165 162 165 165 162 165 165 162 165 165 162 165 
0 0 0 0 0 0 0 0 0 165 162 165 
165 162 165 165 162 165 0 0 0 165 162 165 
165 162 165 0 0 0 165 162 165 165 162 165 
165 162 165 0 0 0 0 0 0 0 0 0 
165 162 165 165 162 165 165 162 165 165 162 165 
165 162 165 0 0 0 41 89 74 0 0 0 
165 162 165 165 162 165 165 162 165 165 162 165 
165 162 165 165 162 165 165 162 165 165 162 165 
165 162 165 165 162 165 165 162 165 0 0 16 
247 243 247 165 162 165 165 162 165 165 162 165 
181 178 181 165 162 165 165 162 165 165 162 165 
181 178 181 165 162 165 165 162 165 165 162 165 
0 0 0 41 89 74 0 0 0 165 162 165 
181 178 181 165 162 165 165 162 165 165 162 165 
0 0 0 165 162 165 165 162 165 165 162 165 
181 178 181 165 162 165 0 0 0 165 162 165 
181 178 181 0 0 0 165 162 165 165 162 165 
0 0 0 0 0 0 0 0 0 0 0 0 
181 178 181 165 162 165 165 162 165 165 162 165 
181 178 181 0 0 0 41 89 74 0 0 0 
181 178 181 165 162 165 165 162 165 165 162 165 
181 178 181 165 162 165 165 162 165 165 162 165 
181 178 181 165 162 165 165 162 165 0 0 16 
247 243 247 165 162 165 165 162 165 165 162 165 
165 162 165 165 162 165 165 162 165 165 162 165 
165 162 165 165 162 165 165 162 165 165 162 165 
0 0 0 41 89 74 0 0 0 165 162 165 
165 162 165 165 162 165 165 162 165 165 162 165 
165 162 165 0 0 0 165 162 165 165 162 165 
165 162 165 0 0 0 165 162 165 165 162 165 
165 162 165 165 162 165 0 0 0 165 162 165 
0 0 0 0 0 0 0 0 0 165 162 165 
165 162 165 165 162 165 165 162 165 165 162 165 
165 162 165 0 0 0 41 89 74 0 0 0 
165 162 165 165 162 165 165 162 165 165 162 165 
165 162 165 165 162 165 165 162 165 165 162 165 
165 162 165 165 162 165 165 162 165 0 0 16 
247 243 247 165 162 165 165 162 165 165 162 165 
165 162 165 165 162 165 165 162 165 165 162 165 
165 162 165 165 162 165 165 162 165 165 162 165 
0 0 0 41 89 74 0 0 0 165 162 165 
165 162 165 165 162 165 165 162 165 165 162 165 
165 162 165 165 162 165 0 0 0 0 0 0 
0 0 0 165 162 165 165 162 165 165 162 165 
165 162 165 165 162 165 165 162 165 0 0 0 
0 0 0 0 0 0 165 162 165 165 162 165 
165 162 165 165 162 165 165 162 165 165 162 165 
165 162 165 0 0 0 41 89 74 0 0 0 
165 162 165 165 162 165 165 162 165 165 162 165 
165 162 165 165 162 165 165 162 165 165 162 165 
165 162 165 165 162 165 165 162 165 0 0 16 
247 243 247 165 162 165 165 162 165 165 162 165 
165 162 165 165 162 165 165 162 165 165 162 165 
165 162 165 165 162 165 165 162 165 165 162 165 
0 0 0 41 89 74 0 0 0 165 162 165 
165 162 165 165 162 165 165 162 165 165 162 165 
165 162 165 165 162 165 165 162 165 165 162 165 
165 162 165 165 162 165 165 162 165 165 162 165 
165 162 165 165 162 165 165 162 165 165 162 165 
165 162 165 165 162 165 165 162 165 165 162 165 
165 162 165 165 162 165 165 162 165 165 162 165 
165 162 165 0 0 0 41 89 74 0 0 0 
165 162 165 165 162 165 165 162 165 165 162 165 
165 162 165 165 162 165 165 162 165 165 162 165 
165 162 165 165 162 165 165 162 165 0 0 16 
247 243 247 148 146 148 165 162 165 165 162 165 
165 162 165 148 146 148 165 162 165 165 162 165 
165 162 165 148 146 148 165 162 165 165 162 165 
0 0 0 41 89 74 0 0 0 165 162 165 
165 162 165 148 146 148 165 162 165 165 162 165 
165 162 165 148 146 148 165 162 165 165 162 165 
165 162 165 148 146 148 165 162 165 165 162 165 
165 162 165 148 146 148 165 162 165 165 162 165 
165 162 165 148 146 148 165 162 165 165 162 165 
165 162 165 148 146 148 165 162 165 165 162 165 
165 162 165 0 0 0 41 89 74 0 0 0 
165 162 165 148 146 148 165 162 165 165 162 165 
165 162 165 148 146 148 165 162 165 165 162 165 
165 162 165 148 146 148 165 162 165 0 0 16 
247 243 247 165 162 165 165 162 165 165 162 165 
165 162 165 165 162 165 165 162 165 165 162 165 
165 162 165 165 162 165 165 162 165 165 162 165 
0 0 0 41 89 74 0 0 0 165 162 165 
165 162 165 165 162 165 165 162 165 165 162 165 
165 162 165 165 162 165 165 162 165 165 162 165 
165 162 165 165 162 165 165 162 165 165 162 165 
165 162 165 165 162 165 165 162 165 165 162 165 
165 162 165 165 162 165 165 162 165 165 162 165 
165 162 165 165 162 165 165 162 165 165 162 165 
165 162 165 0 0 0 41 89 74 0 0 0 
165 162 165 165 162 165 165 162 165 165 162 165 
165 162 165 165 162 165 165 162 165 165 162 165 
165 162 165 165 162 165 165 162 165 0 0 16 
247 243 247 165 162 165 165 162 165 148 146 148 
165 162 165 148 146 148 165 162 165 148 146 148 
165 162 165 165 162 165 165 162 165 148 146 148 
0 0 0 41 89 74 0 0 0 148 146 148 
165 162 165 165 162 165 165 162 165 148 146 148 
165 162 165 148 146 148 165 162 165 148 146 148 
0 0 0 0 0 0 0 0 0 0 0 0 
0 0 0 0 0 0 0 0 0 0 0 0 
0 0 0 165 162 165 165 162 165 148 146 148 
165 162 165 148 146 148 165 162 165 148 146 148 
165 162 165 0 0 0 41 89 74 0 0 0 
165 162 165 148 146 148 165 162 165 148 146 148 
165 162 165 165 162 165 165 162 165 148 146 148 
165 162 165 148 146 148 165 162 165 0 0 16 
247 243 247 165 162 165 165 162 165 165 162 165 
165 162 165 165 162 165 165 162 165 165 162 165 
165 162 165 165 162 165 165 162 165 165 162 165 
0 0 0 41 89 74 0 0 0 165 162 165 
165 162 165 165 162 165 165 162 165 165 162 165 
165 162 165 0 0 0 0 0 0 0 0 0 
165 162 165 165 162 165 165 162 165 165 162 165 
173 166 173 8 4 8 198 81 41 198 81 41 
0 0 0 0 0 0 0 0 0 0 0 0 
165 162 165 165 162 165 165 162 165 165 162 165 
165 162 165 0 0 0 41 89 74 0 0 0 
165 162 165 165 162 165 165 162 165 165 162 165 
165 162 165 165 162 165 165 162 165 165 162 165 
165 162 165 165 162 165 165 162 165 0 0 16 
247 243 247 148 146 148 165 162 165 148 146 148 
165 162 165 148 146 148 165 162 165 148 146 148 
165 162 165 148 146 148 165 162 165 148 146 148 
0 0 0 41 89 74 0 0 0 148 146 148 
165 162 165 148 146 148 165 162 165 0 0 0 
0 0 0 148 146 148 165 162 165 148 146 148 
165 162 165 148 146 148 165 162 165 148 146 148 
165 162 165 8 4 8 231 40 82 206 134 57 
8 4 8 198 81 41 231 40 82 8 4 8 
8 4 8 0 0 0 165 162 165 148 146 148 
165 162 165 0 0 0 41 89 74 0 0 0 
165 162 165 148 146 148 165 162 165 148 146 148 
165 162 165 148 146 148 165 162 165 148 146 148 
165 162 165 148 146 148 165 162 165 0 0 16 
247 243 247 165 162 165 165 162 165 165 162 165 
165 162 165 165 162 165 165 162 165 165 162 165 
165 162 165 165 162 165 165 162 165 165 162 165 
0 0 0 41 89 74 0 0 0 165 162 165 
165 162 165 165 162 165 0 0 0 165 162 165 
165 162 165 165 162 165 165 162 165 165 162 165 
165 162 165 165 162 165 165 162 165 165 158 165 
173 166 173 8 4 8 214 138 33 231 40 82 
33 32 33 206 134 57 198 81 41 8 4 8 
165 162 165 165 162 165 0 0 0 165 162 165 
165 162 165 0 0 0 41 89 74 0 0 0 
165 162 165 165 162 165 165 162 165 165 162 165 
165 162 165 165 162 165 165 162 165 165 162 165 
165 162 165 165 162 165 165 162 165 0 0 16 
247 243 247 148 146 148 165 162 165 148 146 148 
165 162 165 148 146 148 165 162 165 148 146 148 
165 162 165 148 146 148 165 162 165 148 146 148 
0 0 0 41 89 74 0 0 0 148 146 148 
165 162 165 148 146 148 165 162 165 148 146 148 
165 162 165 148 146 148 165 162 165 148 146 148 
165 162 165 148 146 148 165 162 165 148 146 148 
165 162 165 8 4 8 231 40 82 214 138 33 
8 4 8 231 40 82 206 134 57 8 4 8 
173 166 173 148 146 148 165 162 165 148 146 148 
165 162 165 0 0 0 41 89 74 0 0 0 
165 162 165 148 146 148 165 162 165 148 146 148 
165 162 165 148 146 148 165 162 165 148 146 148 
165 162 165 148 146 148 165 162 165 0 0 16 
247 243 247 165 162 165 148 146 148 165 162 165 
165 162 165 165 162 165 148 146 148 165 162 165 
165 162 165 165 162 165 148 146 148 165 162 165 
0 0 0 41 89 74 0 0 0 165 162 165 
165 162 165 165 162 165 148 146 148 165 162 165 
165 162 165 165 162 165 148 146 148 165 162 165 
165 162 165 165 162 165 148 146 148 165 162 165 
165 154 148 33 32 33 198 81 41 198 81 41 
33 32 33 198 81 41 198 81 41 8 4 8 
165 162 165 165 162 165 148 146 148 165 162 165 
165 162 165 0 0 0 41 89 74 0 0 0 
165 162 165 165 162 165 148 146 148 165 162 165 
165 162 165 165 162 165 148 146 148 165 162 165 
165 162 165 165 162 165 148 146 148 0 0 16 
247 243 247 148 146 148 165 162 165 148 146 148 
165 162 165 148 146 148 165 162 165 148 146 148 
165 162 165 148 146 148 165 162 165 148 146 148 
0 0 0 41 89 74 0 0 0 148 146 148 
165 162 165 148 146 148 165 162 165 148 146 148 
165 162 165 148 146 148 165 162 165 148 146 148 
165 162 165 148 146 148 165 162 165 148 146 148 
165 162 165 0 0 0 198 81 41 198 89 107 
33 32 33 198 81 41 198 89 107 8 4 8 
173 166 173 148 146 148 165 162 165 148 146 148 
165 162 165 0 0 0 41 89 74 0 0 0 
165 162 165 148 146 148 165 162 165 148 146 148 
165 162 165 148 146 148 165 162 165 148 146 148 
165 162 165 148 146 148 165 162 165 0 0 16 
247 243 247 165 162 165 148 146 148 165 162 165 
148 146 148 165 162 165 148 146 148 165 162 165 
148 146 148 165 162 165 148 146 148 165 162 165 
0 0 0 41 89 74 41 89 74 0 0 0 
0 0 0 0 0 0 0 0 0 0 0 0 
0 0 0 0 0 0 0 0 0 0 0 0 
0 0 0 0 0 0 0 0 0 0 0 0 
0 0 0 33 32 33 198 81 41 198 81 41 
33 32 33 198 81 41 198 81 41 8 4 8 
8 4 8 0 0 0 0 0 0 0 0 0 
0 0 0 41 89 74 41 89 74 0 0 0 
148 146 148 165 162 165 148 146 148 165 162 165 
148 146 148 165 162 165 148 146 148 165 162 165 
148 146 148 165 162 165 148 146 148 0 0 16 
247 243 247 148 146 148 165 162 165 148 146 148 
165 162 165 148 146 148 165 162 165 148 146 148 
165 162 165 148 146 148 165 162 165 148 146 148 
0 0 0 41 89 74 49 52 49 41 89 74 
41 89 74 41 89 74 41 89 74 41 89 74 
41 89 74 41 89 74 41 89 74 41 89 74 
41 89 74 41 89 74 41 89 74 41 89 74 
41 89 74 0 0 0 198 81 41 198 89 107 
8 4 8 198 81 41 198 89 107 33 32 33 
49 52 49 41 89 74 41 89 74 41 89 74 
41 89 74 49 52 49 41 89 74 0 0 0 
165 162 165 148 146 148 165 162 165 148 146 148 
165 162 165 148 146 148 165 162 165 148 146 148 
165 162 165 148 146 148 165 162 165 0 0 16 
247 243 247 148 146 148 148 146 148 165 162 165 
148 146 148 148 146 148 148 146 148 165 162 165 
148 146 148 148 146 148 148 146 148 165 162 165 
148 146 148 0 0 0 0 0 16 0 0 0 
0 0 0 0 0 0 0 0 0 0 0 0 
0 0 0 0 0 0 0 0 0 0 0 0 
0 0 0 0 0 0 0 0 0 0 0 0 
0 0 0 33 32 33 198 81 41 198 81 41 
33 32 33 198 81 41 198 81 41 8 4 8 
0 0 0 0 0 0 0 0 0 0 0 0 
0 0 0 0 0 16 0 0 0 165 162 165 
148 146 148 148 146 148 148 146 148 165 162 165 
148 146 148 148 146 148 148 146 148 165 162 165 
148 146 148 148 146 148 148 146 148 0 0 16 
247 243 247 148 146 148 165 162 165 148 146 148 
165 162 165 148 146 148 165 162 165 148 146 148 
165 162 165 148 146 148 165 162 165 148 146 148 
165 162 165 148 146 148 165 162 165 148 146 148 
165 162 165 148 146 148 165 162 165 148 146 148 
165 162 165 148 146 148 165 162 165 148 146 148 
165 162 165 148 146 148 165 162 165 148 146 148 
165 162 165 0 0 0 198 81 41 198 89 107 
198 81 41 198 81 41 206 134 57 8 4 8 
173 166 173 148 146 148 165 162 165 148 146 148 
165 162 165 148 146 148 165 162 165 148 146 148 
165 162 165 148 146 148 165 162 165 148 146 148 
165 162 165 148 146 148 165 162 165 148 146 148 
165 162 165 148 146 148 165 162 165 0 0 16 
247 243 247 148 146 148 148 146 148 148 146 148 
148 146 148 148 146 148 148 146 148 148 146 148 
148 146 148 148 146 148 148 146 148 148 146 148 
148 146 148 148 146 148 148 146 148 148 146 148 
148 146 148 148 146 148 148 146 148 148 146 148 
148 146 148 148 146 148 148 146 148 148 146 148 
148 146 148 148 146 148 148 146 148 148 146 148 
148 146 148 165 154 148 33 32 33 206 134 57 
198 81 41 198 89 107 8 4 8 165 154 148 
148 146 148 148 146 148 148 146 148 148 146 148 
148 146 148 148 146 148 148 146 148 148 146 148 
148 146 148 148 146 148 148 146 148 148 146 148 
148 146 148 148 146 148 148 146 148 148 146 148 
148 146 148 148 146 148 148 146 148 0 0 16 
247 243 247 148 146 148 165 162 165 148 146 148 
165 162 165 148 146 148 165 162 165 148 146 148 
165 162 165 148 146 148 165 162 165 148 146 148 
165 162 165 148 146 148 165 162 165 148 146 148 
165 162 165 148 146 148 165 162 165 148 146 148 
165 162 165 148 146 148 165 162 165 148 146 148 
165 162 165 148 146 148 165 162 165 148 146 148 
165 158 165 148 146 148 165 154 148 8 4 8 
33 32 33 8 4 8 8 4 8 165 154 148 
165 158 165 148 146 148 165 162 165 148 146 148 
165 162 165 148 146 148 165 162 165 148 146 148 
165 162 165 148 146 148 165 162 165 148 146 148 
165 162 165 148 146 148 165 162 165 148 146 148 
165 162 165 148 146 148 165 162 165 0 0 16 
247 243 247 148 146 148 148 146 148 148 146 148 
148 146 148 148 146 148 148 146 148 148 146 148 
148 146 148 148 146 148 148 146 148 148 146 148 
148 146 148 148 146 148 148 146 148 148 146 148 
148 146 148 148 146 148 148 146 148 148 146 148 
148 146 148 148 146 148 148 146 148 148 146 148 
148 146 148 148 146 148 148 146 148 148 146 148 
148 146 148 148 146 148 165 154 148 148 146 148 
148 146 148 165 154 148 148 146 148 148 146 148 
148 146 148 148 146 148 148 146 148 148 146 148 
148 146 148 148 146 148 148 146 148 148 146 148 
148 146 148 148 146 148 148 146 148 148 146 148 
148 146 148 148 146 148 148 146 148 148 146 148 
148 146 148 148 146 148 148 146 148 0 0 16 
247 243 247 148 146 148 148 146 148 148 146 148 
165 162 165 148 146 148 148 146 148 148 146 148 
165 162 165 148 146 148 148 146 148 148 146 148 
165 162 165 148 146 148 148 146 148 148 146 148 
165 162 165 148 146 148 148 146 148 148 146 148 
165 162 165 148 146 148 148 146 148 148 146 148 
165 162 165 148 146 148 148 146 148 148 146 148 
165 158 165 148 146 148 148 146 148 148 146 148 
165 158 165 148 146 148 148 146 148 148 146 148 
165 158 165 148 146 148 148 146 148 148 146 148 
165 162 165 148 146 148 148 146 148 148 146 148 
165 162 165 148 146 148 148 146 148 148 146 148 
165 162 165 148 146 148 148 146 148 148 146 148 
165 162 165 148 146 148 148 146 148 0 0 16 
247 243 247 148 146 148 148 146 148 148 146 148 
148 146 148 148 146 148 148 146 148 148 146 148 
148 146 148 148 146 148 148 146 148 148 146 148 
148 146 148 148 146 148 148 146 148 148 146 148 
148 146 148 148 146 148 148 146 148 148 146 148 
148 146 148 148 146 148 148 146 148 148 146 148 
148 146 148 148 146 148 148 146 148 148 146 148 
148 146 148 148 146 148 148 146 148 148 146 148 
148 146 148 148 146 148 148 146 148 148 146 148 
148 146 148 148 146 148 148 146 148 148 146 148 
148 146 148 148 146 148 148 146 148 148 146 148 
148 146 148 148 146 148 148 146 148 148 146 148 
148 146 148 148 146 148 148 146 148 148 146 148 
148 146 148 148 146 148 148 146 148 0 0 16 
247 243 247 148 146 148 165 162 165 148 146 148 
148 146 148 148 146 148 148 146 148 148 146 148 
148 146 148 148 146 148 165 162 165 148 146 148 
148 146 148 148 146 148 148 146 148 148 146 148 
148 146 148 148 146 148 165 162 165 148 146 148 
148 146 148 148 146 148 148 146 148 148 146 148 
148 146 148 148 146 148 165 162 165 148 146 148 
148 146 148 148 146 148 148 146 148 148 146 148 
148 146 148 148 146 148 165 158 165 148 146 148 
148 146 148 148 146 148 148 146 148 148 146 148 
148 146 148 148 146 148 165 162 165 148 146 148 
148 146 148 148 146 148 148 146 148 148 146 148 
148 146 148 148 146 148 165 162 165 148 146 148 
148 146 148 148 146 148 148 146 148 0 0 16 
247 243 247 148 146 148 148 146 148 148 146 148 
148 146 148 148 146 148 148 146 148 148 146 148 
148 146 148 148 146 148 148 146 148 148 146 148 
148 146 148 148 146 148 148 146 148 148 146 148 
148 146 148 148 146 148 148 146 148 148 146 148 
148 146 148 148 146 148 148 146 148 148 146 148 
148 146 148 148 146 148 148 146 148 148 146 148 
148 146 148 148 146 148 148 146 148 148 146 148 
148 146 148 148 146 148 148 146 148 148 146 148 
148 146 148 148 146 148 148 146 148 148 146 148 
148 146 148 148 146 148 148 146 148 148 146 148 
148 146 148 148 146 148 148 146 148 148 146 148 
148 146 148 148 146 148 148 146 148 148 146 148 
148 146 148 148 146 148 148 146 148 0 0 16 
247 243 247 148 146 148 148 146 148 148 146 148 
148 146 148 148 146 148 148 146 148 148 146 148 
148 146 148 148 146 148 148 146 148 148 146 148 
148 146 148 148 146 148 148 146 148 148 146 148 
148 146 148 148 146 148 148 146 148 148 146 148 
148 146 148 148 146 148 148 146 148 148 146 148 
148 146 148 148 146 148 148 146 148 148 146 148 
148 146 148 148 146 148 148 146 148 148 146 148 
148 146 148 148 146 148 148 146 148 148 146 148 
148 146 148 148 146 148 148 146 148 148 146 148 
148 146 148 148 146 148 148 146 148 148 146 148 
148 146 148 148 146 148 148 146 148 148 146 148 
148 146 148 148 146 148 148 146 148 148 146 148 
148 146 148 148 146 148 148 146 148 0 0 16 
181 178 181 0 0 16 0 0 16 0 0 16 
0 0 16 0 0 16 0 0 16 0 0 16 
0 0 16 0 0 16 0 0 16 0 0 16 
0 0 16 0 0 16 0 0 16 0 0 16 
0 0 16 0 0 16 0 0 16 0 0 16 
0 0 16 0 0 16 0 0 16 0 0 16 
0 0 16 0 0 16 0 0 16 0 0 16 
0 0 16 0 0 16 0 0 16 0 0 16 
0 0 16 0 0 16 0 0 16 0 0 16 
0 0 16 0 0 16 0 0 16 0 0 16 
0 0 16 0 0 16 0 0 16 0 0 16 
0 0 16 0 0 16 0 0 16 0 0 16 
0 0 16 0 0 16 0 0 16 0 0 16 
0 0 16 0 0 16 0 0 16 0 0 16 
