P3
#  Imported from XPM image: hand_up_3d.xpm
#
56 46
255
255 251 255 255 251 255 255 251 255 255 251 255 
255 251 255 255 251 255 255 251 255 255 251 255 
255 251 255 255 251 255 255 251 255 255 251 255 
255 251 255 255 251 255 255 251 255 255 251 255 
255 251 255 255 251 255 255 251 255 255 251 255 
255 251 255 255 251 255 255 251 255 255 251 255 
255 251 255 255 251 255 255 251 255 255 251 255 
255 251 255 255 251 255 255 251 255 255 251 255 
255 251 255 255 251 255 255 251 255 255 251 255 
255 251 255 255 251 255 255 251 255 255 251 255 
255 251 255 255 251 255 255 251 255 255 251 255 
255 251 255 255 251 255 255 251 255 255 251 255 
255 251 255 255 251 255 255 251 255 255 251 255 
255 251 255 255 251 255 255 251 255 182 178 182 
255 251 255 182 178 182 182 178 182 182 178 182 
166 162 166 182 178 182 182 178 182 166 162 166 
182 178 182 182 178 182 166 162 166 182 178 182 
182 178 182 166 162 166 182 178 182 182 178 182 
166 162 166 182 178 182 182 178 182 166 162 166 
182 178 182 182 178 182 166 162 166 182 178 182 
182 178 182 166 162 166 182 178 182 182 178 182 
166 162 166 182 178 182 182 178 182 166 162 166 
182 178 182 182 178 182 166 162 166 182 178 182 
182 178 182 166 162 166 182 178 182 182 178 182 
166 162 166 182 178 182 182 178 182 166 162 166 
182 178 182 182 178 182 166 162 166 182 178 182 
182 178 182 166 162 166 182 178 182 182 178 182 
166 162 166 182 178 182 182 178 182 0 0 16 
255 251 255 166 162 166 182 178 182 182 178 182 
182 178 182 182 178 182 182 178 182 182 178 182 
182 178 182 182 178 182 182 178 182 182 178 182 
182 178 182 182 178 182 182 178 182 182 178 182 
182 178 182 182 178 182 182 178 182 182 178 182 
182 178 182 182 178 182 182 178 182 182 178 182 
182 178 182 182 178 182 182 178 182 182 178 182 
182 178 182 182 178 182 182 178 182 182 178 182 
182 178 182 182 178 182 182 178 182 182 178 182 
182 178 182 182 178 182 182 178 182 182 178 182 
182 178 182 182 178 182 182 178 182 182 178 182 
182 178 182 182 178 182 182 178 182 182 178 182 
182 178 182 182 178 182 182 178 182 182 178 182 
182 178 182 182 178 182 182 178 182 0 0 16 
255 251 255 182 178 182 182 178 182 182 178 182 
182 178 182 182 178 182 182 178 182 182 178 182 
182 178 182 182 178 182 182 178 182 182 178 182 
182 178 182 182 178 182 182 178 182 182 178 182 
182 178 182 182 178 182 182 178 182 182 178 182 
182 178 182 182 178 182 182 178 182 182 178 182 
182 178 182 182 178 182 182 178 182 182 178 182 
182 178 182 182 178 182 182 178 182 182 178 182 
182 178 182 182 178 182 182 178 182 182 178 182 
182 178 182 182 178 182 182 178 182 182 178 182 
182 178 182 182 178 182 182 178 182 182 178 182 
182 178 182 182 178 182 182 178 182 182 178 182 
182 178 182 182 178 182 182 178 182 182 178 182 
182 178 182 182 178 182 182 178 182 0 0 16 
255 251 255 166 158 166 182 178 182 182 178 182 
182 178 182 166 158 166 182 178 182 182 178 182 
182 178 182 166 158 166 182 178 182 182 178 182 
182 178 182 166 158 166 182 178 182 182 178 182 
182 178 182 166 158 166 182 178 182 182 178 182 
182 178 182 166 158 166 182 178 182 182 178 182 
182 178 182 166 158 166 182 178 182 182 178 182 
182 178 182 166 158 166 182 178 182 182 178 182 
182 178 182 166 158 166 182 178 182 182 178 182 
182 178 182 166 158 166 182 178 182 182 178 182 
182 178 182 166 158 166 182 178 182 182 178 182 
182 178 182 166 158 166 182 178 182 182 178 182 
182 178 182 166 158 166 182 178 182 182 178 182 
182 178 182 166 162 166 182 178 182 0 0 16 
255 251 255 182 178 182 182 178 182 182 178 182 
182 178 182 182 178 182 182 178 182 182 178 182 
182 178 182 182 178 182 182 178 182 182 178 182 
182 178 182 182 178 182 182 178 182 182 178 182 
182 178 182 182 178 182 182 178 182 182 178 182 
182 178 182 182 178 182 182 178 182 182 178 182 
182 178 182 182 178 182 182 178 182 182 178 182 
182 178 182 182 178 182 182 178 182 182 178 182 
182 178 182 182 178 182 182 178 182 182 178 182 
182 178 182 182 178 182 182 178 182 182 178 182 
182 178 182 182 178 182 182 178 182 182 178 182 
182 178 182 182 178 182 182 178 182 182 178 182 
182 178 182 182 178 182 182 178 182 182 178 182 
182 178 182 182 178 182 182 178 182 0 0 16 
255 251 255 150 146 150 182 178 182 166 162 166 
182 178 182 166 162 166 182 178 182 166 162 166 
182 178 182 166 162 166 182 178 182 166 162 166 
182 178 182 166 162 166 182 178 182 166 162 166 
182 178 182 166 162 166 182 178 182 166 162 166 
182 178 182 166 162 166 182 178 182 166 162 166 
182 178 182 166 162 166 182 178 182 166 162 166 
182 178 182 166 162 166 182 178 182 166 162 166 
182 178 182 166 162 166 182 178 182 166 162 166 
182 178 182 166 162 166 182 178 182 166 162 166 
182 178 182 166 162 166 182 178 182 166 162 166 
182 178 182 166 162 166 182 178 182 166 162 166 
182 178 182 166 162 166 182 178 182 166 162 166 
182 178 182 166 162 166 182 178 182 0 0 16 
255 251 255 182 178 182 182 178 182 182 178 182 
182 178 182 182 178 182 166 162 166 182 178 182 
182 178 182 182 178 182 182 178 182 182 178 182 
182 178 182 182 178 182 166 162 166 182 178 182 
182 178 182 182 178 182 182 178 182 182 178 182 
182 178 182 182 178 182 166 162 166 182 178 182 
182 178 182 182 178 182 182 178 182 182 178 182 
0 0 0 0 0 0 166 162 166 182 178 182 
182 178 182 182 178 182 182 178 182 182 178 182 
182 178 182 182 178 182 166 162 166 182 178 182 
182 178 182 182 178 182 182 178 182 182 178 182 
182 178 182 182 178 182 166 162 166 182 178 182 
182 178 182 182 178 182 182 178 182 182 178 182 
182 178 182 182 178 182 166 162 166 0 0 16 
255 251 255 166 162 166 182 178 182 166 162 166 
182 178 182 166 162 166 182 178 182 166 162 166 
182 178 182 166 162 166 182 178 182 166 162 166 
182 178 182 166 162 166 182 178 182 166 162 166 
182 178 182 166 162 166 182 178 182 166 162 166 
182 178 182 166 162 166 182 178 182 166 162 166 
182 178 182 0 0 0 0 0 0 0 0 0 
255 251 255 166 162 166 0 0 0 0 0 0 
0 0 0 166 162 166 182 178 182 166 162 166 
182 178 182 166 162 166 182 178 182 166 162 166 
182 178 182 166 162 166 182 178 182 166 162 166 
182 178 182 166 162 166 182 178 182 166 162 166 
182 178 182 166 162 166 182 178 182 166 162 166 
182 178 182 166 162 166 182 178 182 0 0 16 
255 251 255 182 178 182 182 178 182 182 178 182 
166 162 166 182 178 182 182 178 182 182 178 182 
166 162 166 182 178 182 182 178 182 182 178 182 
166 162 166 182 178 182 182 178 182 182 178 182 
166 162 166 182 178 182 182 178 182 182 178 182 
166 162 166 182 178 182 182 178 182 182 178 182 
0 0 0 255 251 255 182 178 182 0 0 0 
255 251 255 182 178 182 0 0 0 255 251 255 
166 162 166 0 0 0 182 178 182 182 178 182 
166 162 166 182 178 182 182 178 182 182 178 182 
166 162 166 182 178 182 182 178 182 182 178 182 
166 162 166 182 178 182 182 178 182 182 178 182 
166 162 166 182 178 182 182 178 182 182 178 182 
166 162 166 182 178 182 182 178 182 0 0 16 
255 251 255 166 162 166 182 178 182 166 162 166 
182 178 182 166 162 166 182 178 182 166 162 166 
182 178 182 166 162 166 182 178 182 166 162 166 
182 178 182 166 162 166 182 178 182 166 162 166 
182 178 182 166 162 166 182 178 182 166 162 166 
182 178 182 166 162 166 182 178 182 166 162 166 
0 0 0 255 251 255 182 178 182 0 0 0 
255 251 255 166 162 166 0 0 0 255 251 255 
182 178 182 0 0 0 182 178 182 166 162 166 
182 178 182 166 162 166 182 178 182 166 162 166 
182 178 182 166 162 166 182 178 182 166 162 166 
182 178 182 166 162 166 182 178 182 166 162 166 
182 178 182 166 162 166 182 178 182 166 162 166 
182 178 182 166 162 166 182 178 182 0 0 16 
255 251 255 182 178 182 166 162 166 182 178 182 
182 178 182 182 178 182 166 162 166 182 178 182 
166 162 166 182 178 182 166 162 166 182 178 182 
182 178 182 182 178 182 166 162 166 182 178 182 
166 162 166 182 178 182 166 162 166 182 178 182 
182 178 182 182 178 182 166 162 166 182 178 182 
0 0 0 255 251 255 166 162 166 0 0 0 
255 251 255 182 178 182 0 0 0 255 251 255 
166 162 166 0 0 0 0 0 0 0 0 0 
182 178 182 182 178 182 166 162 166 182 178 182 
166 162 166 182 178 182 166 162 166 182 178 182 
182 178 182 182 178 182 166 162 166 182 178 182 
166 162 166 182 178 182 166 162 166 182 178 182 
182 178 182 182 178 182 166 162 166 0 0 16 
255 251 255 150 146 150 182 178 182 166 162 166 
182 178 182 166 162 166 182 178 182 166 162 166 
182 178 182 166 162 166 182 178 182 166 162 166 
182 178 182 166 162 166 182 178 182 166 162 166 
182 178 182 166 162 166 182 178 182 166 162 166 
182 178 182 166 162 166 182 178 182 166 162 166 
0 0 0 255 251 255 182 178 182 0 0 0 
255 251 255 166 162 166 0 0 0 255 251 255 
182 178 182 0 0 0 255 251 255 166 162 166 
0 0 0 166 162 166 182 178 182 166 162 166 
182 178 182 166 162 166 182 178 182 166 162 166 
182 178 182 166 162 166 182 178 182 166 162 166 
182 178 182 166 162 166 182 178 182 166 162 166 
182 178 182 166 162 166 182 178 182 0 0 16 
255 251 255 182 178 182 166 162 166 182 178 182 
166 162 166 182 178 182 166 162 166 182 178 182 
166 162 166 182 178 182 166 162 166 182 178 182 
166 162 166 182 178 182 166 162 166 182 178 182 
166 162 166 182 178 182 166 162 166 182 178 182 
166 162 166 182 178 182 166 162 166 182 178 182 
0 0 0 255 251 255 166 162 166 0 0 0 
255 251 255 182 178 182 0 0 0 255 251 255 
166 162 166 0 0 0 255 251 255 182 178 182 
0 0 0 182 178 182 166 162 166 182 178 182 
166 162 166 182 178 182 166 162 166 182 178 182 
166 162 166 182 178 182 166 162 166 182 178 182 
166 162 166 182 178 182 166 162 166 182 178 182 
166 162 166 182 178 182 166 162 166 0 0 16 
255 251 255 166 158 166 182 178 182 166 162 166 
182 178 182 166 162 166 182 178 182 166 162 166 
182 178 182 166 162 166 182 178 182 166 162 166 
182 178 182 166 162 166 182 178 182 166 162 166 
182 178 182 166 162 166 182 178 182 166 162 166 
182 178 182 166 162 166 182 178 182 166 162 166 
0 0 0 255 251 255 182 178 182 0 0 0 
255 251 255 166 162 166 0 0 0 255 251 255 
182 178 182 0 0 0 255 251 255 166 162 166 
0 0 0 166 162 166 182 178 182 166 162 166 
182 178 182 166 162 166 182 178 182 166 162 166 
182 178 182 166 162 166 182 178 182 166 162 166 
182 178 182 166 162 166 182 178 182 166 162 166 
182 178 182 166 162 166 182 178 182 0 0 16 
255 251 255 166 162 166 166 162 166 182 178 182 
166 162 166 166 162 166 166 162 166 182 178 182 
166 162 166 166 162 166 166 162 166 182 178 182 
166 162 166 166 162 166 166 162 166 182 178 182 
166 162 166 166 162 166 166 162 166 182 178 182 
166 162 166 166 162 166 166 162 166 182 178 182 
0 0 0 255 251 255 166 162 166 0 0 0 
255 251 255 166 162 166 0 0 0 255 251 255 
166 162 166 0 0 0 255 251 255 182 178 182 
0 0 0 166 162 166 166 162 166 182 178 182 
166 162 166 166 162 166 166 162 166 182 178 182 
166 162 166 166 162 166 166 162 166 182 178 182 
166 162 166 166 162 166 166 162 166 182 178 182 
166 162 166 166 162 166 166 162 166 0 0 16 
255 251 255 166 162 166 182 178 182 166 162 166 
182 178 182 166 162 166 182 178 182 166 162 166 
182 178 182 166 162 166 182 178 182 166 162 166 
182 178 182 166 162 166 182 178 182 166 162 166 
182 178 182 166 162 166 182 178 182 0 0 0 
0 0 0 0 0 0 182 178 182 166 162 166 
0 0 0 255 251 255 255 251 255 0 0 0 
255 251 255 255 251 255 0 0 0 255 251 255 
182 178 182 0 0 0 255 251 255 166 162 166 
0 0 0 166 162 166 182 178 182 166 162 166 
182 178 182 166 162 166 182 178 182 166 162 166 
182 178 182 166 162 166 182 178 182 166 162 166 
182 178 182 166 162 166 182 178 182 166 162 166 
182 178 182 166 162 166 182 178 182 0 0 16 
255 251 255 166 162 166 166 162 166 166 162 166 
166 162 166 166 162 166 166 162 166 166 162 166 
166 162 166 166 162 166 166 162 166 166 162 166 
166 162 166 166 162 166 166 162 166 166 162 166 
166 162 166 166 162 166 166 162 166 0 0 0 
255 251 255 166 162 166 0 0 0 166 162 166 
0 0 0 255 251 255 255 251 255 255 251 255 
255 251 255 255 251 255 255 251 255 255 251 255 
255 251 255 0 0 0 255 251 255 166 162 166 
0 0 0 166 162 166 166 162 166 166 162 166 
166 162 166 166 162 166 166 162 166 166 162 166 
166 162 166 166 162 166 166 162 166 166 162 166 
166 162 166 166 162 166 166 162 166 166 162 166 
166 162 166 166 162 166 166 162 166 0 0 16 
255 251 255 150 146 150 182 178 182 166 162 166 
182 178 182 166 162 166 182 178 182 166 162 166 
182 178 182 166 158 166 182 178 182 166 162 166 
182 178 182 166 162 166 182 178 182 166 162 166 
182 178 182 166 162 166 182 178 182 166 162 166 
0 0 0 255 251 255 182 178 182 0 0 0 
0 0 0 255 251 255 247 247 247 255 251 255 
255 251 255 247 247 247 255 251 255 255 251 255 
255 251 255 255 251 255 255 251 255 166 162 166 
0 0 0 166 162 166 182 178 182 166 162 166 
182 178 182 166 162 166 182 178 182 166 162 166 
182 178 182 166 162 166 182 178 182 166 162 166 
182 178 182 166 162 166 182 178 182 166 162 166 
182 178 182 166 162 166 182 178 182 0 0 16 
255 251 255 166 162 166 166 162 166 166 162 166 
166 162 166 166 162 166 166 162 166 166 162 166 
166 162 166 166 162 166 166 162 166 166 162 166 
166 162 166 166 162 166 166 162 166 166 162 166 
166 162 166 166 162 166 166 162 166 166 162 166 
0 0 0 255 251 255 255 251 255 166 162 166 
0 0 0 113 130 150 166 162 166 255 251 255 
255 251 255 255 251 255 255 251 255 255 251 255 
255 251 255 247 247 247 255 251 255 166 162 166 
0 0 0 166 162 166 166 162 166 166 162 166 
166 162 166 166 162 166 166 162 166 166 162 166 
166 162 166 166 162 166 166 162 166 166 162 166 
166 162 166 166 162 166 166 162 166 166 162 166 
166 162 166 166 162 166 166 162 166 0 0 16 
255 251 255 166 162 166 166 162 166 166 162 166 
182 178 182 166 162 166 166 162 166 166 162 166 
182 178 182 166 162 166 166 162 166 166 162 166 
182 178 182 166 162 166 166 162 166 166 162 166 
182 178 182 166 162 166 166 162 166 166 162 166 
182 178 182 0 0 0 255 251 255 255 251 255 
255 251 255 255 251 255 166 162 166 166 158 166 
255 251 255 247 247 247 255 251 255 247 247 247 
255 251 255 255 251 255 255 251 255 166 162 166 
0 0 0 166 162 166 166 162 166 166 162 166 
182 178 182 166 162 166 166 162 166 166 162 166 
182 178 182 166 162 166 166 162 166 166 162 166 
182 178 182 166 162 166 166 162 166 166 162 166 
182 178 182 166 162 166 166 162 166 0 0 16 
255 251 255 166 162 166 166 162 166 166 162 166 
166 162 166 166 162 166 166 162 166 166 162 166 
166 162 166 166 162 166 166 162 166 166 162 166 
166 162 166 166 162 166 166 162 166 166 162 166 
166 162 166 166 162 166 166 162 166 166 162 166 
166 162 166 0 0 0 255 251 255 255 251 255 
255 251 255 255 251 255 255 251 255 166 162 166 
255 251 255 255 251 255 255 251 255 255 251 255 
255 251 255 255 251 255 255 251 255 166 162 166 
0 0 0 166 162 166 166 162 166 166 162 166 
166 162 166 166 162 166 166 162 166 166 162 166 
166 162 166 166 162 166 166 162 166 166 162 166 
166 162 166 166 162 166 166 162 166 166 162 166 
166 162 166 166 162 166 166 162 166 0 0 16 
255 251 255 166 162 166 166 162 166 166 162 166 
166 162 166 166 162 166 166 162 166 166 162 166 
166 162 166 166 162 166 166 162 166 166 162 166 
166 162 166 166 162 166 166 162 166 166 162 166 
166 162 166 166 162 166 166 162 166 166 162 166 
166 162 166 166 162 166 0 0 0 255 251 255 
247 247 247 255 251 255 255 251 255 166 158 166 
255 251 255 255 251 255 255 251 255 247 247 247 
255 251 255 255 251 255 166 158 166 113 130 150 
0 0 0 166 162 166 166 162 166 166 162 166 
166 162 166 166 162 166 166 162 166 166 162 166 
166 162 166 166 162 166 166 162 166 166 162 166 
166 162 166 166 162 166 166 162 166 166 162 166 
166 162 166 166 162 166 166 162 166 0 0 16 
255 251 255 166 162 166 166 162 166 166 162 166 
166 162 166 166 162 166 166 162 166 166 162 166 
166 162 166 166 162 166 166 162 166 166 162 166 
166 162 166 166 162 166 166 162 166 166 162 166 
166 162 166 166 162 166 166 162 166 166 162 166 
166 162 166 166 162 166 0 0 0 255 251 255 
255 251 255 255 251 255 255 251 255 255 251 255 
255 251 255 247 247 247 255 251 255 255 251 255 
255 251 255 255 251 255 166 162 166 0 0 0 
166 162 166 166 162 166 166 162 166 166 162 166 
166 162 166 166 162 166 166 162 166 166 162 166 
166 162 166 166 162 166 166 162 166 166 162 166 
166 162 166 166 162 166 166 162 166 166 162 166 
166 162 166 166 162 166 166 162 166 0 0 16 
255 251 255 150 146 150 166 162 166 166 162 166 
166 162 166 150 146 150 166 162 166 166 162 166 
166 162 166 150 146 150 166 162 166 166 162 166 
166 162 166 150 146 150 166 162 166 166 162 166 
166 162 166 150 146 150 166 162 166 166 162 166 
166 162 166 150 146 150 0 0 0 255 251 255 
255 251 255 247 247 247 255 251 255 255 251 255 
255 251 255 255 251 255 255 251 255 255 251 255 
247 247 247 255 251 255 166 162 166 0 0 0 
166 162 166 150 146 150 166 162 166 166 162 166 
166 162 166 150 146 150 166 162 166 166 162 166 
166 162 166 150 146 150 166 162 166 166 162 166 
166 162 166 150 146 150 166 162 166 166 162 166 
166 162 166 150 146 150 166 162 166 0 0 16 
255 251 255 166 162 166 166 162 166 166 162 166 
166 162 166 166 162 166 166 162 166 166 162 166 
166 162 166 166 162 166 166 162 166 166 162 166 
166 162 166 166 162 166 166 162 166 166 162 166 
166 162 166 166 162 166 166 162 166 166 162 166 
166 162 166 166 162 166 166 162 166 0 0 0 
255 251 255 255 251 255 255 251 255 247 247 247 
255 251 255 255 251 255 247 247 247 255 251 255 
255 251 255 166 162 166 113 130 150 0 0 0 
166 162 166 166 162 166 166 162 166 166 162 166 
166 162 166 166 162 166 166 162 166 166 162 166 
166 162 166 166 162 166 166 162 166 166 162 166 
166 162 166 166 162 166 166 162 166 166 162 166 
166 162 166 166 162 166 166 162 166 0 0 16 
255 251 255 150 146 150 166 162 166 150 146 150 
166 162 166 150 146 150 166 162 166 150 146 150 
166 162 166 166 162 166 166 162 166 150 146 150 
166 162 166 150 146 150 166 162 166 150 146 150 
166 162 166 166 162 166 166 162 166 150 146 150 
166 162 166 150 146 150 166 162 166 0 0 0 
255 251 255 255 251 255 255 251 255 255 251 255 
255 251 255 255 251 255 255 251 255 255 251 255 
255 251 255 166 162 166 0 0 0 150 146 150 
166 162 166 150 146 150 166 162 166 150 146 150 
166 162 166 166 162 166 166 162 166 150 146 150 
166 162 166 150 146 150 166 162 166 150 146 150 
166 162 166 166 162 166 166 162 166 150 146 150 
166 162 166 150 146 150 166 162 166 0 0 16 
255 251 255 166 162 166 166 162 166 166 162 166 
166 162 166 166 162 166 166 162 166 166 162 166 
166 162 166 166 162 166 166 162 166 166 162 166 
166 162 166 166 162 166 166 162 166 166 162 166 
166 162 166 166 162 166 166 162 166 166 162 166 
166 162 166 166 162 166 166 162 166 166 162 166 
0 0 0 255 251 255 255 251 255 247 247 247 
255 251 255 255 251 255 247 247 247 255 251 255 
166 162 166 113 130 150 0 0 0 166 162 166 
166 162 166 166 162 166 166 162 166 166 162 166 
166 162 166 166 162 166 166 162 166 166 162 166 
166 162 166 166 162 166 166 162 166 166 162 166 
166 162 166 166 162 166 166 162 166 166 162 166 
166 162 166 166 162 166 166 162 166 0 0 16 
255 251 255 150 146 150 166 162 166 150 146 150 
166 162 166 150 146 150 166 162 166 150 146 150 
166 162 166 150 146 150 166 162 166 150 146 150 
166 162 166 150 146 150 166 162 166 150 146 150 
166 162 166 150 146 150 166 162 166 150 146 150 
166 162 166 150 146 150 166 162 166 150 146 150 
166 162 166 0 0 0 255 251 255 255 251 255 
255 251 255 255 251 255 255 251 255 255 251 255 
166 158 166 0 0 0 166 162 166 150 146 150 
166 162 166 150 146 150 166 162 166 150 146 150 
166 162 166 150 146 150 166 162 166 150 146 150 
166 162 166 150 146 150 166 162 166 150 146 150 
166 162 166 150 146 150 166 162 166 150 146 150 
166 162 166 150 146 150 166 162 166 0 0 16 
255 251 255 166 162 166 166 162 166 166 162 166 
166 162 166 166 162 166 166 162 166 166 162 166 
166 162 166 166 162 166 166 162 166 166 162 166 
166 162 166 166 162 166 166 162 166 166 162 166 
166 162 166 166 162 166 166 162 166 166 162 166 
166 162 166 166 162 166 166 162 166 166 162 166 
166 162 166 166 162 166 0 0 0 255 251 255 
255 251 255 247 247 247 255 251 255 166 162 166 
113 130 150 0 0 0 166 162 166 166 162 166 
166 162 166 166 162 166 166 162 166 166 162 166 
166 162 166 166 162 166 166 162 166 166 162 166 
166 162 166 166 162 166 166 162 166 166 162 166 
166 162 166 166 162 166 166 162 166 166 162 166 
166 162 166 166 162 166 166 162 166 0 0 16 
255 251 255 150 146 150 166 162 166 150 146 150 
166 162 166 150 146 150 166 162 166 150 146 150 
166 162 166 150 146 150 166 162 166 150 146 150 
166 162 166 150 146 150 166 162 166 150 146 150 
166 162 166 150 146 150 166 162 166 150 146 150 
166 162 166 150 146 150 166 162 166 150 146 150 
166 162 166 150 146 150 0 0 0 255 251 255 
255 251 255 255 251 255 255 251 255 150 146 150 
113 130 150 0 0 0 166 162 166 150 146 150 
166 162 166 150 146 150 166 162 166 150 146 150 
166 162 166 150 146 150 166 162 166 150 146 150 
166 162 166 150 146 150 166 162 166 150 146 150 
166 162 166 150 146 150 166 162 166 150 146 150 
166 162 166 150 146 150 166 162 166 0 0 16 
255 251 255 166 162 166 150 146 150 166 162 166 
166 162 166 166 162 166 150 146 150 166 162 166 
166 162 166 166 162 166 150 146 150 166 162 166 
166 162 166 166 162 166 150 146 150 166 162 166 
166 162 166 166 162 166 150 146 150 166 162 166 
166 162 166 166 162 166 150 146 150 166 162 166 
166 162 166 0 0 0 0 0 0 0 0 0 
0 0 0 0 0 0 0 0 0 0 0 0 
0 0 0 0 0 0 150 146 150 166 162 166 
166 162 166 166 162 166 150 146 150 166 162 166 
166 162 166 166 162 166 150 146 150 166 162 166 
166 162 166 166 162 166 150 146 150 166 162 166 
166 162 166 166 162 166 150 146 150 166 162 166 
166 162 166 166 162 166 150 146 150 0 0 16 
255 251 255 150 146 150 166 162 166 150 146 150 
166 162 166 150 146 150 166 162 166 150 146 150 
166 162 166 150 146 150 166 162 166 150 146 150 
166 162 166 150 146 150 166 162 166 150 146 150 
166 162 166 150 146 150 166 162 166 150 146 150 
166 162 166 150 146 150 166 162 166 150 146 150 
166 162 166 0 0 0 255 20 65 255 20 65 
255 20 65 255 20 65 255 20 65 182 32 32 
182 32 32 182 32 32 0 0 0 150 146 150 
166 162 166 150 146 150 166 162 166 150 146 150 
166 162 166 150 146 150 166 162 166 150 146 150 
166 162 166 150 146 150 166 162 166 150 146 150 
166 162 166 150 146 150 166 162 166 150 146 150 
166 162 166 150 146 150 166 162 166 0 0 16 
255 251 255 166 162 166 150 146 150 166 162 166 
150 146 150 166 162 166 150 146 150 166 162 166 
150 146 150 166 162 166 150 146 150 166 162 166 
150 146 150 166 162 166 150 146 150 166 162 166 
150 146 150 166 162 166 150 146 150 166 162 166 
150 146 150 166 162 166 150 146 150 166 162 166 
150 146 150 0 0 0 255 20 65 255 20 65 
255 20 65 255 20 65 182 32 32 255 20 65 
182 32 32 182 32 32 0 0 0 166 162 166 
150 146 150 166 162 166 150 146 150 166 162 166 
150 146 150 166 162 166 150 146 150 166 162 166 
150 146 150 166 162 166 150 146 150 166 162 166 
150 146 150 166 162 166 150 146 150 166 162 166 
150 146 150 166 162 166 150 146 150 0 0 16 
255 251 255 150 146 150 166 162 166 150 146 150 
166 162 166 150 146 150 166 162 166 150 146 150 
166 162 166 150 146 150 166 162 166 150 146 150 
166 162 166 150 146 150 166 162 166 150 146 150 
166 162 166 150 146 150 166 162 166 150 146 150 
166 162 166 150 146 150 166 162 166 150 146 150 
166 162 166 0 0 0 255 20 65 255 20 65 
255 20 65 255 20 65 255 20 65 182 32 32 
182 32 32 182 32 32 0 0 0 150 146 150 
166 162 166 150 146 150 166 162 166 150 146 150 
166 162 166 150 146 150 166 162 166 150 146 150 
166 162 166 150 146 150 166 162 166 150 146 150 
166 162 166 150 146 150 166 162 166 150 146 150 
166 162 166 150 146 150 166 162 166 0 0 16 
255 251 255 150 146 150 150 146 150 166 162 166 
150 146 150 150 146 150 150 146 150 166 162 166 
150 146 150 150 146 150 150 146 150 166 162 166 
150 146 150 150 146 150 150 146 150 166 162 166 
150 146 150 150 146 150 150 146 150 166 162 166 
150 146 150 150 146 150 150 146 150 166 162 166 
150 146 150 0 0 0 255 20 65 255 20 65 
255 20 65 255 20 65 182 32 32 255 20 65 
182 32 32 182 32 32 0 0 0 166 162 166 
150 146 150 150 146 150 150 146 150 166 162 166 
150 146 150 150 146 150 150 146 150 166 162 166 
150 146 150 150 146 150 150 146 150 166 162 166 
150 146 150 150 146 150 150 146 150 166 162 166 
150 146 150 150 146 150 150 146 150 0 0 16 
255 251 255 150 146 150 150 146 150 150 146 150 
166 162 166 150 146 150 166 162 166 150 146 150 
166 162 166 150 146 150 166 162 166 150 146 150 
166 162 166 150 146 150 166 162 166 150 146 150 
166 162 166 150 146 150 166 162 166 150 146 150 
166 162 166 150 146 150 166 162 166 150 146 150 
166 162 166 0 0 0 255 20 65 255 20 65 
255 20 65 255 20 65 255 20 65 182 32 32 
182 32 32 182 32 32 0 0 0 150 146 150 
166 162 166 150 146 150 166 162 166 150 146 150 
166 162 166 150 146 150 166 162 166 150 146 150 
166 162 166 150 146 150 166 162 166 150 146 150 
166 162 166 150 146 150 166 162 166 150 146 150 
166 162 166 150 146 150 166 162 166 0 0 16 
255 251 255 150 146 150 150 146 150 150 146 150 
150 146 150 150 146 150 150 146 150 150 146 150 
150 146 150 150 146 150 150 146 150 150 146 150 
150 146 150 150 146 150 150 146 150 150 146 150 
150 146 150 150 146 150 150 146 150 150 146 150 
150 146 150 150 146 150 150 146 150 150 146 150 
150 146 150 0 0 0 255 20 65 255 20 65 
255 20 65 255 20 65 182 32 32 255 20 65 
182 32 32 182 32 32 0 0 0 150 146 150 
150 146 150 150 146 150 150 146 150 150 146 150 
150 146 150 150 146 150 150 146 150 150 146 150 
150 146 150 150 146 150 150 146 150 150 146 150 
150 146 150 150 146 150 150 146 150 150 146 150 
150 146 150 150 146 150 150 146 150 0 0 16 
255 251 255 150 146 150 166 162 166 150 146 150 
166 162 166 150 146 150 166 162 166 150 146 150 
166 162 166 150 146 150 166 162 166 150 146 150 
166 162 166 150 146 150 166 162 166 150 146 150 
166 162 166 150 146 150 166 162 166 150 146 150 
166 162 166 150 146 150 166 162 166 150 146 150 
166 162 166 150 146 150 166 162 166 150 146 150 
166 162 166 150 146 150 166 162 166 150 146 150 
166 162 166 150 146 150 166 162 166 150 146 150 
166 162 166 150 146 150 166 162 166 150 146 150 
166 162 166 150 146 150 166 162 166 150 146 150 
166 162 166 150 146 150 166 162 166 150 146 150 
166 162 166 150 146 150 166 162 166 150 146 150 
166 162 166 150 146 150 166 162 166 0 0 16 
255 251 255 150 146 150 150 146 150 150 146 150 
150 146 150 150 146 150 150 146 150 150 146 150 
150 146 150 150 146 150 150 146 150 150 146 150 
150 146 150 150 146 150 150 146 150 150 146 150 
150 146 150 150 146 150 150 146 150 150 146 150 
150 146 150 150 146 150 150 146 150 150 146 150 
150 146 150 150 146 150 150 146 150 150 146 150 
150 146 150 150 146 150 150 146 150 150 146 150 
150 146 150 150 146 150 150 146 150 150 146 150 
150 146 150 150 146 150 150 146 150 150 146 150 
150 146 150 150 146 150 150 146 150 150 146 150 
150 146 150 150 146 150 150 146 150 150 146 150 
150 146 150 150 146 150 150 146 150 150 146 150 
150 146 150 150 146 150 150 146 150 0 0 16 
255 251 255 150 146 150 150 146 150 150 146 150 
166 162 166 150 146 150 150 146 150 150 146 150 
166 162 166 150 146 150 150 146 150 150 146 150 
166 162 166 150 146 150 150 146 150 150 146 150 
166 162 166 150 146 150 150 146 150 150 146 150 
166 162 166 150 146 150 150 146 150 150 146 150 
166 162 166 150 146 150 150 146 150 150 146 150 
166 162 166 150 146 150 150 146 150 150 146 150 
166 162 166 150 146 150 150 146 150 150 146 150 
166 162 166 150 146 150 150 146 150 150 146 150 
166 162 166 150 146 150 150 146 150 150 146 150 
166 162 166 150 146 150 150 146 150 150 146 150 
166 162 166 150 146 150 150 146 150 150 146 150 
166 162 166 150 146 150 150 146 150 0 0 16 
255 251 255 150 146 150 150 146 150 150 146 150 
150 146 150 150 146 150 150 146 150 150 146 150 
150 146 150 150 146 150 150 146 150 150 146 150 
150 146 150 150 146 150 150 146 150 150 146 150 
150 146 150 150 146 150 150 146 150 150 146 150 
150 146 150 150 146 150 150 146 150 150 146 150 
150 146 150 150 146 150 150 146 150 150 146 150 
150 146 150 150 146 150 150 146 150 150 146 150 
150 146 150 150 146 150 150 146 150 150 146 150 
150 146 150 150 146 150 150 146 150 150 146 150 
150 146 150 150 146 150 150 146 150 150 146 150 
150 146 150 150 146 150 150 146 150 150 146 150 
150 146 150 150 146 150 150 146 150 150 146 150 
150 146 150 150 146 150 150 146 150 0 0 16 
255 251 255 150 146 150 166 162 166 150 146 150 
150 146 150 150 146 150 150 146 150 150 146 150 
150 146 150 150 146 150 166 162 166 150 146 150 
150 146 150 150 146 150 150 146 150 150 146 150 
150 146 150 150 146 150 166 162 166 150 146 150 
150 146 150 150 146 150 150 146 150 150 146 150 
150 146 150 150 146 150 166 162 166 150 146 150 
150 146 150 150 146 150 150 146 150 150 146 150 
150 146 150 150 146 150 166 162 166 150 146 150 
150 146 150 150 146 150 150 146 150 150 146 150 
150 146 150 150 146 150 166 162 166 150 146 150 
150 146 150 150 146 150 150 146 150 150 146 150 
150 146 150 150 146 150 166 162 166 150 146 150 
150 146 150 150 146 150 150 146 150 0 0 16 
255 251 255 150 146 150 150 146 150 150 146 150 
150 146 150 150 146 150 150 146 150 150 146 150 
150 146 150 150 146 150 150 146 150 150 146 150 
150 146 150 150 146 150 150 146 150 150 146 150 
150 146 150 150 146 150 150 146 150 150 146 150 
150 146 150 150 146 150 150 146 150 150 146 150 
150 146 150 150 146 150 150 146 150 150 146 150 
150 146 150 150 146 150 150 146 150 150 146 150 
150 146 150 150 146 150 150 146 150 150 146 150 
150 146 150 150 146 150 150 146 150 150 146 150 
150 146 150 150 146 150 150 146 150 150 146 150 
150 146 150 150 146 150 150 146 150 150 146 150 
150 146 150 150 146 150 150 146 150 150 146 150 
150 146 150 150 146 150 150 146 150 0 0 16 
255 251 255 150 146 150 150 146 150 150 146 150 
150 146 150 150 146 150 150 146 150 150 146 150 
150 146 150 150 146 150 150 146 150 150 146 150 
150 146 150 150 146 150 150 146 150 150 146 150 
150 146 150 150 146 150 150 146 150 150 146 150 
150 146 150 150 146 150 150 146 150 150 146 150 
150 146 150 150 146 150 150 146 150 150 146 150 
150 146 150 150 146 150 150 146 150 150 146 150 
150 146 150 150 146 150 150 146 150 150 146 150 
150 146 150 150 146 150 150 146 150 150 146 150 
150 146 150 150 146 150 150 146 150 150 146 150 
150 146 150 150 146 150 150 146 150 150 146 150 
150 146 150 150 146 150 150 146 150 150 146 150 
150 146 150 150 146 150 150 146 150 0 0 16 
182 178 182 0 0 16 0 0 16 0 0 16 
0 0 16 0 0 16 0 0 16 0 0 16 
0 0 16 0 0 16 0 0 16 0 0 16 
0 0 16 0 0 16 0 0 16 0 0 16 
0 0 16 0 0 16 0 0 16 0 0 16 
0 0 16 0 0 16 0 0 16 0 0 16 
0 0 16 0 0 16 0 0 16 0 0 16 
0 0 16 0 0 16 0 0 16 0 0 16 
0 0 16 0 0 16 0 0 16 0 0 16 
0 0 16 0 0 16 0 0 16 0 0 16 
0 0 16 0 0 16 0 0 16 0 0 16 
0 0 16 0 0 16 0 0 16 0 0 16 
0 0 16 0 0 16 0 0 16 0 0 16 
0 0 16 0 0 16 0 0 16 0 0 16 
